<?xml version="1.0" encoding="UTF-8" standalone="no" ?>
<!DOCTYPE svg PUBLIC "-//W3C//DTD SVG 1.1//EN" "http://www.w3.org/Graphics/SVG/1.1/DTD/svg11.dtd">
<svg xmlns="http://www.w3.org/2000/svg" xmlns:xlink="http://www.w3.org/1999/xlink" version="1.1" width="1280" height="1024" viewBox="0 0 1280 1024" xml:space="preserve">
<desc>Created with Fabric.js 3.6.3</desc>
<defs>
</defs>
<g transform="matrix(1.9692780337941633 0 0 1.9692780337941633 640.0153846153846 512.012312418764)" id="background-logo"  >
<rect style="stroke: none; stroke-width: 1; stroke-dasharray: none; stroke-linecap: butt; stroke-dashoffset: 0; stroke-linejoin: miter; stroke-miterlimit: 4; fill: rgb(20,15,51); fill-rule: nonzero; opacity: 1;"  paint-order="stroke"  x="-325" y="-260" rx="0" ry="0" width="650" height="520" />
</g>
<g transform="matrix(1.9692780337941627 0 0 1.9692780337941627 816.4103202833223 444.81783642963296)" id="text-logo-path"  >
<path style="stroke: none; stroke-width: 0; stroke-dasharray: none; stroke-linecap: butt; stroke-dashoffset: 0; stroke-linejoin: miter; stroke-miterlimit: 4; fill: rgb(23,145,208); fill-rule: nonzero; opacity: 1;"  paint-order="stroke"  transform=" translate(-141.565, 25.62)" d="M 1.14 -12.25 L 1.14 -12.25 L 1.14 -27.64 Q 1.14 -30.2 2.12 -32.42 Q 3.09 -34.65 4.73 -36.31 Q 6.37 -37.96 8.6 -38.94 Q 10.83 -39.91 13.39 -39.91 L 13.39 -39.91 L 19.54 -39.91 Q 22.1 -39.91 24.33 -38.94 Q 26.55 -37.96 28.21 -36.31 Q 29.86 -34.65 30.84 -32.42 Q 31.81 -30.2 31.81 -27.64 L 31.81 -27.64 L 22.63 -27.64 Q 22.63 -28.89 21.75 -29.78 Q 20.87 -30.67 19.54 -30.67 L 19.54 -30.67 L 13.39 -30.67 Q 12.08 -30.67 11.2 -29.78 Q 10.33 -28.89 10.33 -27.64 L 10.33 -27.64 L 10.33 -12.25 Q 10.33 -10.99 11.2 -10.09 Q 12.08 -9.18 13.39 -9.18 L 13.39 -9.18 L 19.54 -9.18 Q 20.85 -9.18 21.74 -10.09 Q 22.63 -10.99 22.63 -12.25 L 22.63 -12.25 L 31.81 -12.25 Q 31.81 -9.69 30.84 -7.46 Q 29.86 -5.23 28.21 -3.59 Q 26.55 -1.95 24.34 -0.97 Q 22.13 0 19.54 0 L 19.54 0 L 13.39 0 Q 10.83 0 8.6 -0.97 Q 6.37 -1.95 4.73 -3.59 Q 3.09 -5.23 2.12 -7.46 Q 1.14 -9.69 1.14 -12.25 Z M 43.25 0 L 34.07 0 L 34.07 -39.91 L 43.25 -39.91 L 43.25 -24.58 L 55.55 -24.58 L 55.55 -39.91 L 64.74 -39.91 L 64.74 0 L 55.55 0 L 55.55 -15.34 L 43.25 -15.34 L 43.25 0 Z M 76.18 0 L 66.99 0 L 77.65 -39.91 L 77.76 -39.91 L 86.89 -39.91 L 87 -39.91 L 97.66 0 L 88.48 0 L 82.33 -22.91 L 76.18 0 Z M 109.16 0 L 99.92 0 L 99.92 -27.64 Q 99.92 -30.2 100.89 -32.42 Q 101.87 -34.65 103.54 -36.31 Q 105.21 -37.96 107.43 -38.94 Q 109.66 -39.91 112.22 -39.91 L 112.22 -39.91 Q 114.39 -39.91 116.35 -39.19 Q 118.31 -38.46 119.87 -37.21 L 119.87 -37.21 Q 121.46 -38.46 123.42 -39.19 Q 125.38 -39.91 127.55 -39.91 L 127.55 -39.91 Q 130.11 -39.91 132.34 -38.94 Q 134.57 -37.96 136.22 -36.31 Q 137.88 -34.65 138.85 -32.42 Q 139.83 -30.2 139.83 -27.64 L 139.83 -27.64 L 139.83 0 L 130.64 0 L 130.64 -27.64 Q 130.64 -28.89 129.75 -29.78 Q 128.86 -30.67 127.55 -30.67 L 127.55 -30.67 Q 126.25 -30.67 125.37 -29.78 Q 124.49 -28.89 124.49 -27.64 L 124.49 -27.64 L 124.49 0 L 115.31 0 L 115.31 -27.64 Q 115.31 -28.89 114.42 -29.78 Q 113.53 -30.67 112.22 -30.67 L 112.22 -30.67 Q 110.91 -30.67 110.03 -29.78 Q 109.16 -28.89 109.16 -27.64 L 109.16 -27.64 L 109.16 0 Z M 151.27 0 L 142.08 0 L 142.08 -39.91 L 151.27 -39.91 L 160.48 -39.91 Q 163.04 -39.91 165.27 -38.94 Q 167.49 -37.96 169.15 -36.31 Q 170.81 -34.65 171.78 -32.42 Q 172.75 -30.2 172.75 -27.64 L 172.75 -27.64 Q 172.75 -25.47 172.04 -23.5 Q 171.33 -21.54 170.08 -19.96 L 170.08 -19.96 Q 171.33 -18.37 172.04 -16.39 Q 172.75 -14.42 172.75 -12.25 L 172.75 -12.25 Q 172.75 -9.69 171.78 -7.46 Q 170.81 -5.23 169.15 -3.59 Q 167.49 -1.95 165.28 -0.97 Q 163.07 0 160.48 0 L 160.48 0 L 151.27 0 Z M 151.27 -15.34 L 151.27 -9.18 L 160.48 -9.18 Q 161.79 -9.18 162.68 -10.09 Q 163.57 -10.99 163.57 -12.25 L 163.57 -12.25 Q 163.57 -13.55 162.69 -14.44 Q 161.82 -15.34 160.48 -15.34 L 160.48 -15.34 L 151.27 -15.34 Z M 151.27 -30.67 L 151.27 -24.58 L 160.48 -24.58 Q 161.79 -24.58 162.68 -25.45 Q 163.57 -26.33 163.57 -27.64 L 163.57 -27.64 Q 163.57 -28.89 162.69 -29.78 Q 161.82 -30.67 160.48 -30.67 L 160.48 -30.67 L 151.27 -30.67 Z M 175.01 -12.25 L 175.01 -12.25 L 175.01 -27.64 Q 175.01 -30.2 175.98 -32.42 Q 176.96 -34.65 178.6 -36.31 Q 180.24 -37.96 182.47 -38.94 Q 184.69 -39.91 187.25 -39.91 L 187.25 -39.91 L 205.68 -39.91 L 205.68 -30.67 L 187.25 -30.67 Q 185.95 -30.67 185.07 -29.78 Q 184.19 -28.89 184.19 -27.64 L 184.19 -27.64 L 184.19 -24.58 L 205.68 -24.58 L 205.68 -15.34 L 184.19 -15.34 L 184.19 -12.25 Q 184.19 -10.99 185.07 -10.09 Q 185.95 -9.18 187.25 -9.18 L 187.25 -9.18 L 205.68 -9.18 L 205.68 0 L 187.25 0 Q 184.69 0 182.47 -0.97 Q 180.24 -1.95 178.6 -3.59 Q 176.96 -5.23 175.98 -7.46 Q 175.01 -9.69 175.01 -12.25 Z M 217.12 0 L 207.93 0 L 207.93 -39.91 L 217.12 -39.91 L 226.33 -39.91 Q 228.89 -39.91 231.12 -38.94 Q 233.34 -37.96 235 -36.31 Q 236.66 -34.65 237.63 -32.42 Q 238.6 -30.2 238.6 -27.64 L 238.6 -27.64 Q 238.6 -25.47 237.89 -23.5 Q 237.18 -21.54 235.93 -19.96 L 235.93 -19.96 Q 237.18 -18.37 237.89 -16.39 Q 238.6 -14.42 238.6 -12.25 L 238.6 -12.25 L 238.6 0 L 229.42 0 L 229.42 -12.25 Q 229.42 -13.55 228.54 -14.44 Q 227.67 -15.34 226.33 -15.34 L 226.33 -15.34 L 217.12 -15.34 L 217.12 0 Z M 217.12 -30.67 L 217.12 -24.58 L 226.33 -24.58 Q 227.64 -24.58 228.53 -25.45 Q 229.42 -26.33 229.42 -27.64 L 229.42 -27.64 Q 229.42 -28.89 228.54 -29.78 Q 227.67 -30.67 226.33 -30.67 L 226.33 -30.67 L 217.12 -30.67 Z M 241.78 -42.75 Q 241.14 -42.75 240.94 -43.13 Q 240.75 -43.5 241.08 -43.95 L 241.08 -43.95 L 245.65 -50.79 Q 245.92 -51.24 246.41 -51.24 Q 246.9 -51.24 247.23 -50.79 L 247.23 -50.79 L 248.73 -48.57 Q 249.01 -48.12 249.01 -47.37 Q 249.01 -46.62 248.73 -46.17 L 248.73 -46.17 L 247.23 -43.95 Q 246.9 -43.5 246.24 -43.13 Q 245.59 -42.75 244.95 -42.75 L 244.95 -42.75 L 241.78 -42.75 Z M 269.72 0 L 251.32 0 L 251.32 -9.18 L 269.72 -9.18 Q 271.03 -9.24 271.92 -10.12 Q 272.81 -10.99 272.81 -12.25 L 272.81 -12.25 Q 272.81 -13.55 271.93 -14.44 Q 271.06 -15.34 269.72 -15.34 L 269.72 -15.34 L 263.57 -15.34 Q 261.01 -15.34 258.78 -16.31 Q 256.56 -17.28 254.91 -18.95 Q 253.27 -20.62 252.3 -22.85 Q 251.32 -25.08 251.32 -27.64 L 251.32 -27.64 Q 251.32 -30.2 252.3 -32.42 Q 253.27 -34.65 254.91 -36.31 Q 256.56 -37.96 258.78 -38.94 Q 261.01 -39.91 263.57 -39.91 L 263.57 -39.91 L 275.84 -39.91 L 275.84 -30.67 L 263.57 -30.67 Q 262.26 -30.67 261.38 -29.78 Q 260.51 -28.89 260.51 -27.64 L 260.51 -27.64 Q 260.51 -26.33 261.38 -25.45 Q 262.26 -24.58 263.57 -24.58 L 263.57 -24.58 L 269.72 -24.58 Q 272.28 -24.58 274.51 -23.6 Q 276.73 -22.63 278.39 -20.94 Q 280.05 -19.26 281.02 -17.03 Q 281.99 -14.81 281.99 -12.25 L 281.99 -12.25 Q 281.99 -9.69 281.02 -7.46 Q 280.05 -5.23 278.39 -3.59 Q 276.73 -1.95 274.52 -0.97 Q 272.31 0 269.72 0 L 269.72 0 Z" stroke-linecap="round" />
</g>
<g transform="matrix(1.7140717895693878 0 0 1.7140717895693875 816.7175391953327 545.6195201048596)" id="tagline-b04c831b-3ed1-4b6b-9c8e-1c5e87bdc4f1-logo-path"  >
<path style="stroke: none; stroke-width: 0; stroke-dasharray: none; stroke-linecap: butt; stroke-dashoffset: 0; stroke-linejoin: miter; stroke-miterlimit: 4; fill: rgb(23,145,208); fill-rule: nonzero; opacity: 1;"  paint-order="stroke"  transform=" translate(-207.56, 11.115)" d="M 5.44 0 L 1.76 0 L 1.76 -10.15 Q 1.76 -12.38 2.52 -14.25 Q 3.29 -16.11 4.64 -17.46 Q 6 -18.8 7.86 -19.56 Q 9.71 -20.31 11.91 -20.31 L 11.91 -20.31 L 20.21 -20.31 Q 20.59 -20.31 20.93 -20.16 Q 21.27 -20.02 21.52 -19.77 Q 21.78 -19.51 21.92 -19.17 Q 22.06 -18.83 22.06 -18.45 L 22.06 -18.45 L 22.06 0 L 18.38 0 L 18.38 -4.98 L 5.44 -4.98 L 5.44 0 Z M 5.44 -10.15 L 5.44 -8.67 L 18.38 -8.67 L 18.38 -16.62 L 11.91 -16.62 Q 11.74 -16.62 11.19 -16.57 Q 10.65 -16.52 9.93 -16.33 Q 9.22 -16.13 8.43 -15.72 Q 7.63 -15.31 6.97 -14.58 Q 6.3 -13.86 5.87 -12.78 Q 5.44 -11.7 5.44 -10.15 L 5.44 -10.15 Z M 34.99 -14.3 L 34.99 -14.3 Q 34.99 -15.96 35.58 -17.1 Q 36.17 -18.24 37.05 -18.95 Q 37.94 -19.67 38.97 -19.99 Q 40 -20.31 40.89 -20.31 L 40.89 -20.31 L 53.43 -20.31 L 53.43 -16.62 L 40.89 -16.62 Q 39.85 -16.62 39.26 -15.99 Q 38.67 -15.35 38.67 -14.3 L 38.67 -14.3 Q 38.67 -13.24 39.26 -12.62 Q 39.85 -12.01 40.89 -12.01 L 40.89 -12.01 L 49.36 -12.01 L 49.39 -12.01 Q 49.99 -11.99 50.65 -11.84 Q 51.32 -11.7 51.97 -11.38 Q 52.63 -11.07 53.23 -10.6 Q 53.82 -10.12 54.28 -9.46 Q 54.74 -8.79 55.01 -7.93 Q 55.28 -7.07 55.28 -5.98 L 55.28 -5.98 Q 55.28 -4.89 55.01 -4.01 Q 54.73 -3.14 54.28 -2.48 Q 53.82 -1.81 53.21 -1.35 Q 52.6 -0.88 51.95 -0.58 Q 51.3 -0.28 50.63 -0.14 Q 49.96 0 49.36 0 L 49.36 0 L 35.16 0 L 35.16 -3.68 L 49.36 -3.68 Q 50.42 -3.68 51.01 -4.3 Q 51.6 -4.93 51.6 -5.98 L 51.6 -5.98 Q 51.6 -6.49 51.44 -6.91 Q 51.29 -7.33 51 -7.65 Q 50.71 -7.96 50.29 -8.13 Q 49.87 -8.3 49.36 -8.3 L 49.36 -8.3 L 40.89 -8.3 Q 40 -8.3 38.97 -8.62 Q 37.94 -8.94 37.05 -9.64 Q 36.17 -10.35 35.58 -11.5 Q 34.99 -12.65 34.99 -14.3 Z M 57.7 -6.81 L 57.7 -6.81 L 57.7 -15.31 L 61.38 -15.31 L 61.38 -6.81 Q 61.38 -6.09 61.63 -5.52 Q 61.88 -4.94 62.3 -4.53 Q 62.73 -4.12 63.3 -3.9 Q 63.88 -3.68 64.54 -3.68 L 64.54 -3.68 L 70.98 -3.68 L 70.98 -15.31 L 74.67 -15.31 L 74.67 -1.85 Q 74.67 -1.46 74.52 -1.12 Q 74.38 -0.78 74.14 -0.53 Q 73.89 -0.28 73.55 -0.14 Q 73.22 0 72.84 0 L 72.84 0 L 64.51 0 Q 63.83 0 63.06 -0.16 Q 62.29 -0.31 61.54 -0.66 Q 60.79 -1.01 60.09 -1.54 Q 59.39 -2.07 58.86 -2.82 Q 58.34 -3.58 58.02 -4.57 Q 57.7 -5.56 57.7 -6.81 Z M 77.14 -5.07 L 77.14 -5.07 Q 77.14 -5.83 77.41 -6.73 Q 77.68 -7.62 78.28 -8.38 Q 78.89 -9.13 79.86 -9.64 Q 80.83 -10.15 82.21 -10.15 L 82.21 -10.15 L 88.85 -10.15 L 88.85 -6.64 L 82.21 -6.64 Q 81.46 -6.64 81.05 -6.18 Q 80.64 -5.72 80.64 -5.04 L 80.64 -5.04 Q 80.64 -4.32 81.12 -3.92 Q 81.59 -3.51 82.24 -3.51 L 82.24 -3.51 L 88.85 -3.51 Q 89.61 -3.51 90.02 -3.96 Q 90.43 -4.42 90.43 -5.1 L 90.43 -5.1 L 90.43 -10.24 Q 90.43 -10.96 89.98 -11.38 Q 89.53 -11.81 88.85 -11.81 L 88.85 -11.81 L 80.77 -11.81 L 80.77 -15.31 L 88.85 -15.31 Q 89.62 -15.31 90.5 -15.04 Q 91.39 -14.77 92.15 -14.17 Q 92.9 -13.57 93.41 -12.6 Q 93.92 -11.63 93.92 -10.24 L 93.92 -10.24 L 93.92 -5.07 Q 93.92 -4.3 93.66 -3.42 Q 93.39 -2.53 92.78 -1.78 Q 92.18 -1.02 91.21 -0.51 Q 90.24 0 88.85 0 L 88.85 0 L 82.21 0 Q 81.45 0 80.56 -0.27 Q 79.68 -0.54 78.92 -1.14 Q 78.16 -1.74 77.65 -2.71 Q 77.14 -3.68 77.14 -5.07 Z M 106.88 -1.85 L 106.88 -1.85 L 106.88 -18.45 Q 106.88 -18.83 107.02 -19.17 Q 107.16 -19.51 107.41 -19.77 Q 107.66 -20.02 108 -20.16 Q 108.34 -20.31 108.74 -20.31 L 108.74 -20.31 L 118.68 -20.31 Q 120.5 -20.31 122.06 -19.67 Q 123.62 -19.03 124.75 -17.91 Q 125.88 -16.78 126.53 -15.22 Q 127.17 -13.65 127.17 -11.81 L 127.17 -11.81 L 127.17 -8.5 Q 127.17 -6.64 126.53 -5.08 Q 125.88 -3.53 124.75 -2.4 Q 123.62 -1.27 122.06 -0.64 Q 120.5 0 118.68 0 L 118.68 0 L 108.74 0 Q 108.34 0 108 -0.14 Q 107.66 -0.28 107.41 -0.53 Q 107.16 -0.78 107.02 -1.12 Q 106.88 -1.46 106.88 -1.85 Z M 110.56 -16.62 L 110.56 -3.68 L 118.68 -3.68 Q 119.75 -3.68 120.64 -4.03 Q 121.52 -4.38 122.16 -5.01 Q 122.8 -5.64 123.14 -6.52 Q 123.49 -7.41 123.49 -8.5 L 123.49 -8.5 L 123.49 -11.81 Q 123.49 -12.89 123.14 -13.78 Q 122.8 -14.67 122.16 -15.3 Q 121.52 -15.93 120.64 -16.28 Q 119.75 -16.62 118.68 -16.62 L 118.68 -16.62 L 110.56 -16.62 Z M 134.11 0 L 130.43 0 L 130.43 -15.31 L 134.11 -15.31 L 134.11 0 Z M 134.11 -18.45 L 130.43 -18.45 L 130.43 -21.78 L 134.11 -21.78 L 134.11 -18.45 Z M 137.64 -1.8 L 137.64 -1.8 L 137.64 -15.31 L 141.32 -15.31 L 141.32 -3.79 Q 142.66 -3.79 143.9 -4.38 Q 145.14 -4.96 146.25 -5.91 Q 147.35 -6.87 148.29 -8.09 Q 149.23 -9.3 149.97 -10.58 Q 150.71 -11.87 151.22 -13.1 Q 151.74 -14.33 152 -15.31 L 152 -15.31 L 155.9 -15.31 Q 155.28 -13.37 154.44 -11.48 Q 153.61 -9.6 152.53 -7.89 Q 151.44 -6.19 150.1 -4.74 Q 148.77 -3.29 147.15 -2.23 Q 145.52 -1.18 143.62 -0.57 Q 141.71 0.03 139.49 0.03 L 139.49 0.03 Q 139.11 0.03 138.77 -0.11 Q 138.43 -0.25 138.17 -0.5 Q 137.92 -0.75 137.78 -1.08 Q 137.64 -1.42 137.64 -1.8 Z M 156.91 -5.07 L 156.91 -5.07 L 156.91 -10.24 Q 156.91 -11 157.18 -11.89 Q 157.45 -12.77 158.05 -13.53 Q 158.65 -14.29 159.62 -14.8 Q 160.59 -15.31 161.98 -15.31 L 161.98 -15.31 L 168.62 -15.31 Q 169.38 -15.31 170.27 -15.04 Q 171.15 -14.77 171.91 -14.17 Q 172.67 -13.57 173.18 -12.6 Q 173.69 -11.63 173.69 -10.24 L 173.69 -10.24 Q 173.69 -9.47 173.42 -8.59 Q 173.15 -7.7 172.55 -6.95 Q 171.95 -6.19 170.98 -5.68 Q 170.01 -5.17 168.62 -5.17 L 168.62 -5.17 L 161.98 -5.17 L 161.98 -8.67 L 168.62 -8.67 Q 169.37 -8.67 169.78 -9.13 Q 170.19 -9.59 170.19 -10.27 L 170.19 -10.27 Q 170.19 -10.99 169.73 -11.4 Q 169.27 -11.81 168.62 -11.81 L 168.62 -11.81 L 161.98 -11.81 Q 161.23 -11.81 160.82 -11.35 Q 160.41 -10.89 160.41 -10.21 L 160.41 -10.21 L 160.41 -5.07 Q 160.41 -4.33 160.87 -3.92 Q 161.33 -3.51 162.01 -3.51 L 162.01 -3.51 L 168.62 -3.51 L 168.62 0 L 161.98 0 Q 161.21 0 160.33 -0.27 Q 159.44 -0.54 158.69 -1.14 Q 157.93 -1.74 157.42 -2.71 Q 156.91 -3.68 156.91 -5.07 Z M 179.76 0 L 176.08 0 L 176.08 -10.15 Q 176.08 -11.1 176.32 -11.85 Q 176.56 -12.6 176.97 -13.18 Q 177.37 -13.75 177.89 -14.15 Q 178.42 -14.56 178.99 -14.81 Q 179.56 -15.07 180.15 -15.19 Q 180.74 -15.31 181.25 -15.31 L 181.25 -15.31 L 189.56 -15.31 L 189.56 -11.63 L 181.28 -11.63 Q 180.53 -11.63 180.15 -11.25 Q 179.76 -10.88 179.76 -10.15 L 179.76 -10.15 L 179.76 0 Z M 191.46 -10.88 L 191.46 -10.88 Q 191.46 -12.11 191.9 -12.95 Q 192.34 -13.79 193 -14.32 Q 193.67 -14.84 194.45 -15.07 Q 195.23 -15.31 195.91 -15.31 L 195.91 -15.31 L 204.95 -15.31 L 204.95 -11.63 L 195.93 -11.63 Q 195.65 -11.63 195.49 -11.56 Q 195.33 -11.5 195.25 -11.39 Q 195.17 -11.29 195.16 -11.17 Q 195.14 -11.04 195.14 -10.93 L 195.14 -10.93 Q 195.16 -10.71 195.23 -10.58 Q 195.3 -10.45 195.4 -10.39 Q 195.51 -10.34 195.64 -10.33 Q 195.78 -10.32 195.91 -10.32 L 195.91 -10.32 L 201.61 -10.32 Q 203.03 -10.32 204.02 -9.81 Q 205.01 -9.3 205.62 -8.53 Q 206.23 -7.76 206.5 -6.85 Q 206.78 -5.95 206.78 -5.17 L 206.78 -5.17 Q 206.78 -4.22 206.54 -3.46 Q 206.3 -2.7 205.9 -2.13 Q 205.51 -1.56 204.98 -1.15 Q 204.46 -0.75 203.89 -0.5 Q 203.31 -0.24 202.72 -0.12 Q 202.14 0 201.61 0 L 201.61 0 L 191.64 0 L 191.64 -3.68 L 201.58 -3.68 Q 202.33 -3.68 202.72 -4.06 Q 203.1 -4.45 203.1 -5.17 L 203.1 -5.17 Q 203.03 -6.64 201.61 -6.64 L 201.61 -6.64 L 195.91 -6.64 Q 194.69 -6.64 193.84 -7.07 Q 192.99 -7.49 192.46 -8.13 Q 191.93 -8.77 191.69 -9.5 Q 191.46 -10.24 191.46 -10.88 Z M 208.38 -5.07 L 208.38 -5.07 Q 208.38 -5.83 208.65 -6.73 Q 208.92 -7.62 209.52 -8.38 Q 210.12 -9.13 211.09 -9.64 Q 212.06 -10.15 213.45 -10.15 L 213.45 -10.15 L 220.09 -10.15 L 220.09 -6.64 L 213.45 -6.64 Q 212.7 -6.64 212.29 -6.18 Q 211.88 -5.72 211.88 -5.04 L 211.88 -5.04 Q 211.88 -4.32 212.35 -3.92 Q 212.83 -3.51 213.48 -3.51 L 213.48 -3.51 L 220.09 -3.51 Q 220.84 -3.51 221.25 -3.96 Q 221.66 -4.42 221.66 -5.1 L 221.66 -5.1 L 221.66 -10.24 Q 221.66 -10.96 221.22 -11.38 Q 220.77 -11.81 220.09 -11.81 L 220.09 -11.81 L 212.01 -11.81 L 212.01 -15.31 L 220.09 -15.31 Q 220.86 -15.31 221.74 -15.04 Q 222.63 -14.77 223.38 -14.17 Q 224.14 -13.57 224.65 -12.6 Q 225.16 -11.63 225.16 -10.24 L 225.16 -10.24 L 225.16 -5.07 Q 225.16 -4.3 224.89 -3.42 Q 224.62 -2.53 224.02 -1.78 Q 223.42 -1.02 222.45 -0.51 Q 221.48 0 220.09 0 L 220.09 0 L 213.45 0 Q 212.69 0 211.8 -0.27 Q 210.92 -0.54 210.16 -1.14 Q 209.4 -1.74 208.89 -2.71 Q 208.38 -3.68 208.38 -5.07 Z M 213.69 -17.39 L 211.18 -17.39 Q 211.18 -18.59 211.47 -19.51 Q 211.77 -20.42 212.25 -21.03 Q 212.74 -21.65 213.39 -21.96 Q 214.03 -22.26 214.75 -22.26 L 214.75 -22.26 Q 215.42 -22.26 215.91 -21.99 Q 216.4 -21.72 216.82 -21.4 Q 217.25 -21.08 217.65 -20.82 Q 218.05 -20.56 218.56 -20.56 L 218.56 -20.56 Q 218.99 -20.56 219.23 -20.77 Q 219.48 -20.99 219.61 -21.26 Q 219.74 -21.54 219.78 -21.82 Q 219.82 -22.1 219.84 -22.26 L 219.84 -22.26 L 222.33 -22.26 Q 222.33 -20.9 222.05 -19.97 Q 221.76 -19.03 221.28 -18.46 Q 220.8 -17.88 220.16 -17.64 Q 219.51 -17.39 218.79 -17.39 L 218.79 -17.39 Q 218.02 -17.39 217.5 -17.66 Q 216.98 -17.93 216.57 -18.25 Q 216.15 -18.56 215.79 -18.83 Q 215.42 -19.1 214.97 -19.1 L 214.97 -19.1 Q 214.54 -19.1 214.29 -18.89 Q 214.04 -18.68 213.92 -18.39 Q 213.79 -18.1 213.75 -17.81 Q 213.71 -17.53 213.69 -17.39 L 213.69 -17.39 Z M 227.99 -5.17 L 227.99 -5.17 L 227.99 -10.15 Q 227.99 -11.57 228.51 -12.55 Q 229.03 -13.54 229.8 -14.15 Q 230.57 -14.77 231.48 -15.04 Q 232.38 -15.31 233.15 -15.31 L 233.15 -15.31 L 239.79 -15.31 Q 241.2 -15.31 242.2 -14.8 Q 243.19 -14.29 243.8 -13.52 Q 244.4 -12.74 244.68 -11.84 Q 244.96 -10.93 244.96 -10.15 L 244.96 -10.15 L 244.96 -5.17 Q 244.96 -4.22 244.72 -3.46 Q 244.48 -2.7 244.08 -2.13 Q 243.68 -1.56 243.16 -1.15 Q 242.63 -0.75 242.06 -0.5 Q 241.49 -0.24 240.9 -0.12 Q 240.31 0 239.79 0 L 239.79 0 L 233.15 0 Q 232.38 0 231.48 -0.27 Q 230.57 -0.54 229.8 -1.15 Q 229.03 -1.77 228.51 -2.75 Q 227.99 -3.74 227.99 -5.17 Z M 231.67 -10.15 L 231.67 -5.17 Q 231.67 -4.45 232.06 -4.06 Q 232.44 -3.68 233.18 -3.68 L 233.18 -3.68 L 239.79 -3.68 Q 240.54 -3.68 240.91 -4.06 Q 241.27 -4.45 241.27 -5.17 L 241.27 -5.17 L 241.27 -10.12 Q 241.27 -10.89 240.89 -11.26 Q 240.51 -11.63 239.79 -11.63 L 239.79 -11.63 L 233.18 -11.63 Q 232.44 -11.63 232.06 -11.25 Q 231.67 -10.88 231.67 -10.15 L 231.67 -10.15 Z M 257.66 -5.17 L 257.66 -5.17 L 257.66 -15.14 Q 257.66 -15.65 257.78 -16.23 Q 257.9 -16.82 258.15 -17.4 Q 258.41 -17.97 258.82 -18.49 Q 259.23 -19.02 259.8 -19.42 Q 260.38 -19.82 261.13 -20.06 Q 261.88 -20.31 262.83 -20.31 L 262.83 -20.31 L 277.79 -20.31 L 277.79 -16.62 L 262.83 -16.62 Q 262.1 -16.62 261.72 -16.24 Q 261.34 -15.86 261.34 -15.11 L 261.34 -15.11 L 261.34 -5.17 Q 261.34 -4.46 261.73 -4.07 Q 262.12 -3.68 262.83 -3.68 L 262.83 -3.68 L 274.28 -3.68 L 274.28 -8.3 L 264.48 -8.3 L 264.48 -12.01 L 276.11 -12.01 Q 276.51 -12.01 276.85 -11.86 Q 277.19 -11.71 277.43 -11.46 Q 277.68 -11.2 277.82 -10.87 Q 277.96 -10.54 277.96 -10.15 L 277.96 -10.15 L 277.96 -1.85 Q 277.96 -1.46 277.82 -1.12 Q 277.68 -0.78 277.43 -0.53 Q 277.19 -0.28 276.85 -0.14 Q 276.51 0 276.11 0 L 276.11 0 L 262.83 0 Q 262.32 0 261.73 -0.12 Q 261.14 -0.24 260.57 -0.5 Q 259.99 -0.75 259.47 -1.15 Q 258.95 -1.56 258.54 -2.13 Q 258.14 -2.7 257.9 -3.46 Q 257.66 -4.22 257.66 -5.17 Z M 280.41 -5.07 L 280.41 -5.07 Q 280.41 -5.83 280.68 -6.73 Q 280.95 -7.62 281.55 -8.38 Q 282.16 -9.13 283.13 -9.64 Q 284.1 -10.15 285.48 -10.15 L 285.48 -10.15 L 292.12 -10.15 L 292.12 -6.64 L 285.48 -6.64 Q 284.73 -6.64 284.32 -6.18 Q 283.91 -5.72 283.91 -5.04 L 283.91 -5.04 Q 283.91 -4.32 284.39 -3.92 Q 284.86 -3.51 285.51 -3.51 L 285.51 -3.51 L 292.12 -3.51 Q 292.87 -3.51 293.29 -3.96 Q 293.7 -4.42 293.7 -5.1 L 293.7 -5.1 L 293.7 -10.24 Q 293.7 -10.96 293.25 -11.38 Q 292.8 -11.81 292.12 -11.81 L 292.12 -11.81 L 284.04 -11.81 L 284.04 -15.31 L 292.12 -15.31 Q 292.89 -15.31 293.77 -15.04 Q 294.66 -14.77 295.42 -14.17 Q 296.17 -13.57 296.68 -12.6 Q 297.19 -11.63 297.19 -10.24 L 297.19 -10.24 L 297.19 -5.07 Q 297.19 -4.3 296.92 -3.42 Q 296.66 -2.53 296.05 -1.78 Q 295.45 -1.02 294.48 -0.51 Q 293.51 0 292.12 0 L 292.12 0 L 285.48 0 Q 284.72 0 283.83 -0.27 Q 282.95 -0.54 282.19 -1.14 Q 281.43 -1.74 280.92 -2.71 Q 280.41 -3.68 280.41 -5.07 Z M 303.93 0 L 300.25 0 L 300.25 -10.15 Q 300.25 -11.1 300.49 -11.85 Q 300.73 -12.6 301.14 -13.18 Q 301.54 -13.75 302.06 -14.15 Q 302.59 -14.56 303.16 -14.81 Q 303.74 -15.07 304.32 -15.19 Q 304.91 -15.31 305.42 -15.31 L 305.42 -15.31 L 313.73 -15.31 L 313.73 -11.63 L 305.45 -11.63 Q 304.7 -11.63 304.32 -11.25 Q 303.93 -10.88 303.93 -10.15 L 303.93 -10.15 L 303.93 0 Z M 313.99 -5.07 L 313.99 -5.07 Q 313.99 -5.83 314.26 -6.73 Q 314.53 -7.62 315.13 -8.38 Q 315.73 -9.13 316.7 -9.64 Q 317.67 -10.15 319.06 -10.15 L 319.06 -10.15 L 325.7 -10.15 L 325.7 -6.64 L 319.06 -6.64 Q 318.31 -6.64 317.9 -6.18 Q 317.48 -5.72 317.48 -5.04 L 317.48 -5.04 Q 317.48 -4.32 317.96 -3.92 Q 318.43 -3.51 319.08 -3.51 L 319.08 -3.51 L 325.7 -3.51 Q 326.45 -3.51 326.86 -3.96 Q 327.27 -4.42 327.27 -5.1 L 327.27 -5.1 L 327.27 -10.24 Q 327.27 -10.96 326.82 -11.38 Q 326.38 -11.81 325.7 -11.81 L 325.7 -11.81 L 317.61 -11.81 L 317.61 -15.31 L 325.7 -15.31 Q 326.46 -15.31 327.35 -15.04 Q 328.23 -14.77 328.99 -14.17 Q 329.75 -13.57 330.26 -12.6 Q 330.77 -11.63 330.77 -10.24 L 330.77 -10.24 L 330.77 -5.07 Q 330.77 -4.3 330.5 -3.42 Q 330.23 -2.53 329.63 -1.78 Q 329.03 -1.02 328.06 -0.51 Q 327.09 0 325.7 0 L 325.7 0 L 319.06 0 Q 318.29 0 317.41 -0.27 Q 316.52 -0.54 315.76 -1.14 Q 315.01 -1.74 314.5 -2.71 Q 313.99 -3.68 313.99 -5.07 Z M 337.59 0 L 333.91 0 L 333.91 -13.48 Q 333.91 -13.86 334.05 -14.2 Q 334.19 -14.53 334.45 -14.78 Q 334.7 -15.02 335.04 -15.17 Q 335.38 -15.31 335.77 -15.31 L 335.77 -15.31 L 344.06 -15.31 Q 344.76 -15.31 345.53 -15.15 Q 346.3 -15 347.06 -14.65 Q 347.82 -14.3 348.5 -13.77 Q 349.19 -13.24 349.72 -12.48 Q 350.25 -11.72 350.56 -10.73 Q 350.87 -9.74 350.87 -8.5 L 350.87 -8.5 L 350.87 0 L 347.19 0 L 347.19 -8.5 Q 347.19 -9.22 346.95 -9.79 Q 346.7 -10.37 346.27 -10.78 Q 345.85 -11.19 345.27 -11.41 Q 344.7 -11.63 344.04 -11.63 L 344.04 -11.63 L 337.59 -11.63 L 337.59 0 Z M 357.42 -11.63 L 352.63 -11.63 L 352.63 -15.31 L 357.42 -15.31 L 357.42 -20.31 L 361.14 -20.31 L 361.14 -15.31 L 367.57 -15.31 L 367.57 -11.63 L 361.14 -11.63 L 361.14 0 L 357.42 0 L 357.42 -11.63 Z M 373.73 0 L 370.05 0 L 370.05 -15.31 L 373.73 -15.31 L 373.73 0 Z M 373.73 -18.45 L 370.05 -18.45 L 370.05 -21.78 L 373.73 -21.78 L 373.73 -18.45 Z M 377.08 -5.17 L 377.08 -5.17 L 377.08 -10.15 Q 377.08 -11.57 377.6 -12.55 Q 378.12 -13.54 378.89 -14.15 Q 379.66 -14.77 380.57 -15.04 Q 381.47 -15.31 382.24 -15.31 L 382.24 -15.31 L 388.88 -15.31 L 388.88 -11.63 L 382.27 -11.63 Q 381.53 -11.63 381.15 -11.25 Q 380.77 -10.88 380.77 -10.15 L 380.77 -10.15 L 380.77 -5.2 Q 380.77 -4.45 381.14 -4.06 Q 381.52 -3.68 382.24 -3.68 L 382.24 -3.68 L 388.88 -3.68 Q 389.63 -3.68 390 -4.06 Q 390.37 -4.45 390.37 -5.17 L 390.37 -5.17 L 390.37 -21.78 L 394.05 -21.78 L 394.05 -5.17 Q 394.05 -4.22 393.81 -3.46 Q 393.57 -2.7 393.17 -2.13 Q 392.77 -1.56 392.25 -1.15 Q 391.73 -0.75 391.15 -0.5 Q 390.58 -0.24 389.99 -0.12 Q 389.4 0 388.88 0 L 388.88 0 L 382.24 0 Q 381.29 0 380.54 -0.24 Q 379.79 -0.48 379.22 -0.89 Q 378.64 -1.29 378.24 -1.81 Q 377.84 -2.34 377.58 -2.91 Q 377.33 -3.48 377.21 -4.07 Q 377.08 -4.66 377.08 -5.17 Z M 396.58 -5.07 L 396.58 -5.07 Q 396.58 -5.83 396.85 -6.73 Q 397.12 -7.62 397.72 -8.38 Q 398.33 -9.13 399.3 -9.64 Q 400.27 -10.15 401.65 -10.15 L 401.65 -10.15 L 408.29 -10.15 L 408.29 -6.64 L 401.65 -6.64 Q 400.9 -6.64 400.49 -6.18 Q 400.08 -5.72 400.08 -5.04 L 400.08 -5.04 Q 400.08 -4.32 400.56 -3.92 Q 401.03 -3.51 401.68 -3.51 L 401.68 -3.51 L 408.29 -3.51 Q 409.04 -3.51 409.46 -3.96 Q 409.87 -4.42 409.87 -5.1 L 409.87 -5.1 L 409.87 -10.24 Q 409.87 -10.96 409.42 -11.38 Q 408.97 -11.81 408.29 -11.81 L 408.29 -11.81 L 400.21 -11.81 L 400.21 -15.31 L 408.29 -15.31 Q 409.06 -15.31 409.94 -15.04 Q 410.83 -14.77 411.59 -14.17 Q 412.34 -13.57 412.85 -12.6 Q 413.36 -11.63 413.36 -10.24 L 413.36 -10.24 L 413.36 -5.07 Q 413.36 -4.3 413.09 -3.42 Q 412.83 -2.53 412.22 -1.78 Q 411.62 -1.02 410.65 -0.51 Q 409.68 0 408.29 0 L 408.29 0 L 401.65 0 Q 400.89 0 400 -0.27 Q 399.12 -0.54 398.36 -1.14 Q 397.6 -1.74 397.09 -2.71 Q 396.58 -3.68 396.58 -5.07 Z" stroke-linecap="round" />
</g>
<g transform="matrix(1.1135532223099776 0 0 1.1135532223099776 284.83658600618367 550.3259764489457)" id="logo-logo"  >
<g style=""  paint-order="stroke"   >
		<g transform="matrix(0.3833224065240303 0 0 0.3833224065240303 -114.56886488290502 -40.241265746073765)"  >
<g style=""  paint-order="stroke"   >
		<g transform="matrix(1 0 0 1 0 0)"  >
<path style="stroke: none; stroke-width: 1; stroke-dasharray: none; stroke-linecap: butt; stroke-dashoffset: 0; stroke-linejoin: miter; stroke-miterlimit: 4; fill: rgb(84,32,127); fill-rule: nonzero; opacity: 1;"  paint-order="stroke"  transform=" translate(-100, -100)" d="M 200 100 A 100 100 0 0 1 100 200 A 100 100 0 0 1 0 100 A 100 100 0 0 1 100 0 A 100 100 0 0 1 200 100 Z" stroke-linecap="round" />
</g>
</g>
</g>
		<g transform="matrix(0.3994937231227864 0 0 0.39949372312278636 -65.7092062563658 -27.728766633185018)"  >
<g style=""  paint-order="stroke"   >
		<g transform="matrix(1 0 0 1 0 0)"  >
<path style="stroke: none; stroke-width: 1; stroke-dasharray: none; stroke-linecap: butt; stroke-dashoffset: 0; stroke-linejoin: miter; stroke-miterlimit: 4; fill: rgb(86,31,126); fill-rule: nonzero; opacity: 1;"  paint-order="stroke"  transform=" translate(-100, -100)" d="M 200 100 A 100 100 0 0 1 100 200 A 100 100 0 0 1 0 100 A 100 100 0 0 1 100 0 A 100 100 0 0 1 200 100 Z" stroke-linecap="round" />
</g>
</g>
</g>
		<g transform="matrix(0.45414712252766043 0 0 0.45414712252766043 -101.60078274731563 -84.4489465810257)"  >
<g style=""  paint-order="stroke"   >
		<g transform="matrix(1 0 0 1 0 0)"  >
<path style="stroke: none; stroke-width: 1; stroke-dasharray: none; stroke-linecap: butt; stroke-dashoffset: 0; stroke-linejoin: miter; stroke-miterlimit: 4; fill: rgb(55,45,141); fill-rule: nonzero; opacity: 1;"  paint-order="stroke"  transform=" translate(-100, -100)" d="M 200 100 A 100 100 0 0 1 100 200 A 100 100 0 0 1 0 100 A 100 100 0 0 1 100 0 A 100 100 0 0 1 200 100 Z" stroke-linecap="round" />
</g>
</g>
</g>
		<g transform="matrix(1.1017527443474824 0 0 -1.1017527443474824 -30.626480532930202 -58.948121306195134)"  >
<linearGradient id="SVGID_611921" gradientUnits="userSpaceOnUse" gradientTransform="matrix(186.79947 0 0 -186.79947 608.7121 344.09482)"  x1="0" y1="0" x2="1" y2="0">
<stop offset="0%" style="stop-color:rgb(46,49,145);stop-opacity: 1"/>
<stop offset="100%" style="stop-color:rgb(157,0,93);stop-opacity: 1"/>
</linearGradient>
<path style="stroke: none; stroke-width: 1; stroke-dasharray: none; stroke-linecap: butt; stroke-dashoffset: 0; stroke-linejoin: miter; stroke-miterlimit: 4; fill: url(#SVGID_611921); fill-rule: nonzero; opacity: 1;"  paint-order="stroke"  transform=" translate(-702.112, -344.09460140427325)" d="m 663.225 410.362 c -0.637 -0.03 -1.276 -0.055 -1.913 -0.074 v 0 c -4.468 -0.128 -8.948 0.015 -13.422 0.015 v 0 c -5.054 0 -10.113 -0.117 -15.162 0.033 v 0 c -4.965 0.148 -9.388 -1.38 -13.526 -3.892 v 0 c -0.578 -0.351 -1.141 -0.719 -1.696 -1.093 v 0 c -3.255 -2.192 -6.138 -4.779 -8.794 -7.601 v 0 c 6.409 -48.546 31.828 -91.092 68.539 -119.921 v 0 c 2.928 -0.002 5.854 -0.003 8.782 -0.005 v 0 h 0.001 c 0.567 -0.001 1.133 0 1.699 -0.001 v 0 h -0.018 c 12.786 -0.01 25.573 -0.016 38.359 -0.011 v 0 c 38.723 30.399 64.888 76.06 69.438 127.927 v 0 c -1.322 0.868 -2.681 1.638 -4.086 2.284 v 0 c -0.367 0.168 -0.738 0.328 -1.113 0.479 v 0 c -0.032 0.013 -0.065 0.027 -0.097 0.04 v 0 c -0.374 0.15 -0.751 0.292 -1.132 0.424 v 0 c -2.639 0.92 -5.442 1.415 -8.464 1.369 v 0 c -5.878 -0.09 -11.756 -0.078 -17.635 -0.066 v 0 c -4.633 0.009 -9.267 0.017 -13.901 -0.023 v 0 c -1.662 -0.014 -3.561 -0.247 -4.931 -1.073 v 0 c -0.628 -0.38 -1.248 -0.774 -1.863 -1.174 v 0 c -2.829 -1.841 -5.543 -3.874 -8.308 -5.821 v 0 c -2.672 -1.882 -5.239 -3.893 -8.79 -3.878 v 0 c -3.075 0.013 -6.149 0.018 -9.224 0.021 v 0 c -9.217 0.01 -18.435 -0.005 -27.653 0.08 v 0 c -1.641 0.016 -3.505 0.446 -4.869 1.311 v 0 c -3.38 2.14 -6.545 4.621 -9.765 7.009 v 0 c -2.932 2.173 -6 3.658 -9.753 3.658 v 0 c -0.231 0 -0.466 -0.005 -0.703 -0.017" stroke-linecap="round" />
</g>
		<g transform="matrix(1.1017527443474824 0 0 -1.1017527443474824 -57.29716009172171 -124.48632245764091)"  >
<linearGradient id="SVGID_611922" gradientUnits="userSpaceOnUse" gradientTransform="matrix(3.630362 0 0 -3.630362 676.08911 403.57959)"  x1="0" y1="0" x2="1" y2="0">
<stop offset="0%" style="stop-color:rgb(46,49,145);stop-opacity: 1"/>
<stop offset="100%" style="stop-color:rgb(157,0,93);stop-opacity: 1"/>
</linearGradient>
<path style="stroke: none; stroke-width: 1; stroke-dasharray: none; stroke-linecap: butt; stroke-dashoffset: 0; stroke-linejoin: miter; stroke-miterlimit: 4; fill: url(#SVGID_611922); fill-rule: nonzero; opacity: 1;"  paint-order="stroke"  transform=" translate(-677.9045000000001, -403.58)" d="m 679.72 402.241 c -1.222 0.875 -2.427 1.775 -3.631 2.678 v 0 c 1.204 -0.903 2.409 -1.803 3.631 -2.678" stroke-linecap="round" />
</g>
		<g transform="matrix(1.1017527443474824 0 0 -1.1017527443474824 29.807411876390177 -131.86365883379173)"  >
<linearGradient id="SVGID_611923" gradientUnits="userSpaceOnUse" gradientTransform="matrix(0.0064712 0 0 -0.0064712 756.96149 410.27628)"  x1="0" y1="0" x2="1" y2="0">
<stop offset="0%" style="stop-color:rgb(46,49,145);stop-opacity: 1"/>
<stop offset="100%" style="stop-color:rgb(157,0,93);stop-opacity: 1"/>
</linearGradient>
<path style="stroke: none; stroke-width: 1; stroke-dasharray: none; stroke-linecap: butt; stroke-dashoffset: 0; stroke-linejoin: miter; stroke-miterlimit: 4; fill: url(#SVGID_611923); fill-rule: nonzero; opacity: 1;"  paint-order="stroke"  transform=" translate(-756.9645, -410.276)" d="m 756.962 410.276 h 0.005 z" stroke-linecap="round" />
</g>
		<g transform="matrix(1.1017527443474824 0 0 -1.1017527443474824 -51.96026979810267 -120.82795247003514)"  >
<linearGradient id="SVGID_611924" gradientUnits="userSpaceOnUse" gradientTransform="matrix(3.6043477 0 0 -3.6043477 680.94666 400.25906)"  x1="0" y1="0" x2="1" y2="0">
<stop offset="0%" style="stop-color:rgb(46,49,145);stop-opacity: 1"/>
<stop offset="100%" style="stop-color:rgb(157,0,93);stop-opacity: 1"/>
</linearGradient>
<path style="stroke: none; stroke-width: 1; stroke-dasharray: none; stroke-linecap: butt; stroke-dashoffset: 0; stroke-linejoin: miter; stroke-miterlimit: 4; fill: url(#SVGID_611924); fill-rule: nonzero; opacity: 1;"  paint-order="stroke"  transform=" translate(-682.7485, -400.2595)" d="m 683.446 399.712 c 0.34 -0.216 0.712 -0.405 1.105 -0.567 v 0 c -0.393 0.162 -0.765 0.351 -1.105 0.567 v 0 c -0.846 0.535 -1.677 1.091 -2.5 1.662 v 0 c 0.823 -0.571 1.654 -1.128 2.5 -1.662" stroke-linecap="round" />
</g>
		<g transform="matrix(1.1017527443474824 0 0 -1.1017527443474824 -21.279761126258336 -118.69495915697848)"  >
<linearGradient id="SVGID_611925" gradientUnits="userSpaceOnUse" gradientTransform="matrix(16.894062 0 0 -16.894062 702.14874 398.32361)"  x1="0" y1="0" x2="1" y2="0">
<stop offset="0%" style="stop-color:rgb(46,49,145);stop-opacity: 1"/>
<stop offset="100%" style="stop-color:rgb(157,0,93);stop-opacity: 1"/>
</linearGradient>
<path style="stroke: none; stroke-width: 1; stroke-dasharray: none; stroke-linecap: butt; stroke-dashoffset: 0; stroke-linejoin: miter; stroke-miterlimit: 4; fill: url(#SVGID_611925); fill-rule: nonzero; opacity: 1;"  paint-order="stroke"  transform=" translate(-710.5954999999999, -398.3235)" d="m 715.968 398.321 c 1.025 -0.001 2.049 -0.004 3.075 -0.007 v 0 c -1.026 0.003 -2.05 0.006 -3.075 0.007 v 0 c -4.607 0.006 -9.213 0.004 -13.82 0.012 v 0 c 4.607 -0.008 9.213 -0.006 13.82 -0.012" stroke-linecap="round" />
</g>
		<g transform="matrix(1.1017527443474824 0 0 -1.1017527443474824 -42.76283788828965 -118.81229582425146)"  >
<linearGradient id="SVGID_611926" gradientUnits="userSpaceOnUse" gradientTransform="matrix(8.2640247 0 0 -8.2640247 686.9646 398.42999)"  x1="0" y1="0" x2="1" y2="0">
<stop offset="0%" style="stop-color:rgb(46,49,145);stop-opacity: 1"/>
<stop offset="100%" style="stop-color:rgb(157,0,93);stop-opacity: 1"/>
</linearGradient>
<path style="stroke: none; stroke-width: 1; stroke-dasharray: none; stroke-linecap: butt; stroke-dashoffset: 0; stroke-linejoin: miter; stroke-miterlimit: 4; fill: url(#SVGID_611926); fill-rule: nonzero; opacity: 1;"  paint-order="stroke"  transform=" translate(-691.0965000000001, -398.43)" d="m 688.315 398.401 c 2.305 -0.021 4.609 -0.036 6.913 -0.047 v 0 c -2.304 0.011 -4.608 0.026 -6.913 0.047 v 0 c -0.438 0.005 -0.893 0.041 -1.35 0.105 v 0 c 0.457 -0.064 0.912 -0.1 1.35 -0.105" stroke-linecap="round" />
</g>
		<g transform="matrix(1.1017527443474824 0 0 -1.1017527443474824 13.82153043228027 -129.45026944729858)"  >
<linearGradient id="SVGID_611927" gradientUnits="userSpaceOnUse" gradientTransform="matrix(2.0194132 0 0 -2.0194132 741.44513 408.08493)"  x1="0" y1="0" x2="1" y2="0">
<stop offset="0%" style="stop-color:rgb(46,49,145);stop-opacity: 1"/>
<stop offset="100%" style="stop-color:rgb(157,0,93);stop-opacity: 1"/>
</linearGradient>
<path style="stroke: none; stroke-width: 1; stroke-dasharray: none; stroke-linecap: butt; stroke-dashoffset: 0; stroke-linejoin: miter; stroke-miterlimit: 4; fill: url(#SVGID_611927); fill-rule: nonzero; opacity: 1;"  paint-order="stroke"  transform=" translate(-742.4549999999999, -408.0855)" d="m 742.29 407.999 c -0.284 -0.186 -0.562 -0.379 -0.845 -0.567 v 0 c 0.283 0.188 0.561 0.381 0.845 0.567 v 0 c 0.387 0.252 0.782 0.495 1.175 0.74 v 0 c -0.393 -0.245 -0.788 -0.488 -1.175 -0.74" stroke-linecap="round" />
</g>
		<g transform="matrix(0.7032451042476343 0 0 -0.7032451042476343 183.1867433012684 174.82751698632924)"  >
<linearGradient id="SVGID_611928" gradientUnits="userSpaceOnUse" gradientTransform="matrix(0.9007958 0 0 -0.9007958 793.55139 406.67044)"  x1="0" y1="0" x2="1" y2="0">
<stop offset="0%" style="stop-color:rgb(46,49,145);stop-opacity: 1"/>
<stop offset="100%" style="stop-color:rgb(157,0,93);stop-opacity: 1"/>
</linearGradient>
<path style="stroke: none; stroke-width: 1; stroke-dasharray: none; stroke-linecap: butt; stroke-dashoffset: 0; stroke-linejoin: miter; stroke-miterlimit: 4; fill: url(#SVGID_611928); fill-rule: nonzero; opacity: 1;"  paint-order="stroke"  transform=" translate(-794.0025, -406.67049999999995)" d="m 794.453 406.407 c -0.298 0.181 -0.6 0.357 -0.901 0.527 v 0 c 0.301 -0.17 0.602 -0.347 0.901 -0.527" stroke-linecap="round" />
</g>
		<g transform="matrix(0.7032451042476343 0 0 -0.7032451042476343 183.90545979780927 175.26599030882764)"  >
<linearGradient id="SVGID_611929" gradientUnits="userSpaceOnUse" gradientTransform="matrix(0.9711381 0 0 -0.9711381 794.53882 406.04739)"  x1="0" y1="0" x2="1" y2="0">
<stop offset="0%" style="stop-color:rgb(46,49,145);stop-opacity: 1"/>
<stop offset="100%" style="stop-color:rgb(157,0,93);stop-opacity: 1"/>
</linearGradient>
<path style="stroke: none; stroke-width: 1; stroke-dasharray: none; stroke-linecap: butt; stroke-dashoffset: 0; stroke-linejoin: miter; stroke-miterlimit: 4; fill: url(#SVGID_611929); fill-rule: nonzero; opacity: 1;"  paint-order="stroke"  transform=" translate(-795.0245, -406.047)" d="m 795.51 405.74 c -0.321 0.211 -0.644 0.416 -0.971 0.614 v 0 c 0.325 -0.198 0.65 -0.403 0.971 -0.614" stroke-linecap="round" />
</g>
		<g transform="matrix(1.1017527443474824 0 0 -1.1017527443474824 58.34280795498961 -131.82895362234478)"  >
<linearGradient id="SVGID_611930" gradientUnits="userSpaceOnUse" gradientTransform="matrix(2.130589 0 0 -2.130589 781.7995 410.24457)"  x1="0" y1="0" x2="1" y2="0">
<stop offset="0%" style="stop-color:rgb(46,49,145);stop-opacity: 1"/>
<stop offset="100%" style="stop-color:rgb(157,0,93);stop-opacity: 1"/>
</linearGradient>
<path style="stroke: none; stroke-width: 1; stroke-dasharray: none; stroke-linecap: butt; stroke-dashoffset: 0; stroke-linejoin: miter; stroke-miterlimit: 4; fill: url(#SVGID_611930); fill-rule: nonzero; opacity: 1;"  paint-order="stroke"  transform=" translate(-782.8644999999999, -410.2445)" d="m 783.93 410.165 c -0.698 0.083 -1.409 0.137 -2.131 0.159 v 0 c 0.722 -0.022 1.433 -0.076 2.131 -0.159" stroke-linecap="round" />
</g>
		<g transform="matrix(0.7032451042476343 0 0 -0.7032451042476343 180.7855128928146 173.62320974530505)"  >
<linearGradient id="SVGID_611931" gradientUnits="userSpaceOnUse" gradientTransform="matrix(0.6719729 0 0 -0.6719729 790.25159 408.38306)"  x1="0" y1="0" x2="1" y2="0">
<stop offset="0%" style="stop-color:rgb(46,49,145);stop-opacity: 1"/>
<stop offset="100%" style="stop-color:rgb(157,0,93);stop-opacity: 1"/>
</linearGradient>
<path style="stroke: none; stroke-width: 1; stroke-dasharray: none; stroke-linecap: butt; stroke-dashoffset: 0; stroke-linejoin: miter; stroke-miterlimit: 4; fill: url(#SVGID_611931); fill-rule: nonzero; opacity: 1;"  paint-order="stroke"  transform=" translate(-790.588, -408.38300000000004)" d="m 790.313 408.502 c 0.206 -0.083 0.408 -0.175 0.611 -0.263 v 0 c -0.203 0.088 -0.405 0.18 -0.611 0.263 v 0 l -0.061 0.025 z" stroke-linecap="round" />
</g>
		<g transform="matrix(0.7032451042476343 0 0 -0.7032451042476343 182.38785686284302 174.38236283534044)"  >
<linearGradient id="SVGID_611932" gradientUnits="userSpaceOnUse" gradientTransform="matrix(0.6939751 0 0 -0.6939751 792.52002 407.30353)"  x1="0" y1="0" x2="1" y2="0">
<stop offset="0%" style="stop-color:rgb(46,49,145);stop-opacity: 1"/>
<stop offset="100%" style="stop-color:rgb(157,0,93);stop-opacity: 1"/>
</linearGradient>
<path style="stroke: none; stroke-width: 1; stroke-dasharray: none; stroke-linecap: butt; stroke-dashoffset: 0; stroke-linejoin: miter; stroke-miterlimit: 4; fill: url(#SVGID_611932); fill-rule: nonzero; opacity: 1;"  paint-order="stroke"  transform=" translate(-792.8665000000001, -407.3035)" d="m 792.868 407.306 c -0.116 0.062 -0.232 0.124 -0.349 0.183 v 0 c 0.117 -0.059 0.233 -0.121 0.349 -0.183 m 0.346 -0.188 c -0.115 0.063 -0.23 0.126 -0.346 0.188 v 0 c 0.116 -0.063 0.231 -0.126 0.346 -0.188" stroke-linecap="round" />
</g>
		<g transform="matrix(1.1017527443474824 0 0 -1.1017527443474824 47.18315440749427 -131.8620062046752)"  >
<linearGradient id="SVGID_611933" gradientUnits="userSpaceOnUse" gradientTransform="matrix(7.8833866 0 0 -7.8833866 768.79413 410.27487)"  x1="0" y1="0" x2="1" y2="0">
<stop offset="0%" style="stop-color:rgb(46,49,145);stop-opacity: 1"/>
<stop offset="100%" style="stop-color:rgb(157,0,93);stop-opacity: 1"/>
</linearGradient>
<path style="stroke: none; stroke-width: 1; stroke-dasharray: none; stroke-linecap: butt; stroke-dashoffset: 0; stroke-linejoin: miter; stroke-miterlimit: 4; fill: url(#SVGID_611933); fill-rule: nonzero; opacity: 1;"  paint-order="stroke"  transform=" translate(-772.7355, -410.2745)" d="m 772.819 410.267 c 1.286 0.004 2.573 0.011 3.858 0.021 v 0 c -1.286 -0.01 -2.571 -0.017 -3.858 -0.021 m -3.472 -0.006 c 1.158 0 2.315 0.002 3.472 0.006 v 0 c -1.157 -0.004 -2.314 -0.006 -3.472 -0.006 m -0.077 0 c -0.159 0 -0.318 0 -0.476 0 v 0 c 0.158 0 0.317 0 0.476 0 m 0 0 c 0.026 0 0.052 0 0.077 0 v 0 c -0.025 0 -0.051 0 -0.077 0" stroke-linecap="round" />
</g>
		<g transform="matrix(1.1017527443474824 0 0 -1.1017527443474824 -130.695377043779 -120.90232078027864)"  >
<linearGradient id="SVGID_611934" gradientUnits="userSpaceOnUse" gradientTransform="matrix(0.9046138 0 0 -0.9046138 610.8327 400.32703)"  x1="0" y1="0" x2="1" y2="0">
<stop offset="0%" style="stop-color:rgb(46,49,145);stop-opacity: 1"/>
<stop offset="100%" style="stop-color:rgb(157,0,93);stop-opacity: 1"/>
</linearGradient>
<path style="stroke: none; stroke-width: 1; stroke-dasharray: none; stroke-linecap: butt; stroke-dashoffset: 0; stroke-linejoin: miter; stroke-miterlimit: 4; fill: url(#SVGID_611934); fill-rule: nonzero; opacity: 1;"  paint-order="stroke"  transform=" translate(-611.285, -400.327)" d="m 611.289 400.336 c 0.149 0.14 0.298 0.28 0.448 0.419 v 0 c -0.15 -0.139 -0.299 -0.279 -0.448 -0.419 m -0.456 -0.437 c 0.151 0.146 0.304 0.292 0.456 0.437 v 0 c -0.153 -0.145 -0.305 -0.291 -0.456 -0.437" stroke-linecap="round" />
</g>
		<g transform="matrix(1.1017527443474824 0 0 -1.1017527443474824 -128.44284355796054 -122.92734232438931)"  >
<linearGradient id="SVGID_611935" gradientUnits="userSpaceOnUse" gradientTransform="matrix(0.6139907 0 0 -0.6139907 613.02277 402.16458)"  x1="0" y1="0" x2="1" y2="0">
<stop offset="0%" style="stop-color:rgb(46,49,145);stop-opacity: 1"/>
<stop offset="100%" style="stop-color:rgb(157,0,93);stop-opacity: 1"/>
</linearGradient>
<path style="stroke: none; stroke-width: 1; stroke-dasharray: none; stroke-linecap: butt; stroke-dashoffset: 0; stroke-linejoin: miter; stroke-miterlimit: 4; fill: url(#SVGID_611935); fill-rule: nonzero; opacity: 1;"  paint-order="stroke"  transform=" translate(-613.3295, -402.16499999999996)" d="m 613.022 401.905 c 0.204 0.174 0.409 0.347 0.615 0.52 v 0 c -0.206 -0.173 -0.411 -0.346 -0.615 -0.52" stroke-linecap="round" />
</g>
		<g transform="matrix(1.1017527443474824 0 0 -1.1017527443474824 -126.15229960246211 -124.77553255303218)"  >
<linearGradient id="SVGID_611936" gradientUnits="userSpaceOnUse" gradientTransform="matrix(0.3279621 0 0 -0.3279621 615.24432 403.84253)"  x1="0" y1="0" x2="1" y2="0">
<stop offset="0%" style="stop-color:rgb(46,49,145);stop-opacity: 1"/>
<stop offset="100%" style="stop-color:rgb(157,0,93);stop-opacity: 1"/>
</linearGradient>
<path style="stroke: none; stroke-width: 1; stroke-dasharray: none; stroke-linecap: butt; stroke-dashoffset: 0; stroke-linejoin: miter; stroke-miterlimit: 4; fill: url(#SVGID_611936); fill-rule: nonzero; opacity: 1;"  paint-order="stroke"  transform=" translate(-615.4085, -403.84250000000003)" d="m 615.245 403.72 c 0.107 0.082 0.218 0.163 0.327 0.245 v 0 c -0.109 -0.082 -0.22 -0.162 -0.327 -0.245" stroke-linecap="round" />
</g>
		<g transform="matrix(1.1017527443474824 0 0 -1.1017527443474824 -50.550577161710066 14.064593907776583)"  >
<linearGradient id="SVGID_611937" gradientUnits="userSpaceOnUse" gradientTransform="matrix(4.012424 0 0 -4.012424 682.02167 277.82495)"  x1="0" y1="0" x2="1" y2="0">
<stop offset="0%" style="stop-color:rgb(46,49,145);stop-opacity: 1"/>
<stop offset="100%" style="stop-color:rgb(157,0,93);stop-opacity: 1"/>
</linearGradient>
<path style="stroke: none; stroke-width: 1; stroke-dasharray: none; stroke-linecap: butt; stroke-dashoffset: 0; stroke-linejoin: miter; stroke-miterlimit: 4; fill: url(#SVGID_611937); fill-rule: nonzero; opacity: 1;"  paint-order="stroke"  transform=" translate(-684.028, -277.82500000000005)" d="m 686.033 277.824 h 0.001 h -0.001 c -1.336 0.001 -2.674 0.002 -4.011 0.002 v 0 c 1.337 0 2.675 -0.001 4.011 -0.002" stroke-linecap="round" />
</g>
		<g transform="matrix(1.1017527443474824 0 0 -1.1017527443474824 -121.03239349301214 -23.853400311338135)"  >
<linearGradient id="SVGID_611938" gradientUnits="userSpaceOnUse" gradientTransform="matrix(114.39079 0 0 -114.39079 562.85974 312.24115)"  x1="0" y1="0" x2="1" y2="0">
<stop offset="0%" style="stop-color:rgb(46,49,145);stop-opacity: 1"/>
<stop offset="100%" style="stop-color:rgb(157,0,93);stop-opacity: 1"/>
</linearGradient>
<path style="stroke: none; stroke-width: 1; stroke-dasharray: none; stroke-linecap: butt; stroke-dashoffset: 0; stroke-linejoin: miter; stroke-miterlimit: 4; fill: url(#SVGID_611938); fill-rule: nonzero; opacity: 1;"  paint-order="stroke"  transform=" translate(-620.055555462959, -312.2410651413415)" d="m 610.369 399.443 c 0.038 0.037 0.076 0.075 0.114 0.112 v 0 c -0.038 -0.037 -0.076 -0.075 -0.114 -0.112 m -0.074 -0.072 c 0.025 0.024 0.049 0.048 0.074 0.072 v 0 c -0.025 -0.024 -0.049 -0.048 -0.074 -0.072 m -0.055 -0.055 c 0.019 0.018 0.037 0.036 0.055 0.055 v 0 c -0.018 -0.018 -0.036 -0.037 -0.055 -0.055 m -0.045 -0.045 c 0.015 0.015 0.03 0.03 0.045 0.045 v 0 c -0.015 -0.015 -0.03 -0.03 -0.045 -0.045 m -1.483 -1.521 c 0 0 0 0 0 0 v 0 c 0.487 0.515 0.981 1.022 1.483 1.521 v 0 c -0.502 -0.498 -0.997 -1.005 -1.483 -1.521 m -6.014 -7.181 c -5.967 -7.888 -10.908 -16.399 -15.283 -25.267 v 0 c -6.336 -12.839 -11.557 -26.124 -15.389 -39.89 v 0 c -2.61 -9.373 -4.7 -18.919 -6.493 -28.487 v 0 c -2.491 -13.3 -3.632 -26.716 -1.699 -40.25 v 0 c 0.983 -6.879 2.653 -13.493 6.221 -19.522 v 0 c 5.276 -8.918 15.237 -13.563 25.336 -11.888 v 0 c 6.228 1.032 11.552 3.98 16.508 7.695 v 0 c 9.831 7.365 17.45 16.842 24.999 26.373 v 0 c 4.482 5.659 8.918 11.355 13.333 17.063 v 0 c 0.859 1.11 1.846 1.491 3.24 1.469 v 0 c 3.491 -0.054 6.984 -0.046 10.477 -0.037 v 0 c 1.446 0.004 2.893 0.007 4.341 0.007 v 0 c 2.988 0 5.975 -0.004 8.962 -0.006 v 0 c -36.711 28.829 -62.13 71.375 -68.539 119.921 v 0 c -2.134 -2.262 -4.12 -4.677 -6.014 -7.181" stroke-linecap="round" />
</g>
		<g transform="matrix(1.1017527443474824 0 0 -1.1017527443474824 -69.94748510231983 -129.46679573846376)"  >
<linearGradient id="SVGID_611939" gradientUnits="userSpaceOnUse" gradientTransform="matrix(16.926483 0 0 -16.926483 657.95911 408.10052)"  x1="0" y1="0" x2="1" y2="0">
<stop offset="0%" style="stop-color:rgb(46,49,145);stop-opacity: 1"/>
<stop offset="100%" style="stop-color:rgb(157,0,93);stop-opacity: 1"/>
</linearGradient>
<path style="stroke: none; stroke-width: 1; stroke-dasharray: none; stroke-linecap: butt; stroke-dashoffset: 0; stroke-linejoin: miter; stroke-miterlimit: 4; fill: url(#SVGID_611939); fill-rule: nonzero; opacity: 1;"  paint-order="stroke"  transform=" translate(-666.4224999999999, -408.1005)" d="m 663.928 410.379 c 0.015 0 0.03 0 0.044 0 v 0 c -0.014 0 -0.029 0 -0.044 0 v 0 c 0 0 0 0 0 0 m -0.005 0 c 0.002 0 0.004 0 0.005 0 v 0 c 0 0 0 0 0 0 v 0 c -0.001 0 -0.003 0 -0.005 0 m -0.543 -0.01 c 0.183 0.007 0.364 0.01 0.543 0.01 v 0 c -0.179 0 -0.36 -0.003 -0.543 -0.01 m 9.68 -3.2 c -2.735 1.919 -5.618 3.2 -9.088 3.21 v 0 c 3.469 -0.01 6.353 -1.291 9.088 -3.21 m -9.835 3.193 c -0.637 -0.03 -1.276 -0.055 -1.913 -0.074 v 0 c -1.118 -0.031 -2.235 -0.046 -3.353 -0.052 v 0 c 1.118 0.006 2.235 0.021 3.353 0.052 v 0 c 0.637 0.019 1.276 0.044 1.913 0.074 v 0 c 0.052 0.003 0.104 0.005 0.155 0.007 v 0 c -0.051 -0.002 -0.103 -0.004 -0.155 -0.007 m 10.235 -3.479 c -0.133 0.097 -0.267 0.192 -0.4 0.286 v 0 c 0.133 -0.094 0.267 -0.189 0.4 -0.286 m 0.221 -0.162 c -0.074 0.054 -0.147 0.108 -0.221 0.162 v 0 c 0.074 -0.054 0.147 -0.108 0.221 -0.162 m 0 0 c 0.402 -0.299 0.803 -0.6 1.205 -0.899 v 0 c -0.402 0.299 -0.803 0.6 -1.205 0.899 v 0 c 0 0 0 0 0 0" stroke-linecap="round" />
</g>
		<g transform="matrix(1.1017527443474824 0 0 -1.1017527443474824 -108.81677104652692 -130.62033086179562)"  >
<linearGradient id="SVGID_611940" gradientUnits="userSpaceOnUse" gradientTransform="matrix(18.328541 0 0 -18.328541 621.97894 409.14755)"  x1="0" y1="0" x2="1" y2="0">
<stop offset="0%" style="stop-color:rgb(46,49,145);stop-opacity: 1"/>
<stop offset="100%" style="stop-color:rgb(157,0,93);stop-opacity: 1"/>
</linearGradient>
<path style="stroke: none; stroke-width: 1; stroke-dasharray: none; stroke-linecap: butt; stroke-dashoffset: 0; stroke-linejoin: miter; stroke-miterlimit: 4; fill: url(#SVGID_611940); fill-rule: nonzero; opacity: 1;"  paint-order="stroke"  transform=" translate(-631.1429999999998, -409.1475)" d="m 632.066 410.346 c 0.001 0 0.003 0 0.005 0 v 0 c -0.002 0 -0.004 0 -0.005 0 v 0 c 0 0 0 0 0 0 m -0.113 0 c 0.038 0 0.075 0 0.113 0 v 0 c 0 0 0 0 0 0 v 0 c -0.038 0 -0.075 0 -0.113 0 m 0.656 -0.007 c -0.181 0.005 -0.359 0.007 -0.538 0.007 v 0 c 0.178 0 0.358 -0.002 0.538 -0.007 m -9.964 -2.081 c 2.914 1.302 5.99 2.071 9.308 2.088 v 0 c -3.318 -0.017 -6.393 -0.786 -9.308 -2.088 m 10.083 2.078 c 0.069 -0.002 0.138 -0.004 0.207 -0.006 v 0 c -0.069 0.002 -0.138 0.004 -0.207 0.006 v 0 c -0.04 0.001 -0.08 0.002 -0.119 0.003 v 0 c 0.039 -0.001 0.079 -0.002 0.119 -0.003 m 5.867 -0.077 c -1.887 0.001 -3.774 0.018 -5.66 0.071 v 0 c 1.886 -0.053 3.772 -0.07 5.66 -0.071 m 0.062 0 c 0.55 0 1.1 0.002 1.651 0.004 v 0 c -0.551 -0.002 -1.101 -0.004 -1.651 -0.004 m -0.001 0 c -0.02 0 -0.041 0 -0.061 0 v 0 c 0.02 0 0.041 0 0.061 0 m 0 0 c 0 0 0 0 0.001 0 v 0 c -0.001 0 -0.001 0 -0.001 0 m -16.018 -2.004 c 0.002 0.001 0.005 0.002 0.007 0.003 v 0 c -0.002 -0.001 -0.005 -0.002 -0.007 -0.003 m -0.096 -0.044 c 0.032 0.015 0.064 0.029 0.096 0.044 v 0 c -0.032 -0.015 -0.064 -0.029 -0.096 -0.044 m -0.099 -0.044 c 0.033 0.015 0.066 0.029 0.099 0.044 v 0 c -0.033 -0.015 -0.066 -0.029 -0.099 -0.044 m -0.112 -0.052 c 0.037 0.017 0.075 0.035 0.112 0.052 v 0 c -0.037 -0.017 -0.075 -0.035 -0.112 -0.052 m -0.353 -0.166 c 0.118 0.056 0.235 0.112 0.353 0.166 v 0 c -0.118 -0.054 -0.235 -0.11 -0.353 -0.166" stroke-linecap="round" />
</g>
		<g transform="matrix(1.1017527443474824 0 0 -1.1017527443474824 -123.81382940258447 -125.95881500046144)"  >
<linearGradient id="SVGID_611941" gradientUnits="userSpaceOnUse" gradientTransform="matrix(0.0556526 0 0 -0.0556526 617.50385 404.91647)"  x1="0" y1="0" x2="1" y2="0">
<stop offset="0%" style="stop-color:rgb(46,49,145);stop-opacity: 1"/>
<stop offset="100%" style="stop-color:rgb(157,0,93);stop-opacity: 1"/>
</linearGradient>
<path style="stroke: none; stroke-width: 1; stroke-dasharray: none; stroke-linecap: butt; stroke-dashoffset: 0; stroke-linejoin: miter; stroke-miterlimit: 4; fill: url(#SVGID_611941); fill-rule: nonzero; opacity: 1;"  paint-order="stroke"  transform=" translate(-617.5310000000001, -404.91650000000004)" d="m 617.503 405.35 c 0 0 0.002 0.001 0.003 0.001 v 0 c -0.001 0 -0.003 -0.001 -0.003 -0.001 m 0.003 0.001 c 0 0 0 0 0 0 m 0.006 -0.102 c -0.002 0.033 -0.004 0.068 -0.006 0.102 v 0 c 0.002 -0.034 0.004 -0.069 0.006 -0.102 m 0.022 -0.359 c -0.007 0.118 -0.014 0.237 -0.022 0.359 v 0 c 0.008 -0.122 0.015 -0.242 0.022 -0.359 m 0.005 -0.078 c 0 -0.008 0.001 -0.017 0.001 -0.025 v 0 c -0.002 0.034 -0.004 0.069 -0.006 0.103 v 0 c 0.002 -0.026 0.003 -0.052 0.005 -0.078 m 0.02 -0.33 c -0.003 0.065 -0.007 0.127 -0.011 0.195 v 0 c -0.003 0.036 -0.005 0.073 -0.008 0.11 v 0 c 0.007 -0.103 0.013 -0.205 0.019 -0.305" stroke-linecap="round" />
</g>
		<g transform="matrix(1.1017527443474824 0 0 -1.1017527443474824 -120.84019874559073 -128.29342906573368)"  >
<linearGradient id="SVGID_611942" gradientUnits="userSpaceOnUse" gradientTransform="matrix(1.0752602 0 0 -1.0752602 619.69263 407.03589)"  x1="0" y1="0" x2="1" y2="0">
<stop offset="0%" style="stop-color:rgb(46,49,145);stop-opacity: 1"/>
<stop offset="100%" style="stop-color:rgb(157,0,93);stop-opacity: 1"/>
</linearGradient>
<path style="stroke: none; stroke-width: 1; stroke-dasharray: none; stroke-linecap: butt; stroke-dashoffset: 0; stroke-linejoin: miter; stroke-miterlimit: 4; fill: url(#SVGID_611942); fill-rule: nonzero; opacity: 1;"  paint-order="stroke"  transform=" translate(-620.23, -407.0355)" d="m 619.692 406.733 c 0.357 0.208 0.715 0.413 1.076 0.605 v 0 c -0.361 -0.192 -0.719 -0.397 -1.076 -0.605" stroke-linecap="round" />
</g>
		<g transform="matrix(1.1017527443474824 0 0 -1.1017527443474824 -91.06312732411135 -58.94800958375882)"  >
<linearGradient id="SVGID_611943" gradientUnits="userSpaceOnUse" gradientTransform="matrix(67.770554 0 0 -67.770554 613.37177 344.09482)"  x1="0" y1="0" x2="1" y2="0">
<stop offset="0%" style="stop-color:rgb(41,170,225);stop-opacity: 1"/>
<stop offset="100%" style="stop-color:rgb(0,113,187);stop-opacity: 1"/>
</linearGradient>
<path style="stroke: none; stroke-width: 1; stroke-dasharray: none; stroke-linecap: butt; stroke-dashoffset: 0; stroke-linejoin: miter; stroke-miterlimit: 4; fill: url(#SVGID_611943); fill-rule: nonzero; opacity: 1;"  paint-order="stroke"  transform=" translate(-647.257, -344.0945)" d="M 635.962 366.685 V 355.39 h -11.295 c -6.238 0 -11.295 -5.057 -11.295 -11.295 v 0 c 0 -6.239 5.057 -11.295 11.295 -11.295 v 0 h 11.295 v -11.296 c 0 -6.238 5.057 -11.295 11.295 -11.295 v 0 c 6.238 0 11.295 5.057 11.295 11.295 v 0 v 11.296 h 11.295 c 6.237 0 11.295 5.056 11.295 11.295 v 0 c 0 6.238 -5.058 11.295 -11.295 11.295 v 0 h -11.295 v 11.295 c 0 6.238 -5.057 11.295 -11.295 11.295 v 0 c -6.238 0 -11.295 -5.057 -11.295 -11.295" stroke-linecap="round" />
</g>
		<g transform="matrix(1.1017527443474824 0 0 -1.1017527443474824 -31.10959911132636 -68.67813894546364)"  >
<linearGradient id="SVGID_611944" gradientUnits="userSpaceOnUse" gradientTransform="matrix(197.75302 -13.07458 -13.07458 -197.75302 598.69366 359.91815)"  x1="0" y1="0" x2="1" y2="0">
<stop offset="0%" style="stop-color:rgb(41,170,225);stop-opacity: 1"/>
<stop offset="100%" style="stop-color:rgb(0,113,187);stop-opacity: 1"/>
</linearGradient>
<path style="stroke: none; stroke-width: 1; stroke-dasharray: none; stroke-linecap: butt; stroke-dashoffset: 0; stroke-linejoin: miter; stroke-miterlimit: 4; fill: url(#SVGID_611944); fill-rule: nonzero; opacity: 1;"  paint-order="stroke"  transform=" translate(-701.6735000000001, -352.926)" d="m 604.462 417.763 l -2.044 -1.508 l 0.11 -2.538 c 0.206 -4.766 0.599 -9.514 1.165 -14.234 v 0 l 8.999 5.482 c -0.206 2.195 -0.377 4.399 -0.504 6.613 v 0 c 26.234 18.698 57.116 28.564 89.486 28.564 v 0 c 32.369 0 63.25 -9.866 89.484 -28.564 v 0 C 787.699 351.002 754.452 297.322 701.674 267.097 v 0 c -2.204 1.261 -4.37 2.568 -6.506 3.911 v 0 h -16.831 c 6.69 -4.973 13.712 -9.51 21.025 -13.56 v 0 l 2.312 -1.281 l 2.311 1.281 c 27.698 15.339 51.271 37.616 68.171 64.423 v 0 c 17.346 27.514 27.258 59.275 28.663 91.846 v 0 l 0.11 2.538 l -2.045 1.508 c -28.321 20.883 -61.937 31.922 -97.21 31.922 v 0 c -35.274 0 -68.889 -11.039 -97.212 -31.922" stroke-linecap="round" />
</g>
		<g transform="matrix(1.1017527443474824 0 0 -1.1017527443474824 27.191850861309092 -58.92817803436046)"  >
<linearGradient id="SVGID_611945" gradientUnits="userSpaceOnUse" gradientTransform="matrix(-58.094696 8.6205034 8.6205034 58.094696 808.5224 335.47202)"  x1="0" y1="0" x2="1" y2="0">
<stop offset="0%" style="stop-color:rgb(0,0,0);stop-opacity: 1"/>
<stop offset="100%" style="stop-color:rgb(0,0,0);stop-opacity: 1"/>
</linearGradient>
<path style="stroke: none; stroke-width: 1; stroke-dasharray: none; stroke-linecap: butt; stroke-dashoffset: 0; stroke-linejoin: miter; stroke-miterlimit: 4; fill: url(#SVGID_611945); fill-rule: nonzero; opacity: 1;"  paint-order="stroke"  transform=" translate(-754.5905, -344.07649999999995)" d="m 780.62 410.335 c -1.315 -0.02 -2.628 -0.035 -3.943 -0.047 v 0 c 7.618 -78.719 -58.203 -132.29 -58.429 -132.473 v 0 c 42.216 30.663 68.713 77.801 72.685 130.421 v 0 c -0.206 0.089 -0.412 0.181 -0.62 0.266 v 0 c -0.032 0.013 -0.065 0.027 -0.097 0.04 v 0 c -0.374 0.15 -0.751 0.292 -1.132 0.424 v 0 c -2.526 0.881 -5.204 1.372 -8.079 1.372 v 0 c -0.128 0 -0.257 -0.001 -0.385 -0.003" stroke-linecap="round" />
</g>
</g>
</g>
</svg>