<?xml version="1.0" encoding="UTF-8" standalone="no" ?>
<!DOCTYPE svg PUBLIC "-//W3C//DTD SVG 1.1//EN" "http://www.w3.org/Graphics/SVG/1.1/DTD/svg11.dtd">
<svg xmlns="http://www.w3.org/2000/svg" xmlns:xlink="http://www.w3.org/1999/xlink" version="1.1" width="1280" height="1024" viewBox="0 0 1280 1024" xml:space="preserve">
<desc>Created with Fabric.js 3.6.3</desc>
<defs>
</defs>
<g transform="matrix(1.9692780337941633 0 0 1.9692780337941633 640.0153846153846 512.012312418764)" id="background-logo"  >
<rect style="stroke: none; stroke-width: 1; stroke-dasharray: none; stroke-linecap: butt; stroke-dashoffset: 0; stroke-linejoin: miter; stroke-miterlimit: 4; fill: rgb(20,15,51); fill-rule: nonzero; opacity: 1;"  paint-order="stroke"  x="-325" y="-260" rx="0" ry="0" width="650" height="520" />
</g>
<g transform="matrix(1.9692780337941633 0 0 1.9692780337941633 744.1923697094942 469.81758922805307)" id="logo-logo"  >
<g style=""  paint-order="stroke"   >
		<g transform="matrix(0.3833224065240303 0 0 0.3833224065240303 -114.56886488290502 -40.241265746073765)"  >
<g style=""  paint-order="stroke"   >
		<g transform="matrix(1 0 0 1 0 0)"  >
<path style="stroke: none; stroke-width: 1; stroke-dasharray: none; stroke-linecap: butt; stroke-dashoffset: 0; stroke-linejoin: miter; stroke-miterlimit: 4; fill: rgb(84,32,127); fill-rule: nonzero; opacity: 1;"  paint-order="stroke"  transform=" translate(-100, -100)" d="M 200 100 A 100 100 0 0 1 100 200 A 100 100 0 0 1 0 100 A 100 100 0 0 1 100 0 A 100 100 0 0 1 200 100 Z" stroke-linecap="round" />
</g>
</g>
</g>
		<g transform="matrix(0.3994937231227864 0 0 0.39949372312278636 -65.7092062563658 -27.728766633185018)"  >
<g style=""  paint-order="stroke"   >
		<g transform="matrix(1 0 0 1 0 0)"  >
<path style="stroke: none; stroke-width: 1; stroke-dasharray: none; stroke-linecap: butt; stroke-dashoffset: 0; stroke-linejoin: miter; stroke-miterlimit: 4; fill: rgb(86,31,126); fill-rule: nonzero; opacity: 1;"  paint-order="stroke"  transform=" translate(-100, -100)" d="M 200 100 A 100 100 0 0 1 100 200 A 100 100 0 0 1 0 100 A 100 100 0 0 1 100 0 A 100 100 0 0 1 200 100 Z" stroke-linecap="round" />
</g>
</g>
</g>
		<g transform="matrix(0.45414712252766043 0 0 0.45414712252766043 -101.60078274731563 -84.4489465810257)"  >
<g style=""  paint-order="stroke"   >
		<g transform="matrix(1 0 0 1 0 0)"  >
<path style="stroke: none; stroke-width: 1; stroke-dasharray: none; stroke-linecap: butt; stroke-dashoffset: 0; stroke-linejoin: miter; stroke-miterlimit: 4; fill: rgb(55,45,141); fill-rule: nonzero; opacity: 1;"  paint-order="stroke"  transform=" translate(-100, -100)" d="M 200 100 A 100 100 0 0 1 100 200 A 100 100 0 0 1 0 100 A 100 100 0 0 1 100 0 A 100 100 0 0 1 200 100 Z" stroke-linecap="round" />
</g>
</g>
</g>
		<g transform="matrix(1.1017527443474824 0 0 -1.1017527443474824 -30.626480532930202 -58.948121306195134)"  >
<linearGradient id="SVGID_313155" gradientUnits="userSpaceOnUse" gradientTransform="matrix(186.79947 0 0 -186.79947 608.7121 344.09482)"  x1="0" y1="0" x2="1" y2="0">
<stop offset="0%" style="stop-color:rgb(46,49,145);stop-opacity: 1"/>
<stop offset="100%" style="stop-color:rgb(157,0,93);stop-opacity: 1"/>
</linearGradient>
<path style="stroke: none; stroke-width: 1; stroke-dasharray: none; stroke-linecap: butt; stroke-dashoffset: 0; stroke-linejoin: miter; stroke-miterlimit: 4; fill: url(#SVGID_313155); fill-rule: nonzero; opacity: 1;"  paint-order="stroke"  transform=" translate(-702.112, -344.09460140427325)" d="m 663.225 410.362 c -0.637 -0.03 -1.276 -0.055 -1.913 -0.074 v 0 c -4.468 -0.128 -8.948 0.015 -13.422 0.015 v 0 c -5.054 0 -10.113 -0.117 -15.162 0.033 v 0 c -4.965 0.148 -9.388 -1.38 -13.526 -3.892 v 0 c -0.578 -0.351 -1.141 -0.719 -1.696 -1.093 v 0 c -3.255 -2.192 -6.138 -4.779 -8.794 -7.601 v 0 c 6.409 -48.546 31.828 -91.092 68.539 -119.921 v 0 c 2.928 -0.002 5.854 -0.003 8.782 -0.005 v 0 h 0.001 c 0.567 -0.001 1.133 0 1.699 -0.001 v 0 h -0.018 c 12.786 -0.01 25.573 -0.016 38.359 -0.011 v 0 c 38.723 30.399 64.888 76.06 69.438 127.927 v 0 c -1.322 0.868 -2.681 1.638 -4.086 2.284 v 0 c -0.367 0.168 -0.738 0.328 -1.113 0.479 v 0 c -0.032 0.013 -0.065 0.027 -0.097 0.04 v 0 c -0.374 0.15 -0.751 0.292 -1.132 0.424 v 0 c -2.639 0.92 -5.442 1.415 -8.464 1.369 v 0 c -5.878 -0.09 -11.756 -0.078 -17.635 -0.066 v 0 c -4.633 0.009 -9.267 0.017 -13.901 -0.023 v 0 c -1.662 -0.014 -3.561 -0.247 -4.931 -1.073 v 0 c -0.628 -0.38 -1.248 -0.774 -1.863 -1.174 v 0 c -2.829 -1.841 -5.543 -3.874 -8.308 -5.821 v 0 c -2.672 -1.882 -5.239 -3.893 -8.79 -3.878 v 0 c -3.075 0.013 -6.149 0.018 -9.224 0.021 v 0 c -9.217 0.01 -18.435 -0.005 -27.653 0.08 v 0 c -1.641 0.016 -3.505 0.446 -4.869 1.311 v 0 c -3.38 2.14 -6.545 4.621 -9.765 7.009 v 0 c -2.932 2.173 -6 3.658 -9.753 3.658 v 0 c -0.231 0 -0.466 -0.005 -0.703 -0.017" stroke-linecap="round" />
</g>
		<g transform="matrix(1.1017527443474824 0 0 -1.1017527443474824 -57.29716009172171 -124.48632245764091)"  >
<linearGradient id="SVGID_313156" gradientUnits="userSpaceOnUse" gradientTransform="matrix(3.630362 0 0 -3.630362 676.08911 403.57959)"  x1="0" y1="0" x2="1" y2="0">
<stop offset="0%" style="stop-color:rgb(46,49,145);stop-opacity: 1"/>
<stop offset="100%" style="stop-color:rgb(157,0,93);stop-opacity: 1"/>
</linearGradient>
<path style="stroke: none; stroke-width: 1; stroke-dasharray: none; stroke-linecap: butt; stroke-dashoffset: 0; stroke-linejoin: miter; stroke-miterlimit: 4; fill: url(#SVGID_313156); fill-rule: nonzero; opacity: 1;"  paint-order="stroke"  transform=" translate(-677.9045000000001, -403.58)" d="m 679.72 402.241 c -1.222 0.875 -2.427 1.775 -3.631 2.678 v 0 c 1.204 -0.903 2.409 -1.803 3.631 -2.678" stroke-linecap="round" />
</g>
		<g transform="matrix(1.1017527443474824 0 0 -1.1017527443474824 29.807411876390177 -131.86365883379173)"  >
<linearGradient id="SVGID_313157" gradientUnits="userSpaceOnUse" gradientTransform="matrix(0.0064712 0 0 -0.0064712 756.96149 410.27628)"  x1="0" y1="0" x2="1" y2="0">
<stop offset="0%" style="stop-color:rgb(46,49,145);stop-opacity: 1"/>
<stop offset="100%" style="stop-color:rgb(157,0,93);stop-opacity: 1"/>
</linearGradient>
<path style="stroke: none; stroke-width: 1; stroke-dasharray: none; stroke-linecap: butt; stroke-dashoffset: 0; stroke-linejoin: miter; stroke-miterlimit: 4; fill: url(#SVGID_313157); fill-rule: nonzero; opacity: 1;"  paint-order="stroke"  transform=" translate(-756.9645, -410.276)" d="m 756.962 410.276 h 0.005 z" stroke-linecap="round" />
</g>
		<g transform="matrix(1.1017527443474824 0 0 -1.1017527443474824 -51.96026979810267 -120.82795247003514)"  >
<linearGradient id="SVGID_313158" gradientUnits="userSpaceOnUse" gradientTransform="matrix(3.6043477 0 0 -3.6043477 680.94666 400.25906)"  x1="0" y1="0" x2="1" y2="0">
<stop offset="0%" style="stop-color:rgb(46,49,145);stop-opacity: 1"/>
<stop offset="100%" style="stop-color:rgb(157,0,93);stop-opacity: 1"/>
</linearGradient>
<path style="stroke: none; stroke-width: 1; stroke-dasharray: none; stroke-linecap: butt; stroke-dashoffset: 0; stroke-linejoin: miter; stroke-miterlimit: 4; fill: url(#SVGID_313158); fill-rule: nonzero; opacity: 1;"  paint-order="stroke"  transform=" translate(-682.7485, -400.2595)" d="m 683.446 399.712 c 0.34 -0.216 0.712 -0.405 1.105 -0.567 v 0 c -0.393 0.162 -0.765 0.351 -1.105 0.567 v 0 c -0.846 0.535 -1.677 1.091 -2.5 1.662 v 0 c 0.823 -0.571 1.654 -1.128 2.5 -1.662" stroke-linecap="round" />
</g>
		<g transform="matrix(1.1017527443474824 0 0 -1.1017527443474824 -21.279761126258336 -118.69495915697848)"  >
<linearGradient id="SVGID_313159" gradientUnits="userSpaceOnUse" gradientTransform="matrix(16.894062 0 0 -16.894062 702.14874 398.32361)"  x1="0" y1="0" x2="1" y2="0">
<stop offset="0%" style="stop-color:rgb(46,49,145);stop-opacity: 1"/>
<stop offset="100%" style="stop-color:rgb(157,0,93);stop-opacity: 1"/>
</linearGradient>
<path style="stroke: none; stroke-width: 1; stroke-dasharray: none; stroke-linecap: butt; stroke-dashoffset: 0; stroke-linejoin: miter; stroke-miterlimit: 4; fill: url(#SVGID_313159); fill-rule: nonzero; opacity: 1;"  paint-order="stroke"  transform=" translate(-710.5954999999999, -398.3235)" d="m 715.968 398.321 c 1.025 -0.001 2.049 -0.004 3.075 -0.007 v 0 c -1.026 0.003 -2.05 0.006 -3.075 0.007 v 0 c -4.607 0.006 -9.213 0.004 -13.82 0.012 v 0 c 4.607 -0.008 9.213 -0.006 13.82 -0.012" stroke-linecap="round" />
</g>
		<g transform="matrix(1.1017527443474824 0 0 -1.1017527443474824 -42.76283788828965 -118.81229582425146)"  >
<linearGradient id="SVGID_313160" gradientUnits="userSpaceOnUse" gradientTransform="matrix(8.2640247 0 0 -8.2640247 686.9646 398.42999)"  x1="0" y1="0" x2="1" y2="0">
<stop offset="0%" style="stop-color:rgb(46,49,145);stop-opacity: 1"/>
<stop offset="100%" style="stop-color:rgb(157,0,93);stop-opacity: 1"/>
</linearGradient>
<path style="stroke: none; stroke-width: 1; stroke-dasharray: none; stroke-linecap: butt; stroke-dashoffset: 0; stroke-linejoin: miter; stroke-miterlimit: 4; fill: url(#SVGID_313160); fill-rule: nonzero; opacity: 1;"  paint-order="stroke"  transform=" translate(-691.0965000000001, -398.43)" d="m 688.315 398.401 c 2.305 -0.021 4.609 -0.036 6.913 -0.047 v 0 c -2.304 0.011 -4.608 0.026 -6.913 0.047 v 0 c -0.438 0.005 -0.893 0.041 -1.35 0.105 v 0 c 0.457 -0.064 0.912 -0.1 1.35 -0.105" stroke-linecap="round" />
</g>
		<g transform="matrix(1.1017527443474824 0 0 -1.1017527443474824 13.82153043228027 -129.45026944729858)"  >
<linearGradient id="SVGID_313161" gradientUnits="userSpaceOnUse" gradientTransform="matrix(2.0194132 0 0 -2.0194132 741.44513 408.08493)"  x1="0" y1="0" x2="1" y2="0">
<stop offset="0%" style="stop-color:rgb(46,49,145);stop-opacity: 1"/>
<stop offset="100%" style="stop-color:rgb(157,0,93);stop-opacity: 1"/>
</linearGradient>
<path style="stroke: none; stroke-width: 1; stroke-dasharray: none; stroke-linecap: butt; stroke-dashoffset: 0; stroke-linejoin: miter; stroke-miterlimit: 4; fill: url(#SVGID_313161); fill-rule: nonzero; opacity: 1;"  paint-order="stroke"  transform=" translate(-742.4549999999999, -408.0855)" d="m 742.29 407.999 c -0.284 -0.186 -0.562 -0.379 -0.845 -0.567 v 0 c 0.283 0.188 0.561 0.381 0.845 0.567 v 0 c 0.387 0.252 0.782 0.495 1.175 0.74 v 0 c -0.393 -0.245 -0.788 -0.488 -1.175 -0.74" stroke-linecap="round" />
</g>
		<g transform="matrix(0.7032451042476343 0 0 -0.7032451042476343 183.1867433012684 174.82751698632924)"  >
<linearGradient id="SVGID_313162" gradientUnits="userSpaceOnUse" gradientTransform="matrix(0.9007958 0 0 -0.9007958 793.55139 406.67044)"  x1="0" y1="0" x2="1" y2="0">
<stop offset="0%" style="stop-color:rgb(46,49,145);stop-opacity: 1"/>
<stop offset="100%" style="stop-color:rgb(157,0,93);stop-opacity: 1"/>
</linearGradient>
<path style="stroke: none; stroke-width: 1; stroke-dasharray: none; stroke-linecap: butt; stroke-dashoffset: 0; stroke-linejoin: miter; stroke-miterlimit: 4; fill: url(#SVGID_313162); fill-rule: nonzero; opacity: 1;"  paint-order="stroke"  transform=" translate(-794.0025, -406.67049999999995)" d="m 794.453 406.407 c -0.298 0.181 -0.6 0.357 -0.901 0.527 v 0 c 0.301 -0.17 0.602 -0.347 0.901 -0.527" stroke-linecap="round" />
</g>
		<g transform="matrix(0.7032451042476343 0 0 -0.7032451042476343 183.90545979780927 175.26599030882764)"  >
<linearGradient id="SVGID_313163" gradientUnits="userSpaceOnUse" gradientTransform="matrix(0.9711381 0 0 -0.9711381 794.53882 406.04739)"  x1="0" y1="0" x2="1" y2="0">
<stop offset="0%" style="stop-color:rgb(46,49,145);stop-opacity: 1"/>
<stop offset="100%" style="stop-color:rgb(157,0,93);stop-opacity: 1"/>
</linearGradient>
<path style="stroke: none; stroke-width: 1; stroke-dasharray: none; stroke-linecap: butt; stroke-dashoffset: 0; stroke-linejoin: miter; stroke-miterlimit: 4; fill: url(#SVGID_313163); fill-rule: nonzero; opacity: 1;"  paint-order="stroke"  transform=" translate(-795.0245, -406.047)" d="m 795.51 405.74 c -0.321 0.211 -0.644 0.416 -0.971 0.614 v 0 c 0.325 -0.198 0.65 -0.403 0.971 -0.614" stroke-linecap="round" />
</g>
		<g transform="matrix(1.1017527443474824 0 0 -1.1017527443474824 58.34280795498961 -131.82895362234478)"  >
<linearGradient id="SVGID_313164" gradientUnits="userSpaceOnUse" gradientTransform="matrix(2.130589 0 0 -2.130589 781.7995 410.24457)"  x1="0" y1="0" x2="1" y2="0">
<stop offset="0%" style="stop-color:rgb(46,49,145);stop-opacity: 1"/>
<stop offset="100%" style="stop-color:rgb(157,0,93);stop-opacity: 1"/>
</linearGradient>
<path style="stroke: none; stroke-width: 1; stroke-dasharray: none; stroke-linecap: butt; stroke-dashoffset: 0; stroke-linejoin: miter; stroke-miterlimit: 4; fill: url(#SVGID_313164); fill-rule: nonzero; opacity: 1;"  paint-order="stroke"  transform=" translate(-782.8644999999999, -410.2445)" d="m 783.93 410.165 c -0.698 0.083 -1.409 0.137 -2.131 0.159 v 0 c 0.722 -0.022 1.433 -0.076 2.131 -0.159" stroke-linecap="round" />
</g>
		<g transform="matrix(0.7032451042476343 0 0 -0.7032451042476343 180.7855128928146 173.62320974530505)"  >
<linearGradient id="SVGID_313165" gradientUnits="userSpaceOnUse" gradientTransform="matrix(0.6719729 0 0 -0.6719729 790.25159 408.38306)"  x1="0" y1="0" x2="1" y2="0">
<stop offset="0%" style="stop-color:rgb(46,49,145);stop-opacity: 1"/>
<stop offset="100%" style="stop-color:rgb(157,0,93);stop-opacity: 1"/>
</linearGradient>
<path style="stroke: none; stroke-width: 1; stroke-dasharray: none; stroke-linecap: butt; stroke-dashoffset: 0; stroke-linejoin: miter; stroke-miterlimit: 4; fill: url(#SVGID_313165); fill-rule: nonzero; opacity: 1;"  paint-order="stroke"  transform=" translate(-790.588, -408.38300000000004)" d="m 790.313 408.502 c 0.206 -0.083 0.408 -0.175 0.611 -0.263 v 0 c -0.203 0.088 -0.405 0.18 -0.611 0.263 v 0 l -0.061 0.025 z" stroke-linecap="round" />
</g>
		<g transform="matrix(0.7032451042476343 0 0 -0.7032451042476343 182.38785686284302 174.38236283534044)"  >
<linearGradient id="SVGID_313166" gradientUnits="userSpaceOnUse" gradientTransform="matrix(0.6939751 0 0 -0.6939751 792.52002 407.30353)"  x1="0" y1="0" x2="1" y2="0">
<stop offset="0%" style="stop-color:rgb(46,49,145);stop-opacity: 1"/>
<stop offset="100%" style="stop-color:rgb(157,0,93);stop-opacity: 1"/>
</linearGradient>
<path style="stroke: none; stroke-width: 1; stroke-dasharray: none; stroke-linecap: butt; stroke-dashoffset: 0; stroke-linejoin: miter; stroke-miterlimit: 4; fill: url(#SVGID_313166); fill-rule: nonzero; opacity: 1;"  paint-order="stroke"  transform=" translate(-792.8665000000001, -407.3035)" d="m 792.868 407.306 c -0.116 0.062 -0.232 0.124 -0.349 0.183 v 0 c 0.117 -0.059 0.233 -0.121 0.349 -0.183 m 0.346 -0.188 c -0.115 0.063 -0.23 0.126 -0.346 0.188 v 0 c 0.116 -0.063 0.231 -0.126 0.346 -0.188" stroke-linecap="round" />
</g>
		<g transform="matrix(1.1017527443474824 0 0 -1.1017527443474824 47.18315440749427 -131.8620062046752)"  >
<linearGradient id="SVGID_313167" gradientUnits="userSpaceOnUse" gradientTransform="matrix(7.8833866 0 0 -7.8833866 768.79413 410.27487)"  x1="0" y1="0" x2="1" y2="0">
<stop offset="0%" style="stop-color:rgb(46,49,145);stop-opacity: 1"/>
<stop offset="100%" style="stop-color:rgb(157,0,93);stop-opacity: 1"/>
</linearGradient>
<path style="stroke: none; stroke-width: 1; stroke-dasharray: none; stroke-linecap: butt; stroke-dashoffset: 0; stroke-linejoin: miter; stroke-miterlimit: 4; fill: url(#SVGID_313167); fill-rule: nonzero; opacity: 1;"  paint-order="stroke"  transform=" translate(-772.7355, -410.2745)" d="m 772.819 410.267 c 1.286 0.004 2.573 0.011 3.858 0.021 v 0 c -1.286 -0.01 -2.571 -0.017 -3.858 -0.021 m -3.472 -0.006 c 1.158 0 2.315 0.002 3.472 0.006 v 0 c -1.157 -0.004 -2.314 -0.006 -3.472 -0.006 m -0.077 0 c -0.159 0 -0.318 0 -0.476 0 v 0 c 0.158 0 0.317 0 0.476 0 m 0 0 c 0.026 0 0.052 0 0.077 0 v 0 c -0.025 0 -0.051 0 -0.077 0" stroke-linecap="round" />
</g>
		<g transform="matrix(1.1017527443474824 0 0 -1.1017527443474824 -130.695377043779 -120.90232078027864)"  >
<linearGradient id="SVGID_313168" gradientUnits="userSpaceOnUse" gradientTransform="matrix(0.9046138 0 0 -0.9046138 610.8327 400.32703)"  x1="0" y1="0" x2="1" y2="0">
<stop offset="0%" style="stop-color:rgb(46,49,145);stop-opacity: 1"/>
<stop offset="100%" style="stop-color:rgb(157,0,93);stop-opacity: 1"/>
</linearGradient>
<path style="stroke: none; stroke-width: 1; stroke-dasharray: none; stroke-linecap: butt; stroke-dashoffset: 0; stroke-linejoin: miter; stroke-miterlimit: 4; fill: url(#SVGID_313168); fill-rule: nonzero; opacity: 1;"  paint-order="stroke"  transform=" translate(-611.285, -400.327)" d="m 611.289 400.336 c 0.149 0.14 0.298 0.28 0.448 0.419 v 0 c -0.15 -0.139 -0.299 -0.279 -0.448 -0.419 m -0.456 -0.437 c 0.151 0.146 0.304 0.292 0.456 0.437 v 0 c -0.153 -0.145 -0.305 -0.291 -0.456 -0.437" stroke-linecap="round" />
</g>
		<g transform="matrix(1.1017527443474824 0 0 -1.1017527443474824 -128.44284355796054 -122.92734232438931)"  >
<linearGradient id="SVGID_313169" gradientUnits="userSpaceOnUse" gradientTransform="matrix(0.6139907 0 0 -0.6139907 613.02277 402.16458)"  x1="0" y1="0" x2="1" y2="0">
<stop offset="0%" style="stop-color:rgb(46,49,145);stop-opacity: 1"/>
<stop offset="100%" style="stop-color:rgb(157,0,93);stop-opacity: 1"/>
</linearGradient>
<path style="stroke: none; stroke-width: 1; stroke-dasharray: none; stroke-linecap: butt; stroke-dashoffset: 0; stroke-linejoin: miter; stroke-miterlimit: 4; fill: url(#SVGID_313169); fill-rule: nonzero; opacity: 1;"  paint-order="stroke"  transform=" translate(-613.3295, -402.16499999999996)" d="m 613.022 401.905 c 0.204 0.174 0.409 0.347 0.615 0.52 v 0 c -0.206 -0.173 -0.411 -0.346 -0.615 -0.52" stroke-linecap="round" />
</g>
		<g transform="matrix(1.1017527443474824 0 0 -1.1017527443474824 -126.15229960246211 -124.77553255303218)"  >
<linearGradient id="SVGID_313170" gradientUnits="userSpaceOnUse" gradientTransform="matrix(0.3279621 0 0 -0.3279621 615.24432 403.84253)"  x1="0" y1="0" x2="1" y2="0">
<stop offset="0%" style="stop-color:rgb(46,49,145);stop-opacity: 1"/>
<stop offset="100%" style="stop-color:rgb(157,0,93);stop-opacity: 1"/>
</linearGradient>
<path style="stroke: none; stroke-width: 1; stroke-dasharray: none; stroke-linecap: butt; stroke-dashoffset: 0; stroke-linejoin: miter; stroke-miterlimit: 4; fill: url(#SVGID_313170); fill-rule: nonzero; opacity: 1;"  paint-order="stroke"  transform=" translate(-615.4085, -403.84250000000003)" d="m 615.245 403.72 c 0.107 0.082 0.218 0.163 0.327 0.245 v 0 c -0.109 -0.082 -0.22 -0.162 -0.327 -0.245" stroke-linecap="round" />
</g>
		<g transform="matrix(1.1017527443474824 0 0 -1.1017527443474824 -50.550577161710066 14.064593907776583)"  >
<linearGradient id="SVGID_313171" gradientUnits="userSpaceOnUse" gradientTransform="matrix(4.012424 0 0 -4.012424 682.02167 277.82495)"  x1="0" y1="0" x2="1" y2="0">
<stop offset="0%" style="stop-color:rgb(46,49,145);stop-opacity: 1"/>
<stop offset="100%" style="stop-color:rgb(157,0,93);stop-opacity: 1"/>
</linearGradient>
<path style="stroke: none; stroke-width: 1; stroke-dasharray: none; stroke-linecap: butt; stroke-dashoffset: 0; stroke-linejoin: miter; stroke-miterlimit: 4; fill: url(#SVGID_313171); fill-rule: nonzero; opacity: 1;"  paint-order="stroke"  transform=" translate(-684.028, -277.82500000000005)" d="m 686.033 277.824 h 0.001 h -0.001 c -1.336 0.001 -2.674 0.002 -4.011 0.002 v 0 c 1.337 0 2.675 -0.001 4.011 -0.002" stroke-linecap="round" />
</g>
		<g transform="matrix(1.1017527443474824 0 0 -1.1017527443474824 -121.03239349301214 -23.853400311338135)"  >
<linearGradient id="SVGID_313172" gradientUnits="userSpaceOnUse" gradientTransform="matrix(114.39079 0 0 -114.39079 562.85974 312.24115)"  x1="0" y1="0" x2="1" y2="0">
<stop offset="0%" style="stop-color:rgb(46,49,145);stop-opacity: 1"/>
<stop offset="100%" style="stop-color:rgb(157,0,93);stop-opacity: 1"/>
</linearGradient>
<path style="stroke: none; stroke-width: 1; stroke-dasharray: none; stroke-linecap: butt; stroke-dashoffset: 0; stroke-linejoin: miter; stroke-miterlimit: 4; fill: url(#SVGID_313172); fill-rule: nonzero; opacity: 1;"  paint-order="stroke"  transform=" translate(-620.055555462959, -312.2410651413415)" d="m 610.369 399.443 c 0.038 0.037 0.076 0.075 0.114 0.112 v 0 c -0.038 -0.037 -0.076 -0.075 -0.114 -0.112 m -0.074 -0.072 c 0.025 0.024 0.049 0.048 0.074 0.072 v 0 c -0.025 -0.024 -0.049 -0.048 -0.074 -0.072 m -0.055 -0.055 c 0.019 0.018 0.037 0.036 0.055 0.055 v 0 c -0.018 -0.018 -0.036 -0.037 -0.055 -0.055 m -0.045 -0.045 c 0.015 0.015 0.03 0.03 0.045 0.045 v 0 c -0.015 -0.015 -0.03 -0.03 -0.045 -0.045 m -1.483 -1.521 c 0 0 0 0 0 0 v 0 c 0.487 0.515 0.981 1.022 1.483 1.521 v 0 c -0.502 -0.498 -0.997 -1.005 -1.483 -1.521 m -6.014 -7.181 c -5.967 -7.888 -10.908 -16.399 -15.283 -25.267 v 0 c -6.336 -12.839 -11.557 -26.124 -15.389 -39.89 v 0 c -2.61 -9.373 -4.7 -18.919 -6.493 -28.487 v 0 c -2.491 -13.3 -3.632 -26.716 -1.699 -40.25 v 0 c 0.983 -6.879 2.653 -13.493 6.221 -19.522 v 0 c 5.276 -8.918 15.237 -13.563 25.336 -11.888 v 0 c 6.228 1.032 11.552 3.98 16.508 7.695 v 0 c 9.831 7.365 17.45 16.842 24.999 26.373 v 0 c 4.482 5.659 8.918 11.355 13.333 17.063 v 0 c 0.859 1.11 1.846 1.491 3.24 1.469 v 0 c 3.491 -0.054 6.984 -0.046 10.477 -0.037 v 0 c 1.446 0.004 2.893 0.007 4.341 0.007 v 0 c 2.988 0 5.975 -0.004 8.962 -0.006 v 0 c -36.711 28.829 -62.13 71.375 -68.539 119.921 v 0 c -2.134 -2.262 -4.12 -4.677 -6.014 -7.181" stroke-linecap="round" />
</g>
		<g transform="matrix(1.1017527443474824 0 0 -1.1017527443474824 -69.94748510231983 -129.46679573846376)"  >
<linearGradient id="SVGID_313173" gradientUnits="userSpaceOnUse" gradientTransform="matrix(16.926483 0 0 -16.926483 657.95911 408.10052)"  x1="0" y1="0" x2="1" y2="0">
<stop offset="0%" style="stop-color:rgb(46,49,145);stop-opacity: 1"/>
<stop offset="100%" style="stop-color:rgb(157,0,93);stop-opacity: 1"/>
</linearGradient>
<path style="stroke: none; stroke-width: 1; stroke-dasharray: none; stroke-linecap: butt; stroke-dashoffset: 0; stroke-linejoin: miter; stroke-miterlimit: 4; fill: url(#SVGID_313173); fill-rule: nonzero; opacity: 1;"  paint-order="stroke"  transform=" translate(-666.4224999999999, -408.1005)" d="m 663.928 410.379 c 0.015 0 0.03 0 0.044 0 v 0 c -0.014 0 -0.029 0 -0.044 0 v 0 c 0 0 0 0 0 0 m -0.005 0 c 0.002 0 0.004 0 0.005 0 v 0 c 0 0 0 0 0 0 v 0 c -0.001 0 -0.003 0 -0.005 0 m -0.543 -0.01 c 0.183 0.007 0.364 0.01 0.543 0.01 v 0 c -0.179 0 -0.36 -0.003 -0.543 -0.01 m 9.68 -3.2 c -2.735 1.919 -5.618 3.2 -9.088 3.21 v 0 c 3.469 -0.01 6.353 -1.291 9.088 -3.21 m -9.835 3.193 c -0.637 -0.03 -1.276 -0.055 -1.913 -0.074 v 0 c -1.118 -0.031 -2.235 -0.046 -3.353 -0.052 v 0 c 1.118 0.006 2.235 0.021 3.353 0.052 v 0 c 0.637 0.019 1.276 0.044 1.913 0.074 v 0 c 0.052 0.003 0.104 0.005 0.155 0.007 v 0 c -0.051 -0.002 -0.103 -0.004 -0.155 -0.007 m 10.235 -3.479 c -0.133 0.097 -0.267 0.192 -0.4 0.286 v 0 c 0.133 -0.094 0.267 -0.189 0.4 -0.286 m 0.221 -0.162 c -0.074 0.054 -0.147 0.108 -0.221 0.162 v 0 c 0.074 -0.054 0.147 -0.108 0.221 -0.162 m 0 0 c 0.402 -0.299 0.803 -0.6 1.205 -0.899 v 0 c -0.402 0.299 -0.803 0.6 -1.205 0.899 v 0 c 0 0 0 0 0 0" stroke-linecap="round" />
</g>
		<g transform="matrix(1.1017527443474824 0 0 -1.1017527443474824 -108.81677104652692 -130.62033086179562)"  >
<linearGradient id="SVGID_313174" gradientUnits="userSpaceOnUse" gradientTransform="matrix(18.328541 0 0 -18.328541 621.97894 409.14755)"  x1="0" y1="0" x2="1" y2="0">
<stop offset="0%" style="stop-color:rgb(46,49,145);stop-opacity: 1"/>
<stop offset="100%" style="stop-color:rgb(157,0,93);stop-opacity: 1"/>
</linearGradient>
<path style="stroke: none; stroke-width: 1; stroke-dasharray: none; stroke-linecap: butt; stroke-dashoffset: 0; stroke-linejoin: miter; stroke-miterlimit: 4; fill: url(#SVGID_313174); fill-rule: nonzero; opacity: 1;"  paint-order="stroke"  transform=" translate(-631.1429999999998, -409.1475)" d="m 632.066 410.346 c 0.001 0 0.003 0 0.005 0 v 0 c -0.002 0 -0.004 0 -0.005 0 v 0 c 0 0 0 0 0 0 m -0.113 0 c 0.038 0 0.075 0 0.113 0 v 0 c 0 0 0 0 0 0 v 0 c -0.038 0 -0.075 0 -0.113 0 m 0.656 -0.007 c -0.181 0.005 -0.359 0.007 -0.538 0.007 v 0 c 0.178 0 0.358 -0.002 0.538 -0.007 m -9.964 -2.081 c 2.914 1.302 5.99 2.071 9.308 2.088 v 0 c -3.318 -0.017 -6.393 -0.786 -9.308 -2.088 m 10.083 2.078 c 0.069 -0.002 0.138 -0.004 0.207 -0.006 v 0 c -0.069 0.002 -0.138 0.004 -0.207 0.006 v 0 c -0.04 0.001 -0.08 0.002 -0.119 0.003 v 0 c 0.039 -0.001 0.079 -0.002 0.119 -0.003 m 5.867 -0.077 c -1.887 0.001 -3.774 0.018 -5.66 0.071 v 0 c 1.886 -0.053 3.772 -0.07 5.66 -0.071 m 0.062 0 c 0.55 0 1.1 0.002 1.651 0.004 v 0 c -0.551 -0.002 -1.101 -0.004 -1.651 -0.004 m -0.001 0 c -0.02 0 -0.041 0 -0.061 0 v 0 c 0.02 0 0.041 0 0.061 0 m 0 0 c 0 0 0 0 0.001 0 v 0 c -0.001 0 -0.001 0 -0.001 0 m -16.018 -2.004 c 0.002 0.001 0.005 0.002 0.007 0.003 v 0 c -0.002 -0.001 -0.005 -0.002 -0.007 -0.003 m -0.096 -0.044 c 0.032 0.015 0.064 0.029 0.096 0.044 v 0 c -0.032 -0.015 -0.064 -0.029 -0.096 -0.044 m -0.099 -0.044 c 0.033 0.015 0.066 0.029 0.099 0.044 v 0 c -0.033 -0.015 -0.066 -0.029 -0.099 -0.044 m -0.112 -0.052 c 0.037 0.017 0.075 0.035 0.112 0.052 v 0 c -0.037 -0.017 -0.075 -0.035 -0.112 -0.052 m -0.353 -0.166 c 0.118 0.056 0.235 0.112 0.353 0.166 v 0 c -0.118 -0.054 -0.235 -0.11 -0.353 -0.166" stroke-linecap="round" />
</g>
		<g transform="matrix(1.1017527443474824 0 0 -1.1017527443474824 -123.81382940258447 -125.95881500046144)"  >
<linearGradient id="SVGID_313175" gradientUnits="userSpaceOnUse" gradientTransform="matrix(0.0556526 0 0 -0.0556526 617.50385 404.91647)"  x1="0" y1="0" x2="1" y2="0">
<stop offset="0%" style="stop-color:rgb(46,49,145);stop-opacity: 1"/>
<stop offset="100%" style="stop-color:rgb(157,0,93);stop-opacity: 1"/>
</linearGradient>
<path style="stroke: none; stroke-width: 1; stroke-dasharray: none; stroke-linecap: butt; stroke-dashoffset: 0; stroke-linejoin: miter; stroke-miterlimit: 4; fill: url(#SVGID_313175); fill-rule: nonzero; opacity: 1;"  paint-order="stroke"  transform=" translate(-617.5310000000001, -404.91650000000004)" d="m 617.503 405.35 c 0 0 0.002 0.001 0.003 0.001 v 0 c -0.001 0 -0.003 -0.001 -0.003 -0.001 m 0.003 0.001 c 0 0 0 0 0 0 m 0.006 -0.102 c -0.002 0.033 -0.004 0.068 -0.006 0.102 v 0 c 0.002 -0.034 0.004 -0.069 0.006 -0.102 m 0.022 -0.359 c -0.007 0.118 -0.014 0.237 -0.022 0.359 v 0 c 0.008 -0.122 0.015 -0.242 0.022 -0.359 m 0.005 -0.078 c 0 -0.008 0.001 -0.017 0.001 -0.025 v 0 c -0.002 0.034 -0.004 0.069 -0.006 0.103 v 0 c 0.002 -0.026 0.003 -0.052 0.005 -0.078 m 0.02 -0.33 c -0.003 0.065 -0.007 0.127 -0.011 0.195 v 0 c -0.003 0.036 -0.005 0.073 -0.008 0.11 v 0 c 0.007 -0.103 0.013 -0.205 0.019 -0.305" stroke-linecap="round" />
</g>
		<g transform="matrix(1.1017527443474824 0 0 -1.1017527443474824 -120.84019874559073 -128.29342906573368)"  >
<linearGradient id="SVGID_313176" gradientUnits="userSpaceOnUse" gradientTransform="matrix(1.0752602 0 0 -1.0752602 619.69263 407.03589)"  x1="0" y1="0" x2="1" y2="0">
<stop offset="0%" style="stop-color:rgb(46,49,145);stop-opacity: 1"/>
<stop offset="100%" style="stop-color:rgb(157,0,93);stop-opacity: 1"/>
</linearGradient>
<path style="stroke: none; stroke-width: 1; stroke-dasharray: none; stroke-linecap: butt; stroke-dashoffset: 0; stroke-linejoin: miter; stroke-miterlimit: 4; fill: url(#SVGID_313176); fill-rule: nonzero; opacity: 1;"  paint-order="stroke"  transform=" translate(-620.23, -407.0355)" d="m 619.692 406.733 c 0.357 0.208 0.715 0.413 1.076 0.605 v 0 c -0.361 -0.192 -0.719 -0.397 -1.076 -0.605" stroke-linecap="round" />
</g>
		<g transform="matrix(1.1017527443474824 0 0 -1.1017527443474824 -91.06312732411135 -58.94800958375882)"  >
<linearGradient id="SVGID_313177" gradientUnits="userSpaceOnUse" gradientTransform="matrix(67.770554 0 0 -67.770554 613.37177 344.09482)"  x1="0" y1="0" x2="1" y2="0">
<stop offset="0%" style="stop-color:rgb(41,170,225);stop-opacity: 1"/>
<stop offset="100%" style="stop-color:rgb(0,113,187);stop-opacity: 1"/>
</linearGradient>
<path style="stroke: none; stroke-width: 1; stroke-dasharray: none; stroke-linecap: butt; stroke-dashoffset: 0; stroke-linejoin: miter; stroke-miterlimit: 4; fill: url(#SVGID_313177); fill-rule: nonzero; opacity: 1;"  paint-order="stroke"  transform=" translate(-647.257, -344.0945)" d="M 635.962 366.685 V 355.39 h -11.295 c -6.238 0 -11.295 -5.057 -11.295 -11.295 v 0 c 0 -6.239 5.057 -11.295 11.295 -11.295 v 0 h 11.295 v -11.296 c 0 -6.238 5.057 -11.295 11.295 -11.295 v 0 c 6.238 0 11.295 5.057 11.295 11.295 v 0 v 11.296 h 11.295 c 6.237 0 11.295 5.056 11.295 11.295 v 0 c 0 6.238 -5.058 11.295 -11.295 11.295 v 0 h -11.295 v 11.295 c 0 6.238 -5.057 11.295 -11.295 11.295 v 0 c -6.238 0 -11.295 -5.057 -11.295 -11.295" stroke-linecap="round" />
</g>
		<g transform="matrix(1.1017527443474824 0 0 -1.1017527443474824 -31.10959911132636 -68.67813894546364)"  >
<linearGradient id="SVGID_313178" gradientUnits="userSpaceOnUse" gradientTransform="matrix(197.75302 -13.07458 -13.07458 -197.75302 598.69366 359.91815)"  x1="0" y1="0" x2="1" y2="0">
<stop offset="0%" style="stop-color:rgb(41,170,225);stop-opacity: 1"/>
<stop offset="100%" style="stop-color:rgb(0,113,187);stop-opacity: 1"/>
</linearGradient>
<path style="stroke: none; stroke-width: 1; stroke-dasharray: none; stroke-linecap: butt; stroke-dashoffset: 0; stroke-linejoin: miter; stroke-miterlimit: 4; fill: url(#SVGID_313178); fill-rule: nonzero; opacity: 1;"  paint-order="stroke"  transform=" translate(-701.6735000000001, -352.926)" d="m 604.462 417.763 l -2.044 -1.508 l 0.11 -2.538 c 0.206 -4.766 0.599 -9.514 1.165 -14.234 v 0 l 8.999 5.482 c -0.206 2.195 -0.377 4.399 -0.504 6.613 v 0 c 26.234 18.698 57.116 28.564 89.486 28.564 v 0 c 32.369 0 63.25 -9.866 89.484 -28.564 v 0 C 787.699 351.002 754.452 297.322 701.674 267.097 v 0 c -2.204 1.261 -4.37 2.568 -6.506 3.911 v 0 h -16.831 c 6.69 -4.973 13.712 -9.51 21.025 -13.56 v 0 l 2.312 -1.281 l 2.311 1.281 c 27.698 15.339 51.271 37.616 68.171 64.423 v 0 c 17.346 27.514 27.258 59.275 28.663 91.846 v 0 l 0.11 2.538 l -2.045 1.508 c -28.321 20.883 -61.937 31.922 -97.21 31.922 v 0 c -35.274 0 -68.889 -11.039 -97.212 -31.922" stroke-linecap="round" />
</g>
		<g transform="matrix(1.1017527443474824 0 0 -1.1017527443474824 27.191850861309092 -58.92817803436046)"  >
<linearGradient id="SVGID_313179" gradientUnits="userSpaceOnUse" gradientTransform="matrix(-58.094696 8.6205034 8.6205034 58.094696 808.5224 335.47202)"  x1="0" y1="0" x2="1" y2="0">
<stop offset="0%" style="stop-color:rgb(0,0,0);stop-opacity: 1"/>
<stop offset="100%" style="stop-color:rgb(0,0,0);stop-opacity: 1"/>
</linearGradient>
<path style="stroke: none; stroke-width: 1; stroke-dasharray: none; stroke-linecap: butt; stroke-dashoffset: 0; stroke-linejoin: miter; stroke-miterlimit: 4; fill: url(#SVGID_313179); fill-rule: nonzero; opacity: 1;"  paint-order="stroke"  transform=" translate(-754.5905, -344.07649999999995)" d="m 780.62 410.335 c -1.315 -0.02 -2.628 -0.035 -3.943 -0.047 v 0 c 7.618 -78.719 -58.203 -132.29 -58.429 -132.473 v 0 c 42.216 30.663 68.713 77.801 72.685 130.421 v 0 c -0.206 0.089 -0.412 0.181 -0.62 0.266 v 0 c -0.032 0.013 -0.065 0.027 -0.097 0.04 v 0 c -0.374 0.15 -0.751 0.292 -1.132 0.424 v 0 c -2.526 0.881 -5.204 1.372 -8.079 1.372 v 0 c -0.128 0 -0.257 -0.001 -0.385 -0.003" stroke-linecap="round" />
</g>
</g>
</g>
<g transform="matrix(1.9692780337941629 0 0 1.9692780337941629 640.0495200500525 698.0880536469692)" id="text-logo-path"  >
<path style="stroke: none; stroke-width: 0; stroke-dasharray: none; stroke-linecap: butt; stroke-dashoffset: 0; stroke-linejoin: miter; stroke-miterlimit: 4; fill: rgb(23,145,208); fill-rule: nonzero; opacity: 1;"  paint-order="stroke"  transform=" translate(-176.33999999999997, 31.91)" d="M 1.42 -15.25 L 1.42 -15.25 L 1.42 -34.43 Q 1.42 -37.61 2.63 -40.39 Q 3.85 -43.16 5.89 -45.22 Q 7.94 -47.29 10.71 -48.5 Q 13.49 -49.71 16.68 -49.71 L 16.68 -49.71 L 24.34 -49.71 Q 27.53 -49.71 30.3 -48.5 Q 33.07 -47.29 35.14 -45.22 Q 37.2 -43.16 38.41 -40.39 Q 39.63 -37.61 39.63 -34.43 L 39.63 -34.43 L 28.19 -34.43 Q 28.19 -35.99 27.09 -37.09 Q 26 -38.2 24.34 -38.2 L 24.34 -38.2 L 16.68 -38.2 Q 15.05 -38.2 13.95 -37.09 Q 12.86 -35.99 12.86 -34.43 L 12.86 -34.43 L 12.86 -15.25 Q 12.86 -13.69 13.95 -12.57 Q 15.05 -11.44 16.68 -11.44 L 16.68 -11.44 L 24.34 -11.44 Q 25.97 -11.44 27.08 -12.57 Q 28.19 -13.69 28.19 -15.25 L 28.19 -15.25 L 39.63 -15.25 Q 39.63 -12.06 38.41 -9.29 Q 37.2 -6.52 35.14 -4.47 Q 33.07 -2.43 30.32 -1.21 Q 27.56 0 24.34 0 L 24.34 0 L 16.68 0 Q 13.49 0 10.71 -1.21 Q 7.94 -2.43 5.89 -4.47 Q 3.85 -6.52 2.63 -9.29 Q 1.42 -12.06 1.42 -15.25 Z M 53.87 0 L 42.43 0 L 42.43 -49.71 L 53.87 -49.71 L 53.87 -30.61 L 69.2 -30.61 L 69.2 -49.71 L 80.64 -49.71 L 80.64 0 L 69.2 0 L 69.2 -19.1 L 53.87 -19.1 L 53.87 0 Z M 94.89 0 L 83.45 0 L 96.72 -49.71 L 96.86 -49.71 L 108.23 -49.71 L 108.37 -49.71 L 121.65 0 L 110.21 0 L 102.55 -28.53 L 94.89 0 Z M 135.97 0 L 124.46 0 L 124.46 -34.43 Q 124.46 -37.61 125.67 -40.39 Q 126.88 -43.16 128.96 -45.22 Q 131.04 -47.29 133.82 -48.5 Q 136.59 -49.71 139.78 -49.71 L 139.78 -49.71 Q 142.49 -49.71 144.93 -48.81 Q 147.37 -47.91 149.31 -46.35 L 149.31 -46.35 Q 151.29 -47.91 153.74 -48.81 Q 156.18 -49.71 158.88 -49.71 L 158.88 -49.71 Q 162.07 -49.71 164.85 -48.5 Q 167.62 -47.29 169.68 -45.22 Q 171.75 -43.16 172.96 -40.39 Q 174.17 -37.61 174.17 -34.43 L 174.17 -34.43 L 174.17 0 L 162.73 0 L 162.73 -34.43 Q 162.73 -35.99 161.62 -37.09 Q 160.51 -38.2 158.88 -38.2 L 158.88 -38.2 Q 157.25 -38.2 156.16 -37.09 Q 155.07 -35.99 155.07 -34.43 L 155.07 -34.43 L 155.07 0 L 143.63 0 L 143.63 -34.43 Q 143.63 -35.99 142.52 -37.09 Q 141.41 -38.2 139.78 -38.2 L 139.78 -38.2 Q 138.15 -38.2 137.06 -37.09 Q 135.97 -35.99 135.97 -34.43 L 135.97 -34.43 L 135.97 0 Z M 188.42 0 L 176.98 0 L 176.98 -49.71 L 188.42 -49.71 L 199.9 -49.71 Q 203.08 -49.71 205.86 -48.5 Q 208.63 -47.29 210.69 -45.22 Q 212.76 -43.16 213.97 -40.39 Q 215.18 -37.61 215.18 -34.43 L 215.18 -34.43 Q 215.18 -31.72 214.3 -29.28 Q 213.42 -26.83 211.86 -24.86 L 211.86 -24.86 Q 213.42 -22.88 214.3 -20.42 Q 215.18 -17.96 215.18 -15.25 L 215.18 -15.25 Q 215.18 -12.06 213.97 -9.29 Q 212.76 -6.52 210.69 -4.47 Q 208.63 -2.43 205.88 -1.21 Q 203.12 0 199.9 0 L 199.9 0 L 188.42 0 Z M 188.42 -19.1 L 188.42 -11.44 L 199.9 -11.44 Q 201.52 -11.44 202.63 -12.57 Q 203.74 -13.69 203.74 -15.25 L 203.74 -15.25 Q 203.74 -16.88 202.65 -17.99 Q 201.56 -19.1 199.9 -19.1 L 199.9 -19.1 L 188.42 -19.1 Z M 188.42 -38.2 L 188.42 -30.61 L 199.9 -30.61 Q 201.52 -30.61 202.63 -31.7 Q 203.74 -32.8 203.74 -34.43 L 203.74 -34.43 Q 203.74 -35.99 202.65 -37.09 Q 201.56 -38.2 199.9 -38.2 L 199.9 -38.2 L 188.42 -38.2 Z M 217.99 -15.25 L 217.99 -15.25 L 217.99 -34.43 Q 217.99 -37.61 219.21 -40.39 Q 220.42 -43.16 222.46 -45.22 Q 224.51 -47.29 227.28 -48.5 Q 230.06 -49.71 233.25 -49.71 L 233.25 -49.71 L 256.2 -49.71 L 256.2 -38.2 L 233.25 -38.2 Q 231.62 -38.2 230.52 -37.09 Q 229.43 -35.99 229.43 -34.43 L 229.43 -34.43 L 229.43 -30.61 L 256.2 -30.61 L 256.2 -19.1 L 229.43 -19.1 L 229.43 -15.25 Q 229.43 -13.69 230.52 -12.57 Q 231.62 -11.44 233.25 -11.44 L 233.25 -11.44 L 256.2 -11.44 L 256.2 0 L 233.25 0 Q 230.06 0 227.28 -1.21 Q 224.51 -2.43 222.46 -4.47 Q 220.42 -6.52 219.21 -9.29 Q 217.99 -12.06 217.99 -15.25 Z M 270.44 0 L 259 0 L 259 -49.71 L 270.44 -49.71 L 281.92 -49.71 Q 285.11 -49.71 287.88 -48.5 Q 290.66 -47.29 292.72 -45.22 Q 294.78 -43.16 296 -40.39 Q 297.21 -37.61 297.21 -34.43 L 297.21 -34.43 Q 297.21 -31.72 296.32 -29.28 Q 295.44 -26.83 293.88 -24.86 L 293.88 -24.86 Q 295.44 -22.88 296.32 -20.42 Q 297.21 -17.96 297.21 -15.25 L 297.21 -15.25 L 297.21 0 L 285.77 0 L 285.77 -15.25 Q 285.77 -16.88 284.68 -17.99 Q 283.58 -19.1 281.92 -19.1 L 281.92 -19.1 L 270.44 -19.1 L 270.44 0 Z M 270.44 -38.2 L 270.44 -30.61 L 281.92 -30.61 Q 283.55 -30.61 284.66 -31.7 Q 285.77 -32.8 285.77 -34.43 L 285.77 -34.43 Q 285.77 -35.99 284.68 -37.09 Q 283.58 -38.2 281.92 -38.2 L 281.92 -38.2 L 270.44 -38.2 Z M 301.16 -53.25 Q 300.36 -53.25 300.12 -53.72 Q 299.88 -54.19 300.29 -54.74 L 300.29 -54.74 L 305.98 -63.27 Q 306.33 -63.82 306.93 -63.82 Q 307.54 -63.82 307.96 -63.27 L 307.96 -63.27 L 309.83 -60.5 Q 310.17 -59.94 310.17 -59 Q 310.17 -58.07 309.83 -57.51 L 309.83 -57.51 L 307.96 -54.74 Q 307.54 -54.19 306.72 -53.72 Q 305.91 -53.25 305.11 -53.25 L 305.11 -53.25 L 301.16 -53.25 Z M 335.97 0 L 313.05 0 L 313.05 -11.44 L 335.97 -11.44 Q 337.6 -11.51 338.71 -12.6 Q 339.82 -13.69 339.82 -15.25 L 339.82 -15.25 Q 339.82 -16.88 338.72 -17.99 Q 337.63 -19.1 335.97 -19.1 L 335.97 -19.1 L 328.31 -19.1 Q 325.12 -19.1 322.34 -20.32 Q 319.57 -21.53 317.52 -23.61 Q 315.48 -25.69 314.27 -28.46 Q 313.05 -31.24 313.05 -34.43 L 313.05 -34.43 Q 313.05 -37.61 314.27 -40.39 Q 315.48 -43.16 317.52 -45.22 Q 319.57 -47.29 322.34 -48.5 Q 325.12 -49.71 328.31 -49.71 L 328.31 -49.71 L 343.59 -49.71 L 343.59 -38.2 L 328.31 -38.2 Q 326.68 -38.2 325.58 -37.09 Q 324.49 -35.99 324.49 -34.43 L 324.49 -34.43 Q 324.49 -32.8 325.58 -31.7 Q 326.68 -30.61 328.31 -30.61 L 328.31 -30.61 L 335.97 -30.61 Q 339.16 -30.61 341.93 -29.4 Q 344.7 -28.19 346.77 -26.09 Q 348.83 -23.99 350.04 -21.22 Q 351.26 -18.44 351.26 -15.25 L 351.26 -15.25 Q 351.26 -12.06 350.04 -9.29 Q 348.83 -6.52 346.77 -4.47 Q 344.7 -2.43 341.95 -1.21 Q 339.19 0 335.97 0 L 335.97 0 Z" stroke-linecap="round" />
</g>
<g transform="matrix(1.9692780337941629 0 0 1.9692780337941629 647.9091136448063 821.4459965715121)" id="tagline-b04c831b-3ed1-4b6b-9c8e-1c5e87bdc4f1-logo-path"  >
<path style="stroke: none; stroke-width: 0; stroke-dasharray: none; stroke-linecap: butt; stroke-dashoffset: 0; stroke-linejoin: miter; stroke-miterlimit: 4; fill: rgb(23,145,208); fill-rule: nonzero; opacity: 1;"  paint-order="stroke"  transform=" translate(-271.975, 14.565000000000001)" d="M 7.13 0 L 2.3 0 L 2.3 -13.3 Q 2.3 -16.22 3.3 -18.67 Q 4.3 -21.12 6.09 -22.88 Q 7.87 -24.64 10.3 -25.62 Q 12.73 -26.61 15.6 -26.61 L 15.6 -26.61 L 26.48 -26.61 Q 26.98 -26.61 27.42 -26.42 Q 27.87 -26.24 28.2 -25.9 Q 28.54 -25.57 28.72 -25.12 Q 28.91 -24.68 28.91 -24.18 L 28.91 -24.18 L 28.91 0 L 24.08 0 L 24.08 -6.53 L 7.13 -6.53 L 7.13 0 Z M 7.13 -13.3 L 7.13 -11.36 L 24.08 -11.36 L 24.08 -21.78 L 15.6 -21.78 Q 15.38 -21.78 14.67 -21.72 Q 13.95 -21.65 13.02 -21.39 Q 12.08 -21.13 11.04 -20.6 Q 10 -20.06 9.13 -19.11 Q 8.26 -18.17 7.69 -16.75 Q 7.13 -15.33 7.13 -13.3 L 7.13 -13.3 Z M 45.85 -18.74 L 45.85 -18.74 Q 45.85 -20.91 46.62 -22.4 Q 47.39 -23.9 48.55 -24.84 Q 49.71 -25.77 51.06 -26.19 Q 52.42 -26.61 53.59 -26.61 L 53.59 -26.61 L 70.01 -26.61 L 70.01 -21.78 L 53.59 -21.78 Q 52.21 -21.78 51.44 -20.95 Q 50.67 -20.11 50.67 -18.74 L 50.67 -18.74 Q 50.67 -17.35 51.44 -16.54 Q 52.21 -15.73 53.59 -15.73 L 53.59 -15.73 L 64.68 -15.73 L 64.72 -15.73 Q 65.5 -15.72 66.37 -15.52 Q 67.24 -15.33 68.1 -14.92 Q 68.97 -14.51 69.75 -13.89 Q 70.53 -13.27 71.13 -12.39 Q 71.73 -11.52 72.08 -10.39 Q 72.44 -9.26 72.44 -7.83 L 72.44 -7.83 Q 72.44 -6.4 72.08 -5.26 Q 71.71 -4.12 71.12 -3.25 Q 70.53 -2.38 69.73 -1.76 Q 68.93 -1.15 68.08 -0.76 Q 67.22 -0.37 66.34 -0.19 Q 65.46 0 64.68 0 L 64.68 0 L 46.07 0 L 46.07 -4.82 L 64.68 -4.82 Q 66.07 -4.82 66.84 -5.64 Q 67.61 -6.46 67.61 -7.83 L 67.61 -7.83 Q 67.61 -8.5 67.41 -9.05 Q 67.21 -9.61 66.82 -10.02 Q 66.44 -10.43 65.9 -10.65 Q 65.35 -10.87 64.68 -10.87 L 64.68 -10.87 L 53.59 -10.87 Q 52.42 -10.87 51.06 -11.29 Q 49.71 -11.71 48.55 -12.64 Q 47.39 -13.56 46.62 -15.07 Q 45.85 -16.57 45.85 -18.74 Z M 75.61 -8.92 L 75.61 -8.92 L 75.61 -20.06 L 80.43 -20.06 L 80.43 -8.92 Q 80.43 -7.98 80.76 -7.23 Q 81.08 -6.48 81.64 -5.94 Q 82.2 -5.4 82.95 -5.11 Q 83.7 -4.82 84.57 -4.82 L 84.57 -4.82 L 93.01 -4.82 L 93.01 -20.06 L 97.84 -20.06 L 97.84 -2.43 Q 97.84 -1.91 97.65 -1.47 Q 97.47 -1.02 97.14 -0.7 Q 96.82 -0.37 96.38 -0.19 Q 95.95 0 95.45 0 L 95.45 0 L 84.54 0 Q 83.64 0 82.63 -0.2 Q 81.62 -0.41 80.64 -0.86 Q 79.66 -1.32 78.74 -2.01 Q 77.82 -2.71 77.13 -3.7 Q 76.45 -4.69 76.03 -5.99 Q 75.61 -7.29 75.61 -8.92 Z M 101.09 -6.64 L 101.09 -6.64 Q 101.09 -7.64 101.44 -8.81 Q 101.79 -9.98 102.58 -10.98 Q 103.37 -11.97 104.64 -12.64 Q 105.91 -13.3 107.73 -13.3 L 107.73 -13.3 L 116.43 -13.3 L 116.43 -8.7 L 107.73 -8.7 Q 106.75 -8.7 106.21 -8.1 Q 105.67 -7.5 105.67 -6.61 L 105.67 -6.61 Q 105.67 -5.66 106.29 -5.13 Q 106.91 -4.6 107.77 -4.6 L 107.77 -4.6 L 116.43 -4.6 Q 117.41 -4.6 117.95 -5.2 Q 118.49 -5.79 118.49 -6.68 L 118.49 -6.68 L 118.49 -13.42 Q 118.49 -14.36 117.91 -14.92 Q 117.32 -15.47 116.43 -15.47 L 116.43 -15.47 L 105.84 -15.47 L 105.84 -20.06 L 116.43 -20.06 Q 117.43 -20.06 118.59 -19.71 Q 119.75 -19.35 120.74 -18.56 Q 121.74 -17.78 122.41 -16.5 Q 123.07 -15.23 123.07 -13.42 L 123.07 -13.42 L 123.07 -6.64 Q 123.07 -5.64 122.72 -4.48 Q 122.37 -3.32 121.58 -2.33 Q 120.79 -1.34 119.52 -0.67 Q 118.25 0 116.43 0 L 116.43 0 L 107.73 0 Q 106.73 0 105.57 -0.35 Q 104.41 -0.71 103.41 -1.49 Q 102.42 -2.28 101.75 -3.55 Q 101.09 -4.82 101.09 -6.64 Z M 140.05 -2.43 L 140.05 -2.43 L 140.05 -24.18 Q 140.05 -24.68 140.24 -25.12 Q 140.42 -25.57 140.75 -25.9 Q 141.07 -26.24 141.52 -26.42 Q 141.96 -26.61 142.48 -26.61 L 142.48 -26.61 L 155.51 -26.61 Q 157.9 -26.61 159.94 -25.77 Q 161.98 -24.94 163.47 -23.46 Q 164.95 -21.99 165.8 -19.94 Q 166.64 -17.89 166.64 -15.47 L 166.64 -15.47 L 166.64 -11.13 Q 166.64 -8.7 165.8 -6.66 Q 164.95 -4.62 163.47 -3.15 Q 161.98 -1.67 159.94 -0.83 Q 157.9 0 155.51 0 L 155.51 0 L 142.48 0 Q 141.96 0 141.52 -0.19 Q 141.07 -0.37 140.75 -0.7 Q 140.42 -1.02 140.24 -1.47 Q 140.05 -1.91 140.05 -2.43 Z M 144.88 -21.78 L 144.88 -4.82 L 155.51 -4.82 Q 156.92 -4.82 158.08 -5.28 Q 159.24 -5.73 160.07 -6.56 Q 160.91 -7.38 161.36 -8.54 Q 161.82 -9.7 161.82 -11.13 L 161.82 -11.13 L 161.82 -15.47 Q 161.82 -16.88 161.36 -18.05 Q 160.91 -19.22 160.07 -20.05 Q 159.24 -20.87 158.08 -21.33 Q 156.92 -21.78 155.51 -21.78 L 155.51 -21.78 L 144.88 -21.78 Z M 175.73 0 L 170.91 0 L 170.91 -20.06 L 175.73 -20.06 L 175.73 0 Z M 175.73 -24.18 L 170.91 -24.18 L 170.91 -28.54 L 175.73 -28.54 L 175.73 -24.18 Z M 180.35 -2.36 L 180.35 -2.36 L 180.35 -20.06 L 185.18 -20.06 L 185.18 -4.97 Q 186.94 -4.97 188.56 -5.73 Q 190.19 -6.49 191.63 -7.75 Q 193.08 -9 194.31 -10.59 Q 195.55 -12.19 196.51 -13.87 Q 197.48 -15.55 198.15 -17.16 Q 198.83 -18.78 199.17 -20.06 L 199.17 -20.06 L 204.29 -20.06 Q 203.47 -17.52 202.38 -15.05 Q 201.28 -12.58 199.86 -10.34 Q 198.44 -8.11 196.69 -6.21 Q 194.94 -4.3 192.81 -2.92 Q 190.69 -1.54 188.19 -0.75 Q 185.7 0.04 182.78 0.04 L 182.78 0.04 Q 182.28 0.04 181.84 -0.15 Q 181.39 -0.33 181.06 -0.66 Q 180.72 -0.98 180.54 -1.42 Q 180.35 -1.86 180.35 -2.36 Z M 205.6 -6.64 L 205.6 -6.64 L 205.6 -13.42 Q 205.6 -14.42 205.96 -15.58 Q 206.31 -16.74 207.1 -17.73 Q 207.89 -18.72 209.16 -19.39 Q 210.43 -20.06 212.25 -20.06 L 212.25 -20.06 L 220.95 -20.06 Q 221.95 -20.06 223.11 -19.71 Q 224.27 -19.35 225.26 -18.56 Q 226.26 -17.78 226.92 -16.5 Q 227.59 -15.23 227.59 -13.42 L 227.59 -13.42 Q 227.59 -12.41 227.24 -11.25 Q 226.89 -10.09 226.1 -9.1 Q 225.31 -8.11 224.04 -7.44 Q 222.77 -6.77 220.95 -6.77 L 220.95 -6.77 L 212.25 -6.77 L 212.25 -11.36 L 220.95 -11.36 Q 221.93 -11.36 222.47 -11.96 Q 223.01 -12.56 223.01 -13.45 L 223.01 -13.45 Q 223.01 -14.4 222.41 -14.94 Q 221.8 -15.47 220.95 -15.47 L 220.95 -15.47 L 212.25 -15.47 Q 211.26 -15.47 210.73 -14.87 Q 210.19 -14.27 210.19 -13.38 L 210.19 -13.38 L 210.19 -6.64 Q 210.19 -5.68 210.79 -5.14 Q 211.39 -4.6 212.28 -4.6 L 212.28 -4.6 L 220.95 -4.6 L 220.95 0 L 212.25 0 Q 211.25 0 210.09 -0.35 Q 208.93 -0.71 207.93 -1.49 Q 206.94 -2.28 206.27 -3.55 Q 205.6 -4.82 205.6 -6.64 Z M 235.55 0 L 230.73 0 L 230.73 -13.3 Q 230.73 -14.55 231.04 -15.53 Q 231.36 -16.51 231.89 -17.27 Q 232.42 -18.02 233.1 -18.55 Q 233.79 -19.07 234.54 -19.41 Q 235.29 -19.74 236.06 -19.9 Q 236.83 -20.06 237.5 -20.06 L 237.5 -20.06 L 248.39 -20.06 L 248.39 -15.23 L 237.54 -15.23 Q 236.55 -15.23 236.05 -14.74 Q 235.55 -14.25 235.55 -13.3 L 235.55 -13.3 L 235.55 0 Z M 250.88 -14.25 L 250.88 -14.25 Q 250.88 -15.86 251.45 -16.97 Q 252.03 -18.07 252.9 -18.76 Q 253.77 -19.45 254.79 -19.75 Q 255.81 -20.06 256.7 -20.06 L 256.7 -20.06 L 268.56 -20.06 L 268.56 -15.23 L 256.74 -15.23 Q 256.37 -15.23 256.16 -15.15 Q 255.94 -15.07 255.84 -14.93 Q 255.74 -14.79 255.72 -14.63 Q 255.7 -14.47 255.7 -14.32 L 255.7 -14.32 Q 255.72 -14.03 255.81 -13.86 Q 255.91 -13.69 256.05 -13.62 Q 256.18 -13.54 256.36 -13.54 Q 256.54 -13.53 256.7 -13.53 L 256.7 -13.53 L 264.18 -13.53 Q 266.04 -13.53 267.34 -12.86 Q 268.63 -12.19 269.43 -11.18 Q 270.23 -10.17 270.59 -8.98 Q 270.95 -7.79 270.95 -6.77 L 270.95 -6.77 Q 270.95 -5.53 270.64 -4.54 Q 270.32 -3.54 269.8 -2.79 Q 269.28 -2.04 268.6 -1.51 Q 267.91 -0.98 267.16 -0.65 Q 266.41 -0.32 265.64 -0.16 Q 264.87 0 264.18 0 L 264.18 0 L 251.12 0 L 251.12 -4.82 L 264.14 -4.82 Q 265.13 -4.82 265.63 -5.33 Q 266.13 -5.83 266.13 -6.77 L 266.13 -6.77 Q 266.04 -8.7 264.18 -8.7 L 264.18 -8.7 L 256.7 -8.7 Q 255.11 -8.7 254 -9.26 Q 252.88 -9.82 252.19 -10.65 Q 251.49 -11.49 251.18 -12.45 Q 250.88 -13.42 250.88 -14.25 Z M 273.05 -6.64 L 273.05 -6.64 Q 273.05 -7.64 273.4 -8.81 Q 273.76 -9.98 274.54 -10.98 Q 275.33 -11.97 276.6 -12.64 Q 277.88 -13.3 279.69 -13.3 L 279.69 -13.3 L 288.4 -13.3 L 288.4 -8.7 L 279.69 -8.7 Q 278.71 -8.7 278.17 -8.1 Q 277.63 -7.5 277.63 -6.61 L 277.63 -6.61 Q 277.63 -5.66 278.26 -5.13 Q 278.88 -4.6 279.73 -4.6 L 279.73 -4.6 L 288.4 -4.6 Q 289.38 -4.6 289.92 -5.2 Q 290.46 -5.79 290.46 -6.68 L 290.46 -6.68 L 290.46 -13.42 Q 290.46 -14.36 289.87 -14.92 Q 289.29 -15.47 288.4 -15.47 L 288.4 -15.47 L 277.8 -15.47 L 277.8 -20.06 L 288.4 -20.06 Q 289.4 -20.06 290.56 -19.71 Q 291.72 -19.35 292.71 -18.56 Q 293.7 -17.78 294.37 -16.5 Q 295.04 -15.23 295.04 -13.42 L 295.04 -13.42 L 295.04 -6.64 Q 295.04 -5.64 294.69 -4.48 Q 294.33 -3.32 293.54 -2.33 Q 292.76 -1.34 291.48 -0.67 Q 290.21 0 288.4 0 L 288.4 0 L 279.69 0 Q 278.69 0 277.53 -0.35 Q 276.37 -0.71 275.38 -1.49 Q 274.39 -2.28 273.72 -3.55 Q 273.05 -4.82 273.05 -6.64 Z M 280.01 -22.79 L 276.72 -22.79 Q 276.72 -24.36 277.1 -25.56 Q 277.49 -26.76 278.13 -27.56 Q 278.77 -28.37 279.61 -28.77 Q 280.45 -29.17 281.4 -29.17 L 281.4 -29.17 Q 282.27 -29.17 282.91 -28.82 Q 283.55 -28.46 284.11 -28.05 Q 284.67 -27.63 285.19 -27.28 Q 285.72 -26.94 286.39 -26.94 L 286.39 -26.94 Q 286.95 -26.94 287.27 -27.22 Q 287.6 -27.5 287.76 -27.86 Q 287.93 -28.22 287.99 -28.59 Q 288.04 -28.96 288.06 -29.17 L 288.06 -29.17 L 291.33 -29.17 Q 291.33 -27.39 290.96 -26.16 Q 290.58 -24.94 289.95 -24.19 Q 289.32 -23.43 288.48 -23.11 Q 287.63 -22.79 286.69 -22.79 L 286.69 -22.79 Q 285.69 -22.79 285 -23.14 Q 284.31 -23.49 283.78 -23.91 Q 283.24 -24.33 282.75 -24.68 Q 282.27 -25.03 281.68 -25.03 L 281.68 -25.03 Q 281.12 -25.03 280.8 -24.75 Q 280.47 -24.47 280.31 -24.09 Q 280.14 -23.71 280.08 -23.34 Q 280.03 -22.97 280.01 -22.79 L 280.01 -22.79 Z M 298.75 -6.77 L 298.75 -6.77 L 298.75 -13.3 Q 298.75 -15.16 299.43 -16.45 Q 300.1 -17.74 301.11 -18.55 Q 302.13 -19.35 303.31 -19.71 Q 304.5 -20.06 305.5 -20.06 L 305.5 -20.06 L 314.21 -20.06 Q 316.06 -20.06 317.36 -19.39 Q 318.66 -18.72 319.46 -17.71 Q 320.25 -16.7 320.62 -15.51 Q 320.98 -14.32 320.98 -13.3 L 320.98 -13.3 L 320.98 -6.77 Q 320.98 -5.53 320.66 -4.54 Q 320.35 -3.54 319.83 -2.79 Q 319.31 -2.04 318.62 -1.51 Q 317.93 -0.98 317.18 -0.65 Q 316.43 -0.32 315.66 -0.16 Q 314.89 0 314.21 0 L 314.21 0 L 305.5 0 Q 304.5 0 303.31 -0.35 Q 302.13 -0.71 301.11 -1.51 Q 300.1 -2.32 299.43 -3.61 Q 298.75 -4.9 298.75 -6.77 Z M 303.57 -13.3 L 303.57 -6.77 Q 303.57 -5.83 304.07 -5.33 Q 304.58 -4.82 305.54 -4.82 L 305.54 -4.82 L 314.21 -4.82 Q 315.19 -4.82 315.67 -5.33 Q 316.15 -5.83 316.15 -6.77 L 316.15 -6.77 L 316.15 -13.27 Q 316.15 -14.27 315.65 -14.75 Q 315.15 -15.23 314.21 -15.23 L 314.21 -15.23 L 305.54 -15.23 Q 304.58 -15.23 304.07 -14.74 Q 303.57 -14.25 303.57 -13.3 L 303.57 -13.3 Z M 337.62 -6.77 L 337.62 -6.77 L 337.62 -19.83 Q 337.62 -20.5 337.78 -21.27 Q 337.94 -22.04 338.27 -22.79 Q 338.6 -23.55 339.14 -24.23 Q 339.68 -24.92 340.43 -25.45 Q 341.18 -25.98 342.17 -26.29 Q 343.15 -26.61 344.39 -26.61 L 344.39 -26.61 L 364.01 -26.61 L 364.01 -21.78 L 344.39 -21.78 Q 343.45 -21.78 342.95 -21.28 Q 342.45 -20.78 342.45 -19.8 L 342.45 -19.8 L 342.45 -6.77 Q 342.45 -5.84 342.96 -5.33 Q 343.47 -4.82 344.39 -4.82 L 344.39 -4.82 L 359.4 -4.82 L 359.4 -10.87 L 346.56 -10.87 L 346.56 -15.73 L 361.8 -15.73 Q 362.32 -15.73 362.76 -15.54 Q 363.21 -15.34 363.53 -15.01 Q 363.86 -14.68 364.04 -14.24 Q 364.23 -13.8 364.23 -13.3 L 364.23 -13.3 L 364.23 -2.43 Q 364.23 -1.91 364.04 -1.47 Q 363.86 -1.02 363.53 -0.7 Q 363.21 -0.37 362.76 -0.19 Q 362.32 0 361.8 0 L 361.8 0 L 344.39 0 Q 343.73 0 342.96 -0.16 Q 342.19 -0.32 341.43 -0.65 Q 340.68 -0.98 340 -1.51 Q 339.31 -2.04 338.78 -2.79 Q 338.25 -3.54 337.94 -4.54 Q 337.62 -5.53 337.62 -6.77 Z M 367.44 -6.64 L 367.44 -6.64 Q 367.44 -7.64 367.79 -8.81 Q 368.14 -9.98 368.93 -10.98 Q 369.72 -11.97 370.99 -12.64 Q 372.26 -13.3 374.08 -13.3 L 374.08 -13.3 L 382.78 -13.3 L 382.78 -8.7 L 374.08 -8.7 Q 373.1 -8.7 372.56 -8.1 Q 372.02 -7.5 372.02 -6.61 L 372.02 -6.61 Q 372.02 -5.66 372.64 -5.13 Q 373.26 -4.6 374.12 -4.6 L 374.12 -4.6 L 382.78 -4.6 Q 383.77 -4.6 384.3 -5.2 Q 384.84 -5.79 384.84 -6.68 L 384.84 -6.68 L 384.84 -13.42 Q 384.84 -14.36 384.26 -14.92 Q 383.67 -15.47 382.78 -15.47 L 382.78 -15.47 L 372.19 -15.47 L 372.19 -20.06 L 382.78 -20.06 Q 383.79 -20.06 384.94 -19.71 Q 386.1 -19.35 387.1 -18.56 Q 388.09 -17.78 388.76 -16.5 Q 389.43 -15.23 389.43 -13.42 L 389.43 -13.42 L 389.43 -6.64 Q 389.43 -5.64 389.07 -4.48 Q 388.72 -3.32 387.93 -2.33 Q 387.14 -1.34 385.87 -0.67 Q 384.6 0 382.78 0 L 382.78 0 L 374.08 0 Q 373.08 0 371.92 -0.35 Q 370.76 -0.71 369.77 -1.49 Q 368.77 -2.28 368.11 -3.55 Q 367.44 -4.82 367.44 -6.64 Z M 398.26 0 L 393.43 0 L 393.43 -13.3 Q 393.43 -14.55 393.75 -15.53 Q 394.06 -16.51 394.59 -17.27 Q 395.12 -18.02 395.81 -18.55 Q 396.5 -19.07 397.25 -19.41 Q 398 -19.74 398.77 -19.9 Q 399.54 -20.06 400.21 -20.06 L 400.21 -20.06 L 411.1 -20.06 L 411.1 -15.23 L 400.24 -15.23 Q 399.26 -15.23 398.76 -14.74 Q 398.26 -14.25 398.26 -13.3 L 398.26 -13.3 L 398.26 0 Z M 411.43 -6.64 L 411.43 -6.64 Q 411.43 -7.64 411.78 -8.81 Q 412.14 -9.98 412.93 -10.98 Q 413.71 -11.97 414.98 -12.64 Q 416.26 -13.3 418.07 -13.3 L 418.07 -13.3 L 426.78 -13.3 L 426.78 -8.7 L 418.07 -8.7 Q 417.09 -8.7 416.55 -8.1 Q 416.01 -7.5 416.01 -6.61 L 416.01 -6.61 Q 416.01 -5.66 416.64 -5.13 Q 417.26 -4.6 418.11 -4.6 L 418.11 -4.6 L 426.78 -4.6 Q 427.76 -4.6 428.3 -5.2 Q 428.84 -5.79 428.84 -6.68 L 428.84 -6.68 L 428.84 -13.42 Q 428.84 -14.36 428.25 -14.92 Q 427.67 -15.47 426.78 -15.47 L 426.78 -15.47 L 416.18 -15.47 L 416.18 -20.06 L 426.78 -20.06 Q 427.78 -20.06 428.94 -19.71 Q 430.1 -19.35 431.09 -18.56 Q 432.08 -17.78 432.75 -16.5 Q 433.42 -15.23 433.42 -13.42 L 433.42 -13.42 L 433.42 -6.64 Q 433.42 -5.64 433.07 -4.48 Q 432.71 -3.32 431.93 -2.33 Q 431.14 -1.34 429.87 -0.67 Q 428.59 0 426.78 0 L 426.78 0 L 418.07 0 Q 417.07 0 415.91 -0.35 Q 414.75 -0.71 413.76 -1.49 Q 412.77 -2.28 412.1 -3.55 Q 411.43 -4.82 411.43 -6.64 Z M 442.36 0 L 437.54 0 L 437.54 -17.66 Q 437.54 -18.17 437.72 -18.6 Q 437.91 -19.04 438.24 -19.36 Q 438.58 -19.69 439.02 -19.87 Q 439.47 -20.06 439.97 -20.06 L 439.97 -20.06 L 450.84 -20.06 Q 451.75 -20.06 452.76 -19.85 Q 453.77 -19.65 454.77 -19.19 Q 455.76 -18.74 456.66 -18.04 Q 457.56 -17.35 458.25 -16.36 Q 458.95 -15.36 459.36 -14.06 Q 459.77 -12.77 459.77 -11.13 L 459.77 -11.13 L 459.77 0 L 454.94 0 L 454.94 -11.13 Q 454.94 -12.08 454.62 -12.83 Q 454.29 -13.58 453.74 -14.12 Q 453.18 -14.66 452.43 -14.95 Q 451.68 -15.23 450.8 -15.23 L 450.8 -15.23 L 442.36 -15.23 L 442.36 0 Z M 468.34 -15.23 L 462.07 -15.23 L 462.07 -20.06 L 468.34 -20.06 L 468.34 -26.61 L 473.22 -26.61 L 473.22 -20.06 L 481.64 -20.06 L 481.64 -15.23 L 473.22 -15.23 L 473.22 0 L 468.34 0 L 468.34 -15.23 Z M 489.71 0 L 484.89 0 L 484.89 -20.06 L 489.71 -20.06 L 489.71 0 Z M 489.71 -24.18 L 484.89 -24.18 L 484.89 -28.54 L 489.71 -28.54 L 489.71 -24.18 Z M 494.11 -6.77 L 494.11 -6.77 L 494.11 -13.3 Q 494.11 -15.16 494.79 -16.45 Q 495.47 -17.74 496.48 -18.55 Q 497.49 -19.35 498.68 -19.71 Q 499.86 -20.06 500.87 -20.06 L 500.87 -20.06 L 509.57 -20.06 L 509.57 -15.23 L 500.9 -15.23 Q 499.94 -15.23 499.44 -14.74 Q 498.94 -14.25 498.94 -13.3 L 498.94 -13.3 L 498.94 -6.81 Q 498.94 -5.83 499.43 -5.33 Q 499.92 -4.82 500.87 -4.82 L 500.87 -4.82 L 509.57 -4.82 Q 510.55 -4.82 511.03 -5.33 Q 511.52 -5.83 511.52 -6.77 L 511.52 -6.77 L 511.52 -28.54 L 516.34 -28.54 L 516.34 -6.77 Q 516.34 -5.53 516.02 -4.54 Q 515.71 -3.54 515.19 -2.79 Q 514.67 -2.04 513.98 -1.51 Q 513.3 -0.98 512.55 -0.65 Q 511.79 -0.32 511.02 -0.16 Q 510.25 0 509.57 0 L 509.57 0 L 500.87 0 Q 499.62 0 498.64 -0.32 Q 497.66 -0.63 496.9 -1.16 Q 496.15 -1.69 495.62 -2.38 Q 495.09 -3.06 494.76 -3.81 Q 494.43 -4.56 494.27 -5.33 Q 494.11 -6.1 494.11 -6.77 Z M 519.66 -6.64 L 519.66 -6.64 Q 519.66 -7.64 520.01 -8.81 Q 520.37 -9.98 521.15 -10.98 Q 521.94 -11.97 523.21 -12.64 Q 524.49 -13.3 526.3 -13.3 L 526.3 -13.3 L 535.01 -13.3 L 535.01 -8.7 L 526.3 -8.7 Q 525.32 -8.7 524.78 -8.1 Q 524.24 -7.5 524.24 -6.61 L 524.24 -6.61 Q 524.24 -5.66 524.87 -5.13 Q 525.49 -4.6 526.34 -4.6 L 526.34 -4.6 L 535.01 -4.6 Q 535.99 -4.6 536.53 -5.2 Q 537.07 -5.79 537.07 -6.68 L 537.07 -6.68 L 537.07 -13.42 Q 537.07 -14.36 536.48 -14.92 Q 535.9 -15.47 535.01 -15.47 L 535.01 -15.47 L 524.41 -15.47 L 524.41 -20.06 L 535.01 -20.06 Q 536.01 -20.06 537.17 -19.71 Q 538.33 -19.35 539.32 -18.56 Q 540.31 -17.78 540.98 -16.5 Q 541.65 -15.23 541.65 -13.42 L 541.65 -13.42 L 541.65 -6.64 Q 541.65 -5.64 541.3 -4.48 Q 540.94 -3.32 540.15 -2.33 Q 539.37 -1.34 538.1 -0.67 Q 536.82 0 535.01 0 L 535.01 0 L 526.3 0 Q 525.3 0 524.14 -0.35 Q 522.98 -0.71 521.99 -1.49 Q 521 -2.28 520.33 -3.55 Q 519.66 -4.82 519.66 -6.64 Z" stroke-linecap="round" />
</g>
</svg>