<?xml version="1.0" encoding="UTF-8" standalone="no" ?>
<!DOCTYPE svg PUBLIC "-//W3C//DTD SVG 1.1//EN" "http://www.w3.org/Graphics/SVG/1.1/DTD/svg11.dtd">
<svg xmlns="http://www.w3.org/2000/svg" xmlns:xlink="http://www.w3.org/1999/xlink" version="1.1" width="1280" height="1024" viewBox="0 0 1280 1024" xml:space="preserve">
<desc>Created with Fabric.js 3.6.3</desc>
<defs>
</defs>
<g transform="matrix(1.9692780337941633 0 0 1.9692780337941633 640.0153846153846 512.012312418764)" id="background-logo"  >
<rect style="stroke: none; stroke-width: 1; stroke-dasharray: none; stroke-linecap: butt; stroke-dashoffset: 0; stroke-linejoin: miter; stroke-miterlimit: 4; fill: rgb(20,15,51); fill-rule: nonzero; opacity: 1;"  paint-order="stroke"  x="-325" y="-260" rx="0" ry="0" width="650" height="520" />
</g>
<g transform="matrix(1.9692780337941633 0 0 1.9692780337941633 463.66996936675355 475.1950103719888)" id="text-logo-path"  >
<path style="stroke: none; stroke-width: 0; stroke-dasharray: none; stroke-linecap: butt; stroke-dashoffset: 0; stroke-linejoin: miter; stroke-miterlimit: 4; fill: rgb(23,145,208); fill-rule: nonzero; opacity: 1;"  paint-order="stroke"  transform=" translate(-114.245, 20.675)" d="M 0.92 -9.88 L 0.92 -9.88 L 0.92 -22.3 Q 0.92 -24.37 1.71 -26.17 Q 2.49 -27.96 3.82 -29.3 Q 5.14 -30.64 6.94 -31.42 Q 8.74 -32.21 10.8 -32.21 L 10.8 -32.21 L 15.77 -32.21 Q 17.83 -32.21 19.63 -31.42 Q 21.43 -30.64 22.76 -29.3 Q 24.1 -27.96 24.89 -26.17 Q 25.67 -24.37 25.67 -22.3 L 25.67 -22.3 L 18.26 -22.3 Q 18.26 -23.31 17.55 -24.03 Q 16.85 -24.75 15.77 -24.75 L 15.77 -24.75 L 10.8 -24.75 Q 9.75 -24.75 9.04 -24.03 Q 8.33 -23.31 8.33 -22.3 L 8.33 -22.3 L 8.33 -9.88 Q 8.33 -8.87 9.04 -8.14 Q 9.75 -7.41 10.8 -7.41 L 10.8 -7.41 L 15.77 -7.41 Q 16.82 -7.41 17.54 -8.14 Q 18.26 -8.87 18.26 -9.88 L 18.26 -9.88 L 25.67 -9.88 Q 25.67 -7.82 24.89 -6.02 Q 24.1 -4.22 22.76 -2.9 Q 21.43 -1.57 19.64 -0.79 Q 17.86 0 15.77 0 L 15.77 0 L 10.8 0 Q 8.74 0 6.94 -0.79 Q 5.14 -1.57 3.82 -2.9 Q 2.49 -4.22 1.71 -6.02 Q 0.92 -7.82 0.92 -9.88 Z M 34.9 0 L 27.49 0 L 27.49 -32.21 L 34.9 -32.21 L 34.9 -19.83 L 44.83 -19.83 L 44.83 -32.21 L 52.24 -32.21 L 52.24 0 L 44.83 0 L 44.83 -12.38 L 34.9 -12.38 L 34.9 0 Z M 61.48 0 L 54.06 0 L 62.67 -32.21 L 62.76 -32.21 L 70.12 -32.21 L 70.21 -32.21 L 78.82 0 L 71.4 0 L 66.44 -18.49 L 61.48 0 Z M 88.09 0 L 80.63 0 L 80.63 -22.3 Q 80.63 -24.37 81.42 -26.17 Q 82.21 -27.96 83.55 -29.3 Q 84.9 -30.64 86.7 -31.42 Q 88.5 -32.21 90.56 -32.21 L 90.56 -32.21 Q 92.31 -32.21 93.9 -31.63 Q 95.48 -31.04 96.74 -30.03 L 96.74 -30.03 Q 98.02 -31.04 99.6 -31.63 Q 101.19 -32.21 102.94 -32.21 L 102.94 -32.21 Q 105 -32.21 106.8 -31.42 Q 108.6 -30.64 109.94 -29.3 Q 111.27 -27.96 112.06 -26.17 Q 112.84 -24.37 112.84 -22.3 L 112.84 -22.3 L 112.84 0 L 105.43 0 L 105.43 -22.3 Q 105.43 -23.31 104.71 -24.03 Q 103.99 -24.75 102.94 -24.75 L 102.94 -24.75 Q 101.88 -24.75 101.18 -24.03 Q 100.47 -23.31 100.47 -22.3 L 100.47 -22.3 L 100.47 0 L 93.06 0 L 93.06 -22.3 Q 93.06 -23.31 92.34 -24.03 Q 91.62 -24.75 90.56 -24.75 L 90.56 -24.75 Q 89.51 -24.75 88.8 -24.03 Q 88.09 -23.31 88.09 -22.3 L 88.09 -22.3 L 88.09 0 Z M 122.08 0 L 114.66 0 L 114.66 -32.21 L 122.08 -32.21 L 129.51 -32.21 Q 131.58 -32.21 133.37 -31.42 Q 135.17 -30.64 136.51 -29.3 Q 137.84 -27.96 138.63 -26.17 Q 139.42 -24.37 139.42 -22.3 L 139.42 -22.3 Q 139.42 -20.55 138.84 -18.97 Q 138.27 -17.38 137.26 -16.1 L 137.26 -16.1 Q 138.27 -14.82 138.84 -13.23 Q 139.42 -11.63 139.42 -9.88 L 139.42 -9.88 Q 139.42 -7.82 138.63 -6.02 Q 137.84 -4.22 136.51 -2.9 Q 135.17 -1.57 133.38 -0.79 Q 131.6 0 129.51 0 L 129.51 0 L 122.08 0 Z M 122.08 -12.38 L 122.08 -7.41 L 129.51 -7.41 Q 130.57 -7.41 131.28 -8.14 Q 132 -8.87 132 -9.88 L 132 -9.88 Q 132 -10.94 131.3 -11.66 Q 130.59 -12.38 129.51 -12.38 L 129.51 -12.38 L 122.08 -12.38 Z M 122.08 -24.75 L 122.08 -19.83 L 129.51 -19.83 Q 130.57 -19.83 131.28 -20.54 Q 132 -21.25 132 -22.3 L 132 -22.3 Q 132 -23.31 131.3 -24.03 Q 130.59 -24.75 129.51 -24.75 L 129.51 -24.75 L 122.08 -24.75 Z M 141.23 -9.88 L 141.23 -9.88 L 141.23 -22.3 Q 141.23 -24.37 142.02 -26.17 Q 142.81 -27.96 144.13 -29.3 Q 145.46 -30.64 147.25 -31.42 Q 149.05 -32.21 151.12 -32.21 L 151.12 -32.21 L 165.99 -32.21 L 165.99 -24.75 L 151.12 -24.75 Q 150.06 -24.75 149.35 -24.03 Q 148.65 -23.31 148.65 -22.3 L 148.65 -22.3 L 148.65 -19.83 L 165.99 -19.83 L 165.99 -12.38 L 148.65 -12.38 L 148.65 -9.88 Q 148.65 -8.87 149.35 -8.14 Q 150.06 -7.41 151.12 -7.41 L 151.12 -7.41 L 165.99 -7.41 L 165.99 0 L 151.12 0 Q 149.05 0 147.25 -0.79 Q 145.46 -1.57 144.13 -2.9 Q 142.81 -4.22 142.02 -6.02 Q 141.23 -7.82 141.23 -9.88 Z M 175.22 0 L 167.81 0 L 167.81 -32.21 L 175.22 -32.21 L 182.65 -32.21 Q 184.72 -32.21 186.52 -31.42 Q 188.31 -30.64 189.65 -29.3 Q 190.99 -27.96 191.77 -26.17 Q 192.56 -24.37 192.56 -22.3 L 192.56 -22.3 Q 192.56 -20.55 191.98 -18.97 Q 191.41 -17.38 190.4 -16.1 L 190.4 -16.1 Q 191.41 -14.82 191.98 -13.23 Q 192.56 -11.63 192.56 -9.88 L 192.56 -9.88 L 192.56 0 L 185.15 0 L 185.15 -9.88 Q 185.15 -10.94 184.44 -11.66 Q 183.73 -12.38 182.65 -12.38 L 182.65 -12.38 L 175.22 -12.38 L 175.22 0 Z M 175.22 -24.75 L 175.22 -19.83 L 182.65 -19.83 Q 183.71 -19.83 184.43 -20.54 Q 185.15 -21.25 185.15 -22.3 L 185.15 -22.3 Q 185.15 -23.31 184.44 -24.03 Q 183.73 -24.75 182.65 -24.75 L 182.65 -24.75 L 175.22 -24.75 Z M 195.12 -34.5 Q 194.6 -34.5 194.44 -34.8 Q 194.29 -35.11 194.56 -35.47 L 194.56 -35.47 L 198.24 -40.99 Q 198.46 -41.35 198.86 -41.35 Q 199.25 -41.35 199.52 -40.99 L 199.52 -40.99 L 200.73 -39.19 Q 200.96 -38.83 200.96 -38.23 Q 200.96 -37.62 200.73 -37.26 L 200.73 -37.26 L 199.52 -35.47 Q 199.25 -35.11 198.72 -34.8 Q 198.2 -34.5 197.68 -34.5 L 197.68 -34.5 L 195.12 -34.5 Z M 217.67 0 L 202.82 0 L 202.82 -7.41 L 217.67 -7.41 Q 218.72 -7.46 219.44 -8.16 Q 220.16 -8.87 220.16 -9.88 L 220.16 -9.88 Q 220.16 -10.94 219.45 -11.66 Q 218.75 -12.38 217.67 -12.38 L 217.67 -12.38 L 212.71 -12.38 Q 210.64 -12.38 208.84 -13.16 Q 207.04 -13.95 205.72 -15.3 Q 204.39 -16.64 203.61 -18.44 Q 202.82 -20.24 202.82 -22.3 L 202.82 -22.3 Q 202.82 -24.37 203.61 -26.17 Q 204.39 -27.96 205.72 -29.3 Q 207.04 -30.64 208.84 -31.42 Q 210.64 -32.21 212.71 -32.21 L 212.71 -32.21 L 222.61 -32.21 L 222.61 -24.75 L 212.71 -24.75 Q 211.65 -24.75 210.94 -24.03 Q 210.23 -23.31 210.23 -22.3 L 210.23 -22.3 Q 210.23 -21.25 210.94 -20.54 Q 211.65 -19.83 212.71 -19.83 L 212.71 -19.83 L 217.67 -19.83 Q 219.74 -19.83 221.53 -19.05 Q 223.33 -18.26 224.67 -16.9 Q 226 -15.54 226.79 -13.75 Q 227.57 -11.95 227.57 -9.88 L 227.57 -9.88 Q 227.57 -7.82 226.79 -6.02 Q 226 -4.22 224.67 -2.9 Q 223.33 -1.57 221.54 -0.79 Q 219.76 0 217.67 0 L 217.67 0 Z" stroke-linecap="round" />
</g>
<g transform="matrix(1.5969390799013703 0 0 1.5969390799013703 464.02863182115067 545.3391233997145)" id="tagline-b04c831b-3ed1-4b6b-9c8e-1c5e87bdc4f1-logo-path"  >
<path style="stroke: none; stroke-width: 0; stroke-dasharray: none; stroke-linecap: butt; stroke-dashoffset: 0; stroke-linejoin: miter; stroke-miterlimit: 4; fill: rgb(23,145,208); fill-rule: nonzero; opacity: 1;"  paint-order="stroke"  transform=" translate(-236.19, 12.649999999999999)" d="M 6.19 0 L 2 0 L 2 -11.55 Q 2 -14.08 2.87 -16.21 Q 3.74 -18.34 5.29 -19.87 Q 6.83 -21.4 8.94 -22.25 Q 11.05 -23.11 13.55 -23.11 L 13.55 -23.11 L 22.99 -23.11 Q 23.43 -23.11 23.82 -22.95 Q 24.2 -22.78 24.49 -22.49 Q 24.78 -22.2 24.94 -21.82 Q 25.1 -21.43 25.1 -21 L 25.1 -21 L 25.1 0 L 20.92 0 L 20.92 -5.67 L 6.19 -5.67 L 6.19 0 Z M 6.19 -11.55 L 6.19 -9.86 L 20.92 -9.86 L 20.92 -18.92 L 13.55 -18.92 Q 13.36 -18.92 12.74 -18.86 Q 12.12 -18.8 11.3 -18.58 Q 10.49 -18.35 9.59 -17.89 Q 8.69 -17.42 7.93 -16.6 Q 7.17 -15.77 6.68 -14.54 Q 6.19 -13.31 6.19 -11.55 L 6.19 -11.55 Z M 39.82 -16.27 L 39.82 -16.27 Q 39.82 -18.16 40.48 -19.46 Q 41.15 -20.75 42.16 -21.57 Q 43.17 -22.38 44.34 -22.74 Q 45.52 -23.11 46.54 -23.11 L 46.54 -23.11 L 60.8 -23.11 L 60.8 -18.92 L 46.54 -18.92 Q 45.34 -18.92 44.67 -18.19 Q 44.01 -17.47 44.01 -16.27 L 44.01 -16.27 Q 44.01 -15.07 44.67 -14.36 Q 45.34 -13.66 46.54 -13.66 L 46.54 -13.66 L 56.17 -13.66 L 56.2 -13.66 Q 56.88 -13.65 57.64 -13.48 Q 58.39 -13.31 59.14 -12.96 Q 59.89 -12.6 60.57 -12.06 Q 61.25 -11.52 61.77 -10.76 Q 62.29 -10.01 62.6 -9.02 Q 62.91 -8.04 62.91 -6.8 L 62.91 -6.8 Q 62.91 -5.56 62.59 -4.57 Q 62.28 -3.58 61.76 -2.82 Q 61.25 -2.06 60.55 -1.53 Q 59.86 -1 59.12 -0.66 Q 58.38 -0.32 57.61 -0.16 Q 56.85 0 56.17 0 L 56.17 0 L 40.01 0 L 40.01 -4.19 L 56.17 -4.19 Q 57.38 -4.19 58.05 -4.9 Q 58.72 -5.61 58.72 -6.8 L 58.72 -6.8 Q 58.72 -7.38 58.54 -7.86 Q 58.36 -8.35 58.03 -8.7 Q 57.7 -9.06 57.23 -9.25 Q 56.75 -9.44 56.17 -9.44 L 56.17 -9.44 L 46.54 -9.44 Q 45.52 -9.44 44.34 -9.8 Q 43.17 -10.17 42.16 -10.97 Q 41.15 -11.78 40.48 -13.08 Q 39.82 -14.39 39.82 -16.27 Z M 65.66 -7.75 L 65.66 -7.75 L 65.66 -17.42 L 69.85 -17.42 L 69.85 -7.75 Q 69.85 -6.93 70.13 -6.28 Q 70.42 -5.62 70.9 -5.16 Q 71.38 -4.69 72.03 -4.44 Q 72.69 -4.19 73.44 -4.19 L 73.44 -4.19 L 80.78 -4.19 L 80.78 -17.42 L 84.97 -17.42 L 84.97 -2.11 Q 84.97 -1.66 84.8 -1.27 Q 84.64 -0.89 84.36 -0.6 Q 84.08 -0.32 83.7 -0.16 Q 83.32 0 82.89 0 L 82.89 0 L 73.41 0 Q 72.64 0 71.76 -0.18 Q 70.88 -0.35 70.03 -0.75 Q 69.17 -1.14 68.38 -1.75 Q 67.58 -2.35 66.98 -3.21 Q 66.39 -4.08 66.02 -5.2 Q 65.66 -6.33 65.66 -7.75 Z M 87.79 -5.77 L 87.79 -5.77 Q 87.79 -6.64 88.09 -7.65 Q 88.4 -8.67 89.08 -9.53 Q 89.77 -10.39 90.87 -10.97 Q 91.97 -11.55 93.55 -11.55 L 93.55 -11.55 L 101.11 -11.55 L 101.11 -7.56 L 93.55 -7.56 Q 92.7 -7.56 92.23 -7.03 Q 91.77 -6.51 91.77 -5.74 L 91.77 -5.74 Q 91.77 -4.91 92.3 -4.46 Q 92.84 -4 93.59 -4 L 93.59 -4 L 101.11 -4 Q 101.96 -4 102.43 -4.51 Q 102.9 -5.03 102.9 -5.8 L 102.9 -5.8 L 102.9 -11.65 Q 102.9 -12.47 102.39 -12.96 Q 101.88 -13.44 101.11 -13.44 L 101.11 -13.44 L 91.91 -13.44 L 91.91 -17.42 L 101.11 -17.42 Q 101.98 -17.42 102.99 -17.11 Q 104 -16.81 104.86 -16.12 Q 105.72 -15.44 106.3 -14.33 Q 106.88 -13.23 106.88 -11.65 L 106.88 -11.65 L 106.88 -5.77 Q 106.88 -4.9 106.57 -3.89 Q 106.27 -2.88 105.58 -2.02 Q 104.9 -1.16 103.79 -0.58 Q 102.69 0 101.11 0 L 101.11 0 L 93.55 0 Q 92.68 0 91.68 -0.31 Q 90.67 -0.61 89.81 -1.3 Q 88.95 -1.98 88.37 -3.09 Q 87.79 -4.19 87.79 -5.77 Z M 121.62 -2.11 L 121.62 -2.11 L 121.62 -21 Q 121.62 -21.43 121.78 -21.82 Q 121.95 -22.2 122.23 -22.49 Q 122.51 -22.78 122.9 -22.95 Q 123.28 -23.11 123.73 -23.11 L 123.73 -23.11 L 135.05 -23.11 Q 137.12 -23.11 138.9 -22.38 Q 140.67 -21.66 141.96 -20.38 Q 143.25 -19.09 143.98 -17.31 Q 144.71 -15.53 144.71 -13.44 L 144.71 -13.44 L 144.71 -9.67 Q 144.71 -7.56 143.98 -5.78 Q 143.25 -4.01 141.96 -2.73 Q 140.67 -1.45 138.9 -0.73 Q 137.12 0 135.05 0 L 135.05 0 L 123.73 0 Q 123.28 0 122.9 -0.16 Q 122.51 -0.32 122.23 -0.6 Q 121.95 -0.89 121.78 -1.27 Q 121.62 -1.66 121.62 -2.11 Z M 125.81 -18.92 L 125.81 -4.19 L 135.05 -4.19 Q 136.27 -4.19 137.28 -4.58 Q 138.28 -4.98 139.01 -5.7 Q 139.73 -6.41 140.13 -7.42 Q 140.52 -8.43 140.52 -9.67 L 140.52 -9.67 L 140.52 -13.44 Q 140.52 -14.66 140.13 -15.68 Q 139.73 -16.69 139.01 -17.41 Q 138.28 -18.13 137.28 -18.52 Q 136.27 -18.92 135.05 -18.92 L 135.05 -18.92 L 125.81 -18.92 Z M 152.61 0 L 148.42 0 L 148.42 -17.42 L 152.61 -17.42 L 152.61 0 Z M 152.61 -21 L 148.42 -21 L 148.42 -24.78 L 152.61 -24.78 L 152.61 -21 Z M 156.62 -2.05 L 156.62 -2.05 L 156.62 -17.42 L 160.81 -17.42 L 160.81 -4.32 Q 162.34 -4.32 163.75 -4.98 Q 165.16 -5.64 166.42 -6.73 Q 167.67 -7.81 168.75 -9.2 Q 169.82 -10.59 170.66 -12.04 Q 171.49 -13.5 172.08 -14.9 Q 172.67 -16.31 172.96 -17.42 L 172.96 -17.42 L 177.41 -17.42 Q 176.7 -15.21 175.75 -13.07 Q 174.8 -10.92 173.56 -8.98 Q 172.33 -7.04 170.81 -5.39 Q 169.29 -3.74 167.44 -2.54 Q 165.6 -1.34 163.43 -0.65 Q 161.26 0.03 158.73 0.03 L 158.73 0.03 Q 158.3 0.03 157.91 -0.13 Q 157.52 -0.29 157.23 -0.57 Q 156.94 -0.85 156.78 -1.23 Q 156.62 -1.61 156.62 -2.05 Z M 178.55 -5.77 L 178.55 -5.77 L 178.55 -11.65 Q 178.55 -12.52 178.86 -13.53 Q 179.16 -14.53 179.85 -15.4 Q 180.53 -16.26 181.64 -16.84 Q 182.74 -17.42 184.32 -17.42 L 184.32 -17.42 L 191.88 -17.42 Q 192.75 -17.42 193.75 -17.11 Q 194.76 -16.81 195.62 -16.12 Q 196.49 -15.44 197.07 -14.33 Q 197.65 -13.23 197.65 -11.65 L 197.65 -11.65 Q 197.65 -10.78 197.34 -9.77 Q 197.03 -8.77 196.35 -7.9 Q 195.66 -7.04 194.56 -6.46 Q 193.46 -5.88 191.88 -5.88 L 191.88 -5.88 L 184.32 -5.88 L 184.32 -9.86 L 191.88 -9.86 Q 192.73 -9.86 193.2 -10.39 Q 193.67 -10.91 193.67 -11.68 L 193.67 -11.68 Q 193.67 -12.5 193.14 -12.97 Q 192.62 -13.44 191.88 -13.44 L 191.88 -13.44 L 184.32 -13.44 Q 183.47 -13.44 183 -12.91 Q 182.53 -12.39 182.53 -11.62 L 182.53 -11.62 L 182.53 -5.77 Q 182.53 -4.93 183.05 -4.46 Q 183.58 -4 184.35 -4 L 184.35 -4 L 191.88 -4 L 191.88 0 L 184.32 0 Q 183.45 0 182.44 -0.31 Q 181.44 -0.61 180.57 -1.3 Q 179.71 -1.98 179.13 -3.09 Q 178.55 -4.19 178.55 -5.77 Z M 204.56 0 L 200.37 0 L 200.37 -11.55 Q 200.37 -12.63 200.64 -13.49 Q 200.92 -14.34 201.38 -14.99 Q 201.83 -15.65 202.43 -16.11 Q 203.03 -16.56 203.68 -16.85 Q 204.33 -17.14 205 -17.28 Q 205.67 -17.42 206.25 -17.42 L 206.25 -17.42 L 215.71 -17.42 L 215.71 -13.23 L 206.28 -13.23 Q 205.43 -13.23 204.99 -12.8 Q 204.56 -12.38 204.56 -11.55 L 204.56 -11.55 L 204.56 0 Z M 217.87 -12.38 L 217.87 -12.38 Q 217.87 -13.78 218.37 -14.74 Q 218.87 -15.69 219.62 -16.29 Q 220.38 -16.89 221.27 -17.15 Q 222.15 -17.42 222.93 -17.42 L 222.93 -17.42 L 233.22 -17.42 L 233.22 -13.23 L 222.96 -13.23 Q 222.64 -13.23 222.45 -13.16 Q 222.27 -13.08 222.18 -12.96 Q 222.09 -12.84 222.07 -12.71 Q 222.06 -12.57 222.06 -12.44 L 222.06 -12.44 Q 222.07 -12.18 222.15 -12.04 Q 222.23 -11.89 222.36 -11.83 Q 222.48 -11.76 222.63 -11.75 Q 222.78 -11.75 222.93 -11.75 L 222.93 -11.75 L 229.42 -11.75 Q 231.03 -11.75 232.16 -11.17 Q 233.29 -10.59 233.98 -9.71 Q 234.67 -8.83 234.99 -7.8 Q 235.3 -6.77 235.3 -5.88 L 235.3 -5.88 Q 235.3 -4.8 235.03 -3.94 Q 234.75 -3.08 234.3 -2.43 Q 233.85 -1.77 233.26 -1.31 Q 232.66 -0.85 232.01 -0.56 Q 231.35 -0.27 230.69 -0.14 Q 230.02 0 229.42 0 L 229.42 0 L 218.08 0 L 218.08 -4.19 L 229.39 -4.19 Q 230.24 -4.19 230.68 -4.62 Q 231.11 -5.06 231.11 -5.88 L 231.11 -5.88 Q 231.03 -7.56 229.42 -7.56 L 229.42 -7.56 L 222.93 -7.56 Q 221.54 -7.56 220.57 -8.04 Q 219.61 -8.52 219 -9.25 Q 218.4 -9.97 218.13 -10.81 Q 217.87 -11.65 217.87 -12.38 Z M 237.12 -5.77 L 237.12 -5.77 Q 237.12 -6.64 237.43 -7.65 Q 237.74 -8.67 238.42 -9.53 Q 239.1 -10.39 240.21 -10.97 Q 241.31 -11.55 242.89 -11.55 L 242.89 -11.55 L 250.45 -11.55 L 250.45 -7.56 L 242.89 -7.56 Q 242.04 -7.56 241.57 -7.03 Q 241.1 -6.51 241.1 -5.74 L 241.1 -5.74 Q 241.1 -4.91 241.64 -4.46 Q 242.18 -4 242.92 -4 L 242.92 -4 L 250.45 -4 Q 251.3 -4 251.77 -4.51 Q 252.24 -5.03 252.24 -5.8 L 252.24 -5.8 L 252.24 -11.65 Q 252.24 -12.47 251.73 -12.96 Q 251.22 -13.44 250.45 -13.44 L 250.45 -13.44 L 241.25 -13.44 L 241.25 -17.42 L 250.45 -17.42 Q 251.32 -17.42 252.33 -17.11 Q 253.33 -16.81 254.2 -16.12 Q 255.06 -15.44 255.64 -14.33 Q 256.22 -13.23 256.22 -11.65 L 256.22 -11.65 L 256.22 -5.77 Q 256.22 -4.9 255.91 -3.89 Q 255.6 -2.88 254.92 -2.02 Q 254.24 -1.16 253.13 -0.58 Q 252.03 0 250.45 0 L 250.45 0 L 242.89 0 Q 242.02 0 241.01 -0.31 Q 240.01 -0.61 239.15 -1.3 Q 238.28 -1.98 237.7 -3.09 Q 237.12 -4.19 237.12 -5.77 Z M 243.17 -19.79 L 240.31 -19.79 Q 240.31 -21.16 240.64 -22.2 Q 240.97 -23.24 241.53 -23.94 Q 242.09 -24.64 242.82 -24.98 Q 243.55 -25.33 244.37 -25.33 L 244.37 -25.33 Q 245.13 -25.33 245.69 -25.02 Q 246.24 -24.72 246.73 -24.36 Q 247.21 -23.99 247.67 -23.69 Q 248.13 -23.4 248.71 -23.4 L 248.71 -23.4 Q 249.19 -23.4 249.47 -23.64 Q 249.76 -23.88 249.9 -24.19 Q 250.05 -24.51 250.09 -24.83 Q 250.14 -25.15 250.16 -25.33 L 250.16 -25.33 L 252.99 -25.33 Q 252.99 -23.78 252.67 -22.72 Q 252.35 -21.66 251.8 -21 Q 251.25 -20.35 250.52 -20.07 Q 249.79 -19.79 248.97 -19.79 L 248.97 -19.79 Q 248.1 -19.79 247.5 -20.09 Q 246.9 -20.4 246.44 -20.76 Q 245.97 -21.12 245.55 -21.43 Q 245.13 -21.74 244.62 -21.74 L 244.62 -21.74 Q 244.13 -21.74 243.85 -21.5 Q 243.57 -21.25 243.42 -20.92 Q 243.28 -20.59 243.23 -20.27 Q 243.18 -19.95 243.17 -19.79 L 243.17 -19.79 Z M 259.44 -5.88 L 259.44 -5.88 L 259.44 -11.55 Q 259.44 -13.16 260.03 -14.28 Q 260.62 -15.4 261.49 -16.11 Q 262.37 -16.81 263.4 -17.11 Q 264.44 -17.42 265.31 -17.42 L 265.31 -17.42 L 272.86 -17.42 Q 274.47 -17.42 275.6 -16.84 Q 276.73 -16.26 277.42 -15.38 Q 278.12 -14.5 278.43 -13.47 Q 278.74 -12.44 278.74 -11.55 L 278.74 -11.55 L 278.74 -5.88 Q 278.74 -4.8 278.47 -3.94 Q 278.2 -3.08 277.74 -2.43 Q 277.29 -1.77 276.7 -1.31 Q 276.1 -0.85 275.45 -0.56 Q 274.8 -0.27 274.13 -0.14 Q 273.46 0 272.86 0 L 272.86 0 L 265.31 0 Q 264.44 0 263.4 -0.31 Q 262.37 -0.61 261.49 -1.31 Q 260.62 -2.01 260.03 -3.13 Q 259.44 -4.25 259.44 -5.88 Z M 263.63 -11.55 L 263.63 -5.88 Q 263.63 -5.06 264.06 -4.62 Q 264.5 -4.19 265.34 -4.19 L 265.34 -4.19 L 272.86 -4.19 Q 273.72 -4.19 274.14 -4.62 Q 274.55 -5.06 274.55 -5.88 L 274.55 -5.88 L 274.55 -11.52 Q 274.55 -12.39 274.12 -12.81 Q 273.68 -13.23 272.86 -13.23 L 272.86 -13.23 L 265.34 -13.23 Q 264.5 -13.23 264.06 -12.8 Q 263.63 -12.38 263.63 -11.55 L 263.63 -11.55 Z M 293.2 -5.88 L 293.2 -5.88 L 293.2 -17.23 Q 293.2 -17.81 293.33 -18.47 Q 293.47 -19.14 293.76 -19.8 Q 294.05 -20.45 294.52 -21.04 Q 294.99 -21.64 295.64 -22.1 Q 296.29 -22.56 297.15 -22.83 Q 298 -23.11 299.08 -23.11 L 299.08 -23.11 L 316.11 -23.11 L 316.11 -18.92 L 299.08 -18.92 Q 298.26 -18.92 297.82 -18.48 Q 297.39 -18.05 297.39 -17.19 L 297.39 -17.19 L 297.39 -5.88 Q 297.39 -5.08 297.83 -4.63 Q 298.27 -4.19 299.08 -4.19 L 299.08 -4.19 L 312.11 -4.19 L 312.11 -9.44 L 300.96 -9.44 L 300.96 -13.66 L 314.19 -13.66 Q 314.64 -13.66 315.03 -13.49 Q 315.42 -13.33 315.7 -13.04 Q 315.98 -12.75 316.14 -12.37 Q 316.3 -11.99 316.3 -11.55 L 316.3 -11.55 L 316.3 -2.11 Q 316.3 -1.66 316.14 -1.27 Q 315.98 -0.89 315.7 -0.6 Q 315.42 -0.32 315.03 -0.16 Q 314.64 0 314.19 0 L 314.19 0 L 299.08 0 Q 298.5 0 297.83 -0.14 Q 297.16 -0.27 296.51 -0.56 Q 295.86 -0.85 295.26 -1.31 Q 294.66 -1.77 294.2 -2.43 Q 293.75 -3.08 293.47 -3.94 Q 293.2 -4.8 293.2 -5.88 Z M 319.09 -5.77 L 319.09 -5.77 Q 319.09 -6.64 319.4 -7.65 Q 319.7 -8.67 320.39 -9.53 Q 321.07 -10.39 322.18 -10.97 Q 323.28 -11.55 324.86 -11.55 L 324.86 -11.55 L 332.42 -11.55 L 332.42 -7.56 L 324.86 -7.56 Q 324.01 -7.56 323.54 -7.03 Q 323.07 -6.51 323.07 -5.74 L 323.07 -5.74 Q 323.07 -4.91 323.61 -4.46 Q 324.15 -4 324.89 -4 L 324.89 -4 L 332.42 -4 Q 333.27 -4 333.74 -4.51 Q 334.21 -5.03 334.21 -5.8 L 334.21 -5.8 L 334.21 -11.65 Q 334.21 -12.47 333.7 -12.96 Q 333.19 -13.44 332.42 -13.44 L 332.42 -13.44 L 323.22 -13.44 L 323.22 -17.42 L 332.42 -17.42 Q 333.29 -17.42 334.29 -17.11 Q 335.3 -16.81 336.16 -16.12 Q 337.03 -15.44 337.61 -14.33 Q 338.19 -13.23 338.19 -11.65 L 338.19 -11.65 L 338.19 -5.77 Q 338.19 -4.9 337.88 -3.89 Q 337.57 -2.88 336.89 -2.02 Q 336.2 -1.16 335.1 -0.58 Q 334 0 332.42 0 L 332.42 0 L 324.86 0 Q 323.99 0 322.98 -0.31 Q 321.98 -0.61 321.11 -1.3 Q 320.25 -1.98 319.67 -3.09 Q 319.09 -4.19 319.09 -5.77 Z M 345.86 0 L 341.67 0 L 341.67 -11.55 Q 341.67 -12.63 341.94 -13.49 Q 342.21 -14.34 342.67 -14.99 Q 343.13 -15.65 343.73 -16.11 Q 344.32 -16.56 344.98 -16.85 Q 345.63 -17.14 346.3 -17.28 Q 346.97 -17.42 347.55 -17.42 L 347.55 -17.42 L 357.01 -17.42 L 357.01 -13.23 L 347.58 -13.23 Q 346.73 -13.23 346.29 -12.8 Q 345.86 -12.38 345.86 -11.55 L 345.86 -11.55 L 345.86 0 Z M 357.3 -5.77 L 357.3 -5.77 Q 357.3 -6.64 357.6 -7.65 Q 357.91 -8.67 358.59 -9.53 Q 359.28 -10.39 360.38 -10.97 Q 361.49 -11.55 363.06 -11.55 L 363.06 -11.55 L 370.62 -11.55 L 370.62 -7.56 L 363.06 -7.56 Q 362.21 -7.56 361.74 -7.03 Q 361.28 -6.51 361.28 -5.74 L 361.28 -5.74 Q 361.28 -4.91 361.82 -4.46 Q 362.36 -4 363.1 -4 L 363.1 -4 L 370.62 -4 Q 371.48 -4 371.94 -4.51 Q 372.41 -5.03 372.41 -5.8 L 372.41 -5.8 L 372.41 -11.65 Q 372.41 -12.47 371.9 -12.96 Q 371.4 -13.44 370.62 -13.44 L 370.62 -13.44 L 361.42 -13.44 L 361.42 -17.42 L 370.62 -17.42 Q 371.49 -17.42 372.5 -17.11 Q 373.51 -16.81 374.37 -16.12 Q 375.23 -15.44 375.81 -14.33 Q 376.39 -13.23 376.39 -11.65 L 376.39 -11.65 L 376.39 -5.77 Q 376.39 -4.9 376.08 -3.89 Q 375.78 -2.88 375.09 -2.02 Q 374.41 -1.16 373.3 -0.58 Q 372.2 0 370.62 0 L 370.62 0 L 363.06 0 Q 362.19 0 361.19 -0.31 Q 360.18 -0.61 359.32 -1.3 Q 358.46 -1.98 357.88 -3.09 Q 357.3 -4.19 357.3 -5.77 Z M 384.16 0 L 379.97 0 L 379.97 -15.34 Q 379.97 -15.77 380.13 -16.15 Q 380.29 -16.53 380.58 -16.81 Q 380.87 -17.1 381.26 -17.26 Q 381.64 -17.42 382.08 -17.42 L 382.08 -17.42 L 391.52 -17.42 Q 392.31 -17.42 393.19 -17.24 Q 394.07 -17.06 394.93 -16.67 Q 395.79 -16.27 396.57 -15.67 Q 397.35 -15.07 397.96 -14.2 Q 398.56 -13.34 398.92 -12.21 Q 399.27 -11.09 399.27 -9.67 L 399.27 -9.67 L 399.27 0 L 395.08 0 L 395.08 -9.67 Q 395.08 -10.49 394.8 -11.14 Q 394.52 -11.79 394.03 -12.26 Q 393.55 -12.73 392.9 -12.98 Q 392.25 -13.23 391.49 -13.23 L 391.49 -13.23 L 384.16 -13.23 L 384.16 0 Z M 406.72 -13.23 L 401.27 -13.23 L 401.27 -17.42 L 406.72 -17.42 L 406.72 -23.11 L 410.95 -23.11 L 410.95 -17.42 L 418.27 -17.42 L 418.27 -13.23 L 410.95 -13.23 L 410.95 0 L 406.72 0 L 406.72 -13.23 Z M 425.28 0 L 421.09 0 L 421.09 -17.42 L 425.28 -17.42 L 425.28 0 Z M 425.28 -21 L 421.09 -21 L 421.09 -24.78 L 425.28 -24.78 L 425.28 -21 Z M 429.1 -5.88 L 429.1 -5.88 L 429.1 -11.55 Q 429.1 -13.16 429.68 -14.28 Q 430.27 -15.4 431.15 -16.11 Q 432.03 -16.81 433.06 -17.11 Q 434.09 -17.42 434.96 -17.42 L 434.96 -17.42 L 442.52 -17.42 L 442.52 -13.23 L 434.99 -13.23 Q 434.16 -13.23 433.72 -12.8 Q 433.29 -12.38 433.29 -11.55 L 433.29 -11.55 L 433.29 -5.91 Q 433.29 -5.06 433.71 -4.62 Q 434.14 -4.19 434.96 -4.19 L 434.96 -4.19 L 442.52 -4.19 Q 443.37 -4.19 443.79 -4.62 Q 444.21 -5.06 444.21 -5.88 L 444.21 -5.88 L 444.21 -24.78 L 448.4 -24.78 L 448.4 -5.88 Q 448.4 -4.8 448.13 -3.94 Q 447.85 -3.08 447.4 -2.43 Q 446.95 -1.77 446.35 -1.31 Q 445.76 -0.85 445.11 -0.56 Q 444.45 -0.27 443.78 -0.14 Q 443.12 0 442.52 0 L 442.52 0 L 434.96 0 Q 433.88 0 433.03 -0.27 Q 432.17 -0.55 431.52 -1.01 Q 430.87 -1.47 430.41 -2.06 Q 429.95 -2.66 429.66 -3.31 Q 429.37 -3.96 429.23 -4.63 Q 429.1 -5.3 429.1 -5.88 Z M 451.28 -5.77 L 451.28 -5.77 Q 451.28 -6.64 451.59 -7.65 Q 451.9 -8.67 452.58 -9.53 Q 453.27 -10.39 454.37 -10.97 Q 455.47 -11.55 457.05 -11.55 L 457.05 -11.55 L 464.61 -11.55 L 464.61 -7.56 L 457.05 -7.56 Q 456.2 -7.56 455.73 -7.03 Q 455.26 -6.51 455.26 -5.74 L 455.26 -5.74 Q 455.26 -4.91 455.8 -4.46 Q 456.34 -4 457.09 -4 L 457.09 -4 L 464.61 -4 Q 465.46 -4 465.93 -4.51 Q 466.4 -5.03 466.4 -5.8 L 466.4 -5.8 L 466.4 -11.65 Q 466.4 -12.47 465.89 -12.96 Q 465.38 -13.44 464.61 -13.44 L 464.61 -13.44 L 455.41 -13.44 L 455.41 -17.42 L 464.61 -17.42 Q 465.48 -17.42 466.49 -17.11 Q 467.49 -16.81 468.36 -16.12 Q 469.22 -15.44 469.8 -14.33 Q 470.38 -13.23 470.38 -11.65 L 470.38 -11.65 L 470.38 -5.77 Q 470.38 -4.9 470.07 -3.89 Q 469.77 -2.88 469.08 -2.02 Q 468.4 -1.16 467.29 -0.58 Q 466.19 0 464.61 0 L 464.61 0 L 457.05 0 Q 456.18 0 455.18 -0.31 Q 454.17 -0.61 453.31 -1.3 Q 452.44 -1.98 451.86 -3.09 Q 451.28 -4.19 451.28 -5.77 Z" stroke-linecap="round" />
</g>
<g transform="matrix(1.0597431592030269 0 0 1.0597431592030269 1084.4037397074353 539.274451109316)" id="logo-logo"  >
<g style=""  paint-order="stroke"   >
		<g transform="matrix(0.3833224065240303 0 0 0.3833224065240303 -114.56886488290502 -40.241265746073765)"  >
<g style=""  paint-order="stroke"   >
		<g transform="matrix(1 0 0 1 0 0)"  >
<path style="stroke: none; stroke-width: 1; stroke-dasharray: none; stroke-linecap: butt; stroke-dashoffset: 0; stroke-linejoin: miter; stroke-miterlimit: 4; fill: rgb(84,32,127); fill-rule: nonzero; opacity: 1;"  paint-order="stroke"  transform=" translate(-100, -100)" d="M 200 100 A 100 100 0 0 1 100 200 A 100 100 0 0 1 0 100 A 100 100 0 0 1 100 0 A 100 100 0 0 1 200 100 Z" stroke-linecap="round" />
</g>
</g>
</g>
		<g transform="matrix(0.3994937231227864 0 0 0.39949372312278636 -65.7092062563658 -27.728766633185018)"  >
<g style=""  paint-order="stroke"   >
		<g transform="matrix(1 0 0 1 0 0)"  >
<path style="stroke: none; stroke-width: 1; stroke-dasharray: none; stroke-linecap: butt; stroke-dashoffset: 0; stroke-linejoin: miter; stroke-miterlimit: 4; fill: rgb(86,31,126); fill-rule: nonzero; opacity: 1;"  paint-order="stroke"  transform=" translate(-100, -100)" d="M 200 100 A 100 100 0 0 1 100 200 A 100 100 0 0 1 0 100 A 100 100 0 0 1 100 0 A 100 100 0 0 1 200 100 Z" stroke-linecap="round" />
</g>
</g>
</g>
		<g transform="matrix(0.45414712252766043 0 0 0.45414712252766043 -101.60078274731563 -84.4489465810257)"  >
<g style=""  paint-order="stroke"   >
		<g transform="matrix(1 0 0 1 0 0)"  >
<path style="stroke: none; stroke-width: 1; stroke-dasharray: none; stroke-linecap: butt; stroke-dashoffset: 0; stroke-linejoin: miter; stroke-miterlimit: 4; fill: rgb(55,45,141); fill-rule: nonzero; opacity: 1;"  paint-order="stroke"  transform=" translate(-100, -100)" d="M 200 100 A 100 100 0 0 1 100 200 A 100 100 0 0 1 0 100 A 100 100 0 0 1 100 0 A 100 100 0 0 1 200 100 Z" stroke-linecap="round" />
</g>
</g>
</g>
		<g transform="matrix(1.1017527443474824 0 0 -1.1017527443474824 -30.626480532930202 -58.948121306195134)"  >
<linearGradient id="SVGID_64121" gradientUnits="userSpaceOnUse" gradientTransform="matrix(186.79947 0 0 -186.79947 608.7121 344.09482)"  x1="0" y1="0" x2="1" y2="0">
<stop offset="0%" style="stop-color:rgb(46,49,145);stop-opacity: 1"/>
<stop offset="100%" style="stop-color:rgb(157,0,93);stop-opacity: 1"/>
</linearGradient>
<path style="stroke: none; stroke-width: 1; stroke-dasharray: none; stroke-linecap: butt; stroke-dashoffset: 0; stroke-linejoin: miter; stroke-miterlimit: 4; fill: url(#SVGID_64121); fill-rule: nonzero; opacity: 1;"  paint-order="stroke"  transform=" translate(-702.112, -344.09460140427325)" d="m 663.225 410.362 c -0.637 -0.03 -1.276 -0.055 -1.913 -0.074 v 0 c -4.468 -0.128 -8.948 0.015 -13.422 0.015 v 0 c -5.054 0 -10.113 -0.117 -15.162 0.033 v 0 c -4.965 0.148 -9.388 -1.38 -13.526 -3.892 v 0 c -0.578 -0.351 -1.141 -0.719 -1.696 -1.093 v 0 c -3.255 -2.192 -6.138 -4.779 -8.794 -7.601 v 0 c 6.409 -48.546 31.828 -91.092 68.539 -119.921 v 0 c 2.928 -0.002 5.854 -0.003 8.782 -0.005 v 0 h 0.001 c 0.567 -0.001 1.133 0 1.699 -0.001 v 0 h -0.018 c 12.786 -0.01 25.573 -0.016 38.359 -0.011 v 0 c 38.723 30.399 64.888 76.06 69.438 127.927 v 0 c -1.322 0.868 -2.681 1.638 -4.086 2.284 v 0 c -0.367 0.168 -0.738 0.328 -1.113 0.479 v 0 c -0.032 0.013 -0.065 0.027 -0.097 0.04 v 0 c -0.374 0.15 -0.751 0.292 -1.132 0.424 v 0 c -2.639 0.92 -5.442 1.415 -8.464 1.369 v 0 c -5.878 -0.09 -11.756 -0.078 -17.635 -0.066 v 0 c -4.633 0.009 -9.267 0.017 -13.901 -0.023 v 0 c -1.662 -0.014 -3.561 -0.247 -4.931 -1.073 v 0 c -0.628 -0.38 -1.248 -0.774 -1.863 -1.174 v 0 c -2.829 -1.841 -5.543 -3.874 -8.308 -5.821 v 0 c -2.672 -1.882 -5.239 -3.893 -8.79 -3.878 v 0 c -3.075 0.013 -6.149 0.018 -9.224 0.021 v 0 c -9.217 0.01 -18.435 -0.005 -27.653 0.08 v 0 c -1.641 0.016 -3.505 0.446 -4.869 1.311 v 0 c -3.38 2.14 -6.545 4.621 -9.765 7.009 v 0 c -2.932 2.173 -6 3.658 -9.753 3.658 v 0 c -0.231 0 -0.466 -0.005 -0.703 -0.017" stroke-linecap="round" />
</g>
		<g transform="matrix(1.1017527443474824 0 0 -1.1017527443474824 -57.29716009172171 -124.48632245764091)"  >
<linearGradient id="SVGID_64122" gradientUnits="userSpaceOnUse" gradientTransform="matrix(3.630362 0 0 -3.630362 676.08911 403.57959)"  x1="0" y1="0" x2="1" y2="0">
<stop offset="0%" style="stop-color:rgb(46,49,145);stop-opacity: 1"/>
<stop offset="100%" style="stop-color:rgb(157,0,93);stop-opacity: 1"/>
</linearGradient>
<path style="stroke: none; stroke-width: 1; stroke-dasharray: none; stroke-linecap: butt; stroke-dashoffset: 0; stroke-linejoin: miter; stroke-miterlimit: 4; fill: url(#SVGID_64122); fill-rule: nonzero; opacity: 1;"  paint-order="stroke"  transform=" translate(-677.9045000000001, -403.58)" d="m 679.72 402.241 c -1.222 0.875 -2.427 1.775 -3.631 2.678 v 0 c 1.204 -0.903 2.409 -1.803 3.631 -2.678" stroke-linecap="round" />
</g>
		<g transform="matrix(1.1017527443474824 0 0 -1.1017527443474824 29.807411876390177 -131.86365883379173)"  >
<linearGradient id="SVGID_64123" gradientUnits="userSpaceOnUse" gradientTransform="matrix(0.0064712 0 0 -0.0064712 756.96149 410.27628)"  x1="0" y1="0" x2="1" y2="0">
<stop offset="0%" style="stop-color:rgb(46,49,145);stop-opacity: 1"/>
<stop offset="100%" style="stop-color:rgb(157,0,93);stop-opacity: 1"/>
</linearGradient>
<path style="stroke: none; stroke-width: 1; stroke-dasharray: none; stroke-linecap: butt; stroke-dashoffset: 0; stroke-linejoin: miter; stroke-miterlimit: 4; fill: url(#SVGID_64123); fill-rule: nonzero; opacity: 1;"  paint-order="stroke"  transform=" translate(-756.9645, -410.276)" d="m 756.962 410.276 h 0.005 z" stroke-linecap="round" />
</g>
		<g transform="matrix(1.1017527443474824 0 0 -1.1017527443474824 -51.96026979810267 -120.82795247003514)"  >
<linearGradient id="SVGID_64124" gradientUnits="userSpaceOnUse" gradientTransform="matrix(3.6043477 0 0 -3.6043477 680.94666 400.25906)"  x1="0" y1="0" x2="1" y2="0">
<stop offset="0%" style="stop-color:rgb(46,49,145);stop-opacity: 1"/>
<stop offset="100%" style="stop-color:rgb(157,0,93);stop-opacity: 1"/>
</linearGradient>
<path style="stroke: none; stroke-width: 1; stroke-dasharray: none; stroke-linecap: butt; stroke-dashoffset: 0; stroke-linejoin: miter; stroke-miterlimit: 4; fill: url(#SVGID_64124); fill-rule: nonzero; opacity: 1;"  paint-order="stroke"  transform=" translate(-682.7485, -400.2595)" d="m 683.446 399.712 c 0.34 -0.216 0.712 -0.405 1.105 -0.567 v 0 c -0.393 0.162 -0.765 0.351 -1.105 0.567 v 0 c -0.846 0.535 -1.677 1.091 -2.5 1.662 v 0 c 0.823 -0.571 1.654 -1.128 2.5 -1.662" stroke-linecap="round" />
</g>
		<g transform="matrix(1.1017527443474824 0 0 -1.1017527443474824 -21.279761126258336 -118.69495915697848)"  >
<linearGradient id="SVGID_64125" gradientUnits="userSpaceOnUse" gradientTransform="matrix(16.894062 0 0 -16.894062 702.14874 398.32361)"  x1="0" y1="0" x2="1" y2="0">
<stop offset="0%" style="stop-color:rgb(46,49,145);stop-opacity: 1"/>
<stop offset="100%" style="stop-color:rgb(157,0,93);stop-opacity: 1"/>
</linearGradient>
<path style="stroke: none; stroke-width: 1; stroke-dasharray: none; stroke-linecap: butt; stroke-dashoffset: 0; stroke-linejoin: miter; stroke-miterlimit: 4; fill: url(#SVGID_64125); fill-rule: nonzero; opacity: 1;"  paint-order="stroke"  transform=" translate(-710.5954999999999, -398.3235)" d="m 715.968 398.321 c 1.025 -0.001 2.049 -0.004 3.075 -0.007 v 0 c -1.026 0.003 -2.05 0.006 -3.075 0.007 v 0 c -4.607 0.006 -9.213 0.004 -13.82 0.012 v 0 c 4.607 -0.008 9.213 -0.006 13.82 -0.012" stroke-linecap="round" />
</g>
		<g transform="matrix(1.1017527443474824 0 0 -1.1017527443474824 -42.76283788828965 -118.81229582425146)"  >
<linearGradient id="SVGID_64126" gradientUnits="userSpaceOnUse" gradientTransform="matrix(8.2640247 0 0 -8.2640247 686.9646 398.42999)"  x1="0" y1="0" x2="1" y2="0">
<stop offset="0%" style="stop-color:rgb(46,49,145);stop-opacity: 1"/>
<stop offset="100%" style="stop-color:rgb(157,0,93);stop-opacity: 1"/>
</linearGradient>
<path style="stroke: none; stroke-width: 1; stroke-dasharray: none; stroke-linecap: butt; stroke-dashoffset: 0; stroke-linejoin: miter; stroke-miterlimit: 4; fill: url(#SVGID_64126); fill-rule: nonzero; opacity: 1;"  paint-order="stroke"  transform=" translate(-691.0965000000001, -398.43)" d="m 688.315 398.401 c 2.305 -0.021 4.609 -0.036 6.913 -0.047 v 0 c -2.304 0.011 -4.608 0.026 -6.913 0.047 v 0 c -0.438 0.005 -0.893 0.041 -1.35 0.105 v 0 c 0.457 -0.064 0.912 -0.1 1.35 -0.105" stroke-linecap="round" />
</g>
		<g transform="matrix(1.1017527443474824 0 0 -1.1017527443474824 13.82153043228027 -129.45026944729858)"  >
<linearGradient id="SVGID_64127" gradientUnits="userSpaceOnUse" gradientTransform="matrix(2.0194132 0 0 -2.0194132 741.44513 408.08493)"  x1="0" y1="0" x2="1" y2="0">
<stop offset="0%" style="stop-color:rgb(46,49,145);stop-opacity: 1"/>
<stop offset="100%" style="stop-color:rgb(157,0,93);stop-opacity: 1"/>
</linearGradient>
<path style="stroke: none; stroke-width: 1; stroke-dasharray: none; stroke-linecap: butt; stroke-dashoffset: 0; stroke-linejoin: miter; stroke-miterlimit: 4; fill: url(#SVGID_64127); fill-rule: nonzero; opacity: 1;"  paint-order="stroke"  transform=" translate(-742.4549999999999, -408.0855)" d="m 742.29 407.999 c -0.284 -0.186 -0.562 -0.379 -0.845 -0.567 v 0 c 0.283 0.188 0.561 0.381 0.845 0.567 v 0 c 0.387 0.252 0.782 0.495 1.175 0.74 v 0 c -0.393 -0.245 -0.788 -0.488 -1.175 -0.74" stroke-linecap="round" />
</g>
		<g transform="matrix(0.7032451042476343 0 0 -0.7032451042476343 183.1867433012684 174.82751698632924)"  >
<linearGradient id="SVGID_64128" gradientUnits="userSpaceOnUse" gradientTransform="matrix(0.9007958 0 0 -0.9007958 793.55139 406.67044)"  x1="0" y1="0" x2="1" y2="0">
<stop offset="0%" style="stop-color:rgb(46,49,145);stop-opacity: 1"/>
<stop offset="100%" style="stop-color:rgb(157,0,93);stop-opacity: 1"/>
</linearGradient>
<path style="stroke: none; stroke-width: 1; stroke-dasharray: none; stroke-linecap: butt; stroke-dashoffset: 0; stroke-linejoin: miter; stroke-miterlimit: 4; fill: url(#SVGID_64128); fill-rule: nonzero; opacity: 1;"  paint-order="stroke"  transform=" translate(-794.0025, -406.67049999999995)" d="m 794.453 406.407 c -0.298 0.181 -0.6 0.357 -0.901 0.527 v 0 c 0.301 -0.17 0.602 -0.347 0.901 -0.527" stroke-linecap="round" />
</g>
		<g transform="matrix(0.7032451042476343 0 0 -0.7032451042476343 183.90545979780927 175.26599030882764)"  >
<linearGradient id="SVGID_64129" gradientUnits="userSpaceOnUse" gradientTransform="matrix(0.9711381 0 0 -0.9711381 794.53882 406.04739)"  x1="0" y1="0" x2="1" y2="0">
<stop offset="0%" style="stop-color:rgb(46,49,145);stop-opacity: 1"/>
<stop offset="100%" style="stop-color:rgb(157,0,93);stop-opacity: 1"/>
</linearGradient>
<path style="stroke: none; stroke-width: 1; stroke-dasharray: none; stroke-linecap: butt; stroke-dashoffset: 0; stroke-linejoin: miter; stroke-miterlimit: 4; fill: url(#SVGID_64129); fill-rule: nonzero; opacity: 1;"  paint-order="stroke"  transform=" translate(-795.0245, -406.047)" d="m 795.51 405.74 c -0.321 0.211 -0.644 0.416 -0.971 0.614 v 0 c 0.325 -0.198 0.65 -0.403 0.971 -0.614" stroke-linecap="round" />
</g>
		<g transform="matrix(1.1017527443474824 0 0 -1.1017527443474824 58.34280795498961 -131.82895362234478)"  >
<linearGradient id="SVGID_64130" gradientUnits="userSpaceOnUse" gradientTransform="matrix(2.130589 0 0 -2.130589 781.7995 410.24457)"  x1="0" y1="0" x2="1" y2="0">
<stop offset="0%" style="stop-color:rgb(46,49,145);stop-opacity: 1"/>
<stop offset="100%" style="stop-color:rgb(157,0,93);stop-opacity: 1"/>
</linearGradient>
<path style="stroke: none; stroke-width: 1; stroke-dasharray: none; stroke-linecap: butt; stroke-dashoffset: 0; stroke-linejoin: miter; stroke-miterlimit: 4; fill: url(#SVGID_64130); fill-rule: nonzero; opacity: 1;"  paint-order="stroke"  transform=" translate(-782.8644999999999, -410.2445)" d="m 783.93 410.165 c -0.698 0.083 -1.409 0.137 -2.131 0.159 v 0 c 0.722 -0.022 1.433 -0.076 2.131 -0.159" stroke-linecap="round" />
</g>
		<g transform="matrix(0.7032451042476343 0 0 -0.7032451042476343 180.7855128928146 173.62320974530505)"  >
<linearGradient id="SVGID_64131" gradientUnits="userSpaceOnUse" gradientTransform="matrix(0.6719729 0 0 -0.6719729 790.25159 408.38306)"  x1="0" y1="0" x2="1" y2="0">
<stop offset="0%" style="stop-color:rgb(46,49,145);stop-opacity: 1"/>
<stop offset="100%" style="stop-color:rgb(157,0,93);stop-opacity: 1"/>
</linearGradient>
<path style="stroke: none; stroke-width: 1; stroke-dasharray: none; stroke-linecap: butt; stroke-dashoffset: 0; stroke-linejoin: miter; stroke-miterlimit: 4; fill: url(#SVGID_64131); fill-rule: nonzero; opacity: 1;"  paint-order="stroke"  transform=" translate(-790.588, -408.38300000000004)" d="m 790.313 408.502 c 0.206 -0.083 0.408 -0.175 0.611 -0.263 v 0 c -0.203 0.088 -0.405 0.18 -0.611 0.263 v 0 l -0.061 0.025 z" stroke-linecap="round" />
</g>
		<g transform="matrix(0.7032451042476343 0 0 -0.7032451042476343 182.38785686284302 174.38236283534044)"  >
<linearGradient id="SVGID_64132" gradientUnits="userSpaceOnUse" gradientTransform="matrix(0.6939751 0 0 -0.6939751 792.52002 407.30353)"  x1="0" y1="0" x2="1" y2="0">
<stop offset="0%" style="stop-color:rgb(46,49,145);stop-opacity: 1"/>
<stop offset="100%" style="stop-color:rgb(157,0,93);stop-opacity: 1"/>
</linearGradient>
<path style="stroke: none; stroke-width: 1; stroke-dasharray: none; stroke-linecap: butt; stroke-dashoffset: 0; stroke-linejoin: miter; stroke-miterlimit: 4; fill: url(#SVGID_64132); fill-rule: nonzero; opacity: 1;"  paint-order="stroke"  transform=" translate(-792.8665000000001, -407.3035)" d="m 792.868 407.306 c -0.116 0.062 -0.232 0.124 -0.349 0.183 v 0 c 0.117 -0.059 0.233 -0.121 0.349 -0.183 m 0.346 -0.188 c -0.115 0.063 -0.23 0.126 -0.346 0.188 v 0 c 0.116 -0.063 0.231 -0.126 0.346 -0.188" stroke-linecap="round" />
</g>
		<g transform="matrix(1.1017527443474824 0 0 -1.1017527443474824 47.18315440749427 -131.8620062046752)"  >
<linearGradient id="SVGID_64133" gradientUnits="userSpaceOnUse" gradientTransform="matrix(7.8833866 0 0 -7.8833866 768.79413 410.27487)"  x1="0" y1="0" x2="1" y2="0">
<stop offset="0%" style="stop-color:rgb(46,49,145);stop-opacity: 1"/>
<stop offset="100%" style="stop-color:rgb(157,0,93);stop-opacity: 1"/>
</linearGradient>
<path style="stroke: none; stroke-width: 1; stroke-dasharray: none; stroke-linecap: butt; stroke-dashoffset: 0; stroke-linejoin: miter; stroke-miterlimit: 4; fill: url(#SVGID_64133); fill-rule: nonzero; opacity: 1;"  paint-order="stroke"  transform=" translate(-772.7355, -410.2745)" d="m 772.819 410.267 c 1.286 0.004 2.573 0.011 3.858 0.021 v 0 c -1.286 -0.01 -2.571 -0.017 -3.858 -0.021 m -3.472 -0.006 c 1.158 0 2.315 0.002 3.472 0.006 v 0 c -1.157 -0.004 -2.314 -0.006 -3.472 -0.006 m -0.077 0 c -0.159 0 -0.318 0 -0.476 0 v 0 c 0.158 0 0.317 0 0.476 0 m 0 0 c 0.026 0 0.052 0 0.077 0 v 0 c -0.025 0 -0.051 0 -0.077 0" stroke-linecap="round" />
</g>
		<g transform="matrix(1.1017527443474824 0 0 -1.1017527443474824 -130.695377043779 -120.90232078027864)"  >
<linearGradient id="SVGID_64134" gradientUnits="userSpaceOnUse" gradientTransform="matrix(0.9046138 0 0 -0.9046138 610.8327 400.32703)"  x1="0" y1="0" x2="1" y2="0">
<stop offset="0%" style="stop-color:rgb(46,49,145);stop-opacity: 1"/>
<stop offset="100%" style="stop-color:rgb(157,0,93);stop-opacity: 1"/>
</linearGradient>
<path style="stroke: none; stroke-width: 1; stroke-dasharray: none; stroke-linecap: butt; stroke-dashoffset: 0; stroke-linejoin: miter; stroke-miterlimit: 4; fill: url(#SVGID_64134); fill-rule: nonzero; opacity: 1;"  paint-order="stroke"  transform=" translate(-611.285, -400.327)" d="m 611.289 400.336 c 0.149 0.14 0.298 0.28 0.448 0.419 v 0 c -0.15 -0.139 -0.299 -0.279 -0.448 -0.419 m -0.456 -0.437 c 0.151 0.146 0.304 0.292 0.456 0.437 v 0 c -0.153 -0.145 -0.305 -0.291 -0.456 -0.437" stroke-linecap="round" />
</g>
		<g transform="matrix(1.1017527443474824 0 0 -1.1017527443474824 -128.44284355796054 -122.92734232438931)"  >
<linearGradient id="SVGID_64135" gradientUnits="userSpaceOnUse" gradientTransform="matrix(0.6139907 0 0 -0.6139907 613.02277 402.16458)"  x1="0" y1="0" x2="1" y2="0">
<stop offset="0%" style="stop-color:rgb(46,49,145);stop-opacity: 1"/>
<stop offset="100%" style="stop-color:rgb(157,0,93);stop-opacity: 1"/>
</linearGradient>
<path style="stroke: none; stroke-width: 1; stroke-dasharray: none; stroke-linecap: butt; stroke-dashoffset: 0; stroke-linejoin: miter; stroke-miterlimit: 4; fill: url(#SVGID_64135); fill-rule: nonzero; opacity: 1;"  paint-order="stroke"  transform=" translate(-613.3295, -402.16499999999996)" d="m 613.022 401.905 c 0.204 0.174 0.409 0.347 0.615 0.52 v 0 c -0.206 -0.173 -0.411 -0.346 -0.615 -0.52" stroke-linecap="round" />
</g>
		<g transform="matrix(1.1017527443474824 0 0 -1.1017527443474824 -126.15229960246211 -124.77553255303218)"  >
<linearGradient id="SVGID_64136" gradientUnits="userSpaceOnUse" gradientTransform="matrix(0.3279621 0 0 -0.3279621 615.24432 403.84253)"  x1="0" y1="0" x2="1" y2="0">
<stop offset="0%" style="stop-color:rgb(46,49,145);stop-opacity: 1"/>
<stop offset="100%" style="stop-color:rgb(157,0,93);stop-opacity: 1"/>
</linearGradient>
<path style="stroke: none; stroke-width: 1; stroke-dasharray: none; stroke-linecap: butt; stroke-dashoffset: 0; stroke-linejoin: miter; stroke-miterlimit: 4; fill: url(#SVGID_64136); fill-rule: nonzero; opacity: 1;"  paint-order="stroke"  transform=" translate(-615.4085, -403.84250000000003)" d="m 615.245 403.72 c 0.107 0.082 0.218 0.163 0.327 0.245 v 0 c -0.109 -0.082 -0.22 -0.162 -0.327 -0.245" stroke-linecap="round" />
</g>
		<g transform="matrix(1.1017527443474824 0 0 -1.1017527443474824 -50.550577161710066 14.064593907776583)"  >
<linearGradient id="SVGID_64137" gradientUnits="userSpaceOnUse" gradientTransform="matrix(4.012424 0 0 -4.012424 682.02167 277.82495)"  x1="0" y1="0" x2="1" y2="0">
<stop offset="0%" style="stop-color:rgb(46,49,145);stop-opacity: 1"/>
<stop offset="100%" style="stop-color:rgb(157,0,93);stop-opacity: 1"/>
</linearGradient>
<path style="stroke: none; stroke-width: 1; stroke-dasharray: none; stroke-linecap: butt; stroke-dashoffset: 0; stroke-linejoin: miter; stroke-miterlimit: 4; fill: url(#SVGID_64137); fill-rule: nonzero; opacity: 1;"  paint-order="stroke"  transform=" translate(-684.028, -277.82500000000005)" d="m 686.033 277.824 h 0.001 h -0.001 c -1.336 0.001 -2.674 0.002 -4.011 0.002 v 0 c 1.337 0 2.675 -0.001 4.011 -0.002" stroke-linecap="round" />
</g>
		<g transform="matrix(1.1017527443474824 0 0 -1.1017527443474824 -121.03239349301214 -23.853400311338135)"  >
<linearGradient id="SVGID_64138" gradientUnits="userSpaceOnUse" gradientTransform="matrix(114.39079 0 0 -114.39079 562.85974 312.24115)"  x1="0" y1="0" x2="1" y2="0">
<stop offset="0%" style="stop-color:rgb(46,49,145);stop-opacity: 1"/>
<stop offset="100%" style="stop-color:rgb(157,0,93);stop-opacity: 1"/>
</linearGradient>
<path style="stroke: none; stroke-width: 1; stroke-dasharray: none; stroke-linecap: butt; stroke-dashoffset: 0; stroke-linejoin: miter; stroke-miterlimit: 4; fill: url(#SVGID_64138); fill-rule: nonzero; opacity: 1;"  paint-order="stroke"  transform=" translate(-620.055555462959, -312.2410651413415)" d="m 610.369 399.443 c 0.038 0.037 0.076 0.075 0.114 0.112 v 0 c -0.038 -0.037 -0.076 -0.075 -0.114 -0.112 m -0.074 -0.072 c 0.025 0.024 0.049 0.048 0.074 0.072 v 0 c -0.025 -0.024 -0.049 -0.048 -0.074 -0.072 m -0.055 -0.055 c 0.019 0.018 0.037 0.036 0.055 0.055 v 0 c -0.018 -0.018 -0.036 -0.037 -0.055 -0.055 m -0.045 -0.045 c 0.015 0.015 0.03 0.03 0.045 0.045 v 0 c -0.015 -0.015 -0.03 -0.03 -0.045 -0.045 m -1.483 -1.521 c 0 0 0 0 0 0 v 0 c 0.487 0.515 0.981 1.022 1.483 1.521 v 0 c -0.502 -0.498 -0.997 -1.005 -1.483 -1.521 m -6.014 -7.181 c -5.967 -7.888 -10.908 -16.399 -15.283 -25.267 v 0 c -6.336 -12.839 -11.557 -26.124 -15.389 -39.89 v 0 c -2.61 -9.373 -4.7 -18.919 -6.493 -28.487 v 0 c -2.491 -13.3 -3.632 -26.716 -1.699 -40.25 v 0 c 0.983 -6.879 2.653 -13.493 6.221 -19.522 v 0 c 5.276 -8.918 15.237 -13.563 25.336 -11.888 v 0 c 6.228 1.032 11.552 3.98 16.508 7.695 v 0 c 9.831 7.365 17.45 16.842 24.999 26.373 v 0 c 4.482 5.659 8.918 11.355 13.333 17.063 v 0 c 0.859 1.11 1.846 1.491 3.24 1.469 v 0 c 3.491 -0.054 6.984 -0.046 10.477 -0.037 v 0 c 1.446 0.004 2.893 0.007 4.341 0.007 v 0 c 2.988 0 5.975 -0.004 8.962 -0.006 v 0 c -36.711 28.829 -62.13 71.375 -68.539 119.921 v 0 c -2.134 -2.262 -4.12 -4.677 -6.014 -7.181" stroke-linecap="round" />
</g>
		<g transform="matrix(1.1017527443474824 0 0 -1.1017527443474824 -69.94748510231983 -129.46679573846376)"  >
<linearGradient id="SVGID_64139" gradientUnits="userSpaceOnUse" gradientTransform="matrix(16.926483 0 0 -16.926483 657.95911 408.10052)"  x1="0" y1="0" x2="1" y2="0">
<stop offset="0%" style="stop-color:rgb(46,49,145);stop-opacity: 1"/>
<stop offset="100%" style="stop-color:rgb(157,0,93);stop-opacity: 1"/>
</linearGradient>
<path style="stroke: none; stroke-width: 1; stroke-dasharray: none; stroke-linecap: butt; stroke-dashoffset: 0; stroke-linejoin: miter; stroke-miterlimit: 4; fill: url(#SVGID_64139); fill-rule: nonzero; opacity: 1;"  paint-order="stroke"  transform=" translate(-666.4224999999999, -408.1005)" d="m 663.928 410.379 c 0.015 0 0.03 0 0.044 0 v 0 c -0.014 0 -0.029 0 -0.044 0 v 0 c 0 0 0 0 0 0 m -0.005 0 c 0.002 0 0.004 0 0.005 0 v 0 c 0 0 0 0 0 0 v 0 c -0.001 0 -0.003 0 -0.005 0 m -0.543 -0.01 c 0.183 0.007 0.364 0.01 0.543 0.01 v 0 c -0.179 0 -0.36 -0.003 -0.543 -0.01 m 9.68 -3.2 c -2.735 1.919 -5.618 3.2 -9.088 3.21 v 0 c 3.469 -0.01 6.353 -1.291 9.088 -3.21 m -9.835 3.193 c -0.637 -0.03 -1.276 -0.055 -1.913 -0.074 v 0 c -1.118 -0.031 -2.235 -0.046 -3.353 -0.052 v 0 c 1.118 0.006 2.235 0.021 3.353 0.052 v 0 c 0.637 0.019 1.276 0.044 1.913 0.074 v 0 c 0.052 0.003 0.104 0.005 0.155 0.007 v 0 c -0.051 -0.002 -0.103 -0.004 -0.155 -0.007 m 10.235 -3.479 c -0.133 0.097 -0.267 0.192 -0.4 0.286 v 0 c 0.133 -0.094 0.267 -0.189 0.4 -0.286 m 0.221 -0.162 c -0.074 0.054 -0.147 0.108 -0.221 0.162 v 0 c 0.074 -0.054 0.147 -0.108 0.221 -0.162 m 0 0 c 0.402 -0.299 0.803 -0.6 1.205 -0.899 v 0 c -0.402 0.299 -0.803 0.6 -1.205 0.899 v 0 c 0 0 0 0 0 0" stroke-linecap="round" />
</g>
		<g transform="matrix(1.1017527443474824 0 0 -1.1017527443474824 -108.81677104652692 -130.62033086179562)"  >
<linearGradient id="SVGID_64140" gradientUnits="userSpaceOnUse" gradientTransform="matrix(18.328541 0 0 -18.328541 621.97894 409.14755)"  x1="0" y1="0" x2="1" y2="0">
<stop offset="0%" style="stop-color:rgb(46,49,145);stop-opacity: 1"/>
<stop offset="100%" style="stop-color:rgb(157,0,93);stop-opacity: 1"/>
</linearGradient>
<path style="stroke: none; stroke-width: 1; stroke-dasharray: none; stroke-linecap: butt; stroke-dashoffset: 0; stroke-linejoin: miter; stroke-miterlimit: 4; fill: url(#SVGID_64140); fill-rule: nonzero; opacity: 1;"  paint-order="stroke"  transform=" translate(-631.1429999999998, -409.1475)" d="m 632.066 410.346 c 0.001 0 0.003 0 0.005 0 v 0 c -0.002 0 -0.004 0 -0.005 0 v 0 c 0 0 0 0 0 0 m -0.113 0 c 0.038 0 0.075 0 0.113 0 v 0 c 0 0 0 0 0 0 v 0 c -0.038 0 -0.075 0 -0.113 0 m 0.656 -0.007 c -0.181 0.005 -0.359 0.007 -0.538 0.007 v 0 c 0.178 0 0.358 -0.002 0.538 -0.007 m -9.964 -2.081 c 2.914 1.302 5.99 2.071 9.308 2.088 v 0 c -3.318 -0.017 -6.393 -0.786 -9.308 -2.088 m 10.083 2.078 c 0.069 -0.002 0.138 -0.004 0.207 -0.006 v 0 c -0.069 0.002 -0.138 0.004 -0.207 0.006 v 0 c -0.04 0.001 -0.08 0.002 -0.119 0.003 v 0 c 0.039 -0.001 0.079 -0.002 0.119 -0.003 m 5.867 -0.077 c -1.887 0.001 -3.774 0.018 -5.66 0.071 v 0 c 1.886 -0.053 3.772 -0.07 5.66 -0.071 m 0.062 0 c 0.55 0 1.1 0.002 1.651 0.004 v 0 c -0.551 -0.002 -1.101 -0.004 -1.651 -0.004 m -0.001 0 c -0.02 0 -0.041 0 -0.061 0 v 0 c 0.02 0 0.041 0 0.061 0 m 0 0 c 0 0 0 0 0.001 0 v 0 c -0.001 0 -0.001 0 -0.001 0 m -16.018 -2.004 c 0.002 0.001 0.005 0.002 0.007 0.003 v 0 c -0.002 -0.001 -0.005 -0.002 -0.007 -0.003 m -0.096 -0.044 c 0.032 0.015 0.064 0.029 0.096 0.044 v 0 c -0.032 -0.015 -0.064 -0.029 -0.096 -0.044 m -0.099 -0.044 c 0.033 0.015 0.066 0.029 0.099 0.044 v 0 c -0.033 -0.015 -0.066 -0.029 -0.099 -0.044 m -0.112 -0.052 c 0.037 0.017 0.075 0.035 0.112 0.052 v 0 c -0.037 -0.017 -0.075 -0.035 -0.112 -0.052 m -0.353 -0.166 c 0.118 0.056 0.235 0.112 0.353 0.166 v 0 c -0.118 -0.054 -0.235 -0.11 -0.353 -0.166" stroke-linecap="round" />
</g>
		<g transform="matrix(1.1017527443474824 0 0 -1.1017527443474824 -123.81382940258447 -125.95881500046144)"  >
<linearGradient id="SVGID_64141" gradientUnits="userSpaceOnUse" gradientTransform="matrix(0.0556526 0 0 -0.0556526 617.50385 404.91647)"  x1="0" y1="0" x2="1" y2="0">
<stop offset="0%" style="stop-color:rgb(46,49,145);stop-opacity: 1"/>
<stop offset="100%" style="stop-color:rgb(157,0,93);stop-opacity: 1"/>
</linearGradient>
<path style="stroke: none; stroke-width: 1; stroke-dasharray: none; stroke-linecap: butt; stroke-dashoffset: 0; stroke-linejoin: miter; stroke-miterlimit: 4; fill: url(#SVGID_64141); fill-rule: nonzero; opacity: 1;"  paint-order="stroke"  transform=" translate(-617.5310000000001, -404.91650000000004)" d="m 617.503 405.35 c 0 0 0.002 0.001 0.003 0.001 v 0 c -0.001 0 -0.003 -0.001 -0.003 -0.001 m 0.003 0.001 c 0 0 0 0 0 0 m 0.006 -0.102 c -0.002 0.033 -0.004 0.068 -0.006 0.102 v 0 c 0.002 -0.034 0.004 -0.069 0.006 -0.102 m 0.022 -0.359 c -0.007 0.118 -0.014 0.237 -0.022 0.359 v 0 c 0.008 -0.122 0.015 -0.242 0.022 -0.359 m 0.005 -0.078 c 0 -0.008 0.001 -0.017 0.001 -0.025 v 0 c -0.002 0.034 -0.004 0.069 -0.006 0.103 v 0 c 0.002 -0.026 0.003 -0.052 0.005 -0.078 m 0.02 -0.33 c -0.003 0.065 -0.007 0.127 -0.011 0.195 v 0 c -0.003 0.036 -0.005 0.073 -0.008 0.11 v 0 c 0.007 -0.103 0.013 -0.205 0.019 -0.305" stroke-linecap="round" />
</g>
		<g transform="matrix(1.1017527443474824 0 0 -1.1017527443474824 -120.84019874559073 -128.29342906573368)"  >
<linearGradient id="SVGID_64142" gradientUnits="userSpaceOnUse" gradientTransform="matrix(1.0752602 0 0 -1.0752602 619.69263 407.03589)"  x1="0" y1="0" x2="1" y2="0">
<stop offset="0%" style="stop-color:rgb(46,49,145);stop-opacity: 1"/>
<stop offset="100%" style="stop-color:rgb(157,0,93);stop-opacity: 1"/>
</linearGradient>
<path style="stroke: none; stroke-width: 1; stroke-dasharray: none; stroke-linecap: butt; stroke-dashoffset: 0; stroke-linejoin: miter; stroke-miterlimit: 4; fill: url(#SVGID_64142); fill-rule: nonzero; opacity: 1;"  paint-order="stroke"  transform=" translate(-620.23, -407.0355)" d="m 619.692 406.733 c 0.357 0.208 0.715 0.413 1.076 0.605 v 0 c -0.361 -0.192 -0.719 -0.397 -1.076 -0.605" stroke-linecap="round" />
</g>
		<g transform="matrix(1.1017527443474824 0 0 -1.1017527443474824 -91.06312732411135 -58.94800958375882)"  >
<linearGradient id="SVGID_64143" gradientUnits="userSpaceOnUse" gradientTransform="matrix(67.770554 0 0 -67.770554 613.37177 344.09482)"  x1="0" y1="0" x2="1" y2="0">
<stop offset="0%" style="stop-color:rgb(41,170,225);stop-opacity: 1"/>
<stop offset="100%" style="stop-color:rgb(0,113,187);stop-opacity: 1"/>
</linearGradient>
<path style="stroke: none; stroke-width: 1; stroke-dasharray: none; stroke-linecap: butt; stroke-dashoffset: 0; stroke-linejoin: miter; stroke-miterlimit: 4; fill: url(#SVGID_64143); fill-rule: nonzero; opacity: 1;"  paint-order="stroke"  transform=" translate(-647.257, -344.0945)" d="M 635.962 366.685 V 355.39 h -11.295 c -6.238 0 -11.295 -5.057 -11.295 -11.295 v 0 c 0 -6.239 5.057 -11.295 11.295 -11.295 v 0 h 11.295 v -11.296 c 0 -6.238 5.057 -11.295 11.295 -11.295 v 0 c 6.238 0 11.295 5.057 11.295 11.295 v 0 v 11.296 h 11.295 c 6.237 0 11.295 5.056 11.295 11.295 v 0 c 0 6.238 -5.058 11.295 -11.295 11.295 v 0 h -11.295 v 11.295 c 0 6.238 -5.057 11.295 -11.295 11.295 v 0 c -6.238 0 -11.295 -5.057 -11.295 -11.295" stroke-linecap="round" />
</g>
		<g transform="matrix(1.1017527443474824 0 0 -1.1017527443474824 -31.10959911132636 -68.67813894546364)"  >
<linearGradient id="SVGID_64144" gradientUnits="userSpaceOnUse" gradientTransform="matrix(197.75302 -13.07458 -13.07458 -197.75302 598.69366 359.91815)"  x1="0" y1="0" x2="1" y2="0">
<stop offset="0%" style="stop-color:rgb(41,170,225);stop-opacity: 1"/>
<stop offset="100%" style="stop-color:rgb(0,113,187);stop-opacity: 1"/>
</linearGradient>
<path style="stroke: none; stroke-width: 1; stroke-dasharray: none; stroke-linecap: butt; stroke-dashoffset: 0; stroke-linejoin: miter; stroke-miterlimit: 4; fill: url(#SVGID_64144); fill-rule: nonzero; opacity: 1;"  paint-order="stroke"  transform=" translate(-701.6735000000001, -352.926)" d="m 604.462 417.763 l -2.044 -1.508 l 0.11 -2.538 c 0.206 -4.766 0.599 -9.514 1.165 -14.234 v 0 l 8.999 5.482 c -0.206 2.195 -0.377 4.399 -0.504 6.613 v 0 c 26.234 18.698 57.116 28.564 89.486 28.564 v 0 c 32.369 0 63.25 -9.866 89.484 -28.564 v 0 C 787.699 351.002 754.452 297.322 701.674 267.097 v 0 c -2.204 1.261 -4.37 2.568 -6.506 3.911 v 0 h -16.831 c 6.69 -4.973 13.712 -9.51 21.025 -13.56 v 0 l 2.312 -1.281 l 2.311 1.281 c 27.698 15.339 51.271 37.616 68.171 64.423 v 0 c 17.346 27.514 27.258 59.275 28.663 91.846 v 0 l 0.11 2.538 l -2.045 1.508 c -28.321 20.883 -61.937 31.922 -97.21 31.922 v 0 c -35.274 0 -68.889 -11.039 -97.212 -31.922" stroke-linecap="round" />
</g>
		<g transform="matrix(1.1017527443474824 0 0 -1.1017527443474824 27.191850861309092 -58.92817803436046)"  >
<linearGradient id="SVGID_64145" gradientUnits="userSpaceOnUse" gradientTransform="matrix(-58.094696 8.6205034 8.6205034 58.094696 808.5224 335.47202)"  x1="0" y1="0" x2="1" y2="0">
<stop offset="0%" style="stop-color:rgb(0,0,0);stop-opacity: 1"/>
<stop offset="100%" style="stop-color:rgb(0,0,0);stop-opacity: 1"/>
</linearGradient>
<path style="stroke: none; stroke-width: 1; stroke-dasharray: none; stroke-linecap: butt; stroke-dashoffset: 0; stroke-linejoin: miter; stroke-miterlimit: 4; fill: url(#SVGID_64145); fill-rule: nonzero; opacity: 1;"  paint-order="stroke"  transform=" translate(-754.5905, -344.07649999999995)" d="m 780.62 410.335 c -1.315 -0.02 -2.628 -0.035 -3.943 -0.047 v 0 c 7.618 -78.719 -58.203 -132.29 -58.429 -132.473 v 0 c 42.216 30.663 68.713 77.801 72.685 130.421 v 0 c -0.206 0.089 -0.412 0.181 -0.62 0.266 v 0 c -0.032 0.013 -0.065 0.027 -0.097 0.04 v 0 c -0.374 0.15 -0.751 0.292 -1.132 0.424 v 0 c -2.526 0.881 -5.204 1.372 -8.079 1.372 v 0 c -0.128 0 -0.257 -0.001 -0.385 -0.003" stroke-linecap="round" />
</g>
</g>
</g>
</svg>